<svg width="279" height="61" viewBox="0 0 279 61" fill="none" xmlns="http://www.w3.org/2000/svg">
<path fill-rule="evenodd" clip-rule="evenodd" d="M89.9945 38.9549L78.6708 26.2394C78.462 26.0054 78.3165 25.8029 78.2279 25.6322H78.152V38.9549H76.3174V12.3789H78.152V24.9046H78.2279C78.3734 24.6453 78.5379 24.4301 78.7087 24.2594L89.4567 12.3789H91.848L80.189 25.2589L92.5693 38.9549H89.9945ZM107.284 38.9549V35.1529H107.214C106.607 36.4498 105.727 37.4873 104.57 38.259C103.418 39.0308 102.134 39.4168 100.724 39.4168C98.9205 39.4168 97.4972 38.9107 96.4471 37.8984C95.3969 36.8862 94.8718 35.6084 94.8718 34.0647C94.8718 30.75 97.0607 28.7509 101.451 28.0551L107.284 27.1884C107.284 23.108 105.753 21.071 102.691 21.071C100.603 21.071 98.5727 21.9123 96.5926 23.5889V21.5329C97.2948 20.9761 98.25 20.5016 99.4583 20.1094C100.66 19.7109 101.793 19.5148 102.855 19.5148C104.81 19.5148 106.322 20.1157 107.391 21.3304C108.46 22.5386 108.992 24.3036 108.992 26.6127V38.9549H107.284ZM102.058 29.5037C100.072 29.7884 98.6738 30.2502 97.8704 30.8828C97.067 31.5217 96.6685 32.5529 96.6685 33.9889C96.6685 35.115 97.0418 36.0386 97.7883 36.766C98.5347 37.4999 99.5785 37.8606 100.913 37.8606C102.742 37.8606 104.26 37.1836 105.468 35.8298C106.683 34.476 107.284 32.7364 107.284 30.5981V28.7446L102.058 29.5037ZM131.064 38.9549V22.5513L130.564 23.8861C130.431 24.2594 130.285 24.639 130.127 25.0374C129.975 25.4297 129.843 25.7714 129.729 26.056L124.598 38.9549H123.207L117.665 26.056C117.545 25.7966 117.405 25.4676 117.26 25.0755C117.108 24.6769 116.969 24.2973 116.83 23.9241C116.672 23.4939 116.507 23.032 116.33 22.5513V38.9549H114.698V19.9767H116.741L122.523 33.116C122.656 33.4132 122.802 33.7611 122.96 34.166C123.112 34.5645 123.257 34.9504 123.39 35.3237C123.554 35.7538 123.713 36.1903 123.877 36.6395C124.048 36.203 124.219 35.7792 124.396 35.3617C124.529 35.001 124.68 34.6216 124.839 34.2293C124.997 33.8307 125.136 33.4892 125.244 33.1918L130.64 19.9767H132.734V38.9549H131.064ZM139.205 29.5417C139.205 32.148 139.806 34.1851 141.014 35.659C142.216 37.1266 143.868 37.8606 145.968 37.8606C148.093 37.8606 150.168 37.076 152.199 35.5071V37.3227C150.232 38.7209 148.036 39.4168 145.62 39.4168C143.172 39.4168 141.192 38.5438 139.686 36.7851C138.18 35.0327 137.427 32.5529 137.427 29.3519C137.427 26.5873 138.212 24.253 139.787 22.3552C141.362 20.4637 143.412 19.5148 145.93 19.5148C148.289 19.5148 150.105 20.3435 151.364 21.9946C152.623 23.6521 153.255 25.9104 153.255 28.7825V29.5417H139.205ZM151.471 27.9854C151.402 25.7966 150.877 24.0948 149.896 22.8866C148.922 21.6783 147.575 21.071 145.86 21.071C144.076 21.071 142.609 21.6656 141.438 22.8613C140.268 24.0506 139.553 25.7587 139.281 27.9854H151.471ZM170.861 38.9549V29.8895H159.664V38.9549H157.956V19.9767H159.664V28.3333H170.861V19.9767H172.563V38.9549H170.861ZM191.655 33.2677C191.655 34.2293 191.49 35.0706 191.155 35.7855C190.82 36.5003 190.383 37.095 189.846 37.5631C189.308 38.0377 188.701 38.3855 188.011 38.6132C187.328 38.8411 186.632 38.9549 185.93 38.9549H178.642V19.9767H180.35V27.7577H185.778C186.683 27.7577 187.499 27.8842 188.226 28.131C188.954 28.3777 189.574 28.7383 190.08 29.2127C190.586 29.6936 190.978 30.2691 191.25 30.9461C191.522 31.6293 191.655 32.401 191.655 33.2677ZM189.877 33.2677C189.877 32.711 189.789 32.1923 189.605 31.7052C189.428 31.2244 189.156 30.8069 188.783 30.4589C188.41 30.1047 187.948 29.8263 187.391 29.6239C186.834 29.4214 186.183 29.3203 185.43 29.3203H180.35V37.3987H185.468C186.271 37.3987 186.948 37.2912 187.505 37.076C188.062 36.8547 188.517 36.5636 188.865 36.184C189.219 35.8046 189.472 35.3681 189.637 34.8683C189.795 34.3685 189.877 33.8307 189.877 33.2677ZM208.818 14.0616V38.9549H206.983V12.3789H219.477V14.0616H208.818ZM224.867 35.5831H224.791V47.6849H223.083V19.9767H224.791V23.8861H224.867C225.544 22.488 226.518 21.4125 227.783 20.6535C229.049 19.8944 230.447 19.5148 231.965 19.5148C234.375 19.5148 236.254 20.3435 237.608 22.0073C238.962 23.6647 239.638 25.9231 239.638 28.7825C239.638 31.9582 238.86 34.5203 237.31 36.4814C235.761 38.4361 233.711 39.4168 231.168 39.4168C228.327 39.4168 226.227 38.1388 224.867 35.5831ZM224.791 28.5231V30.9081C224.791 32.8123 225.392 34.4507 226.588 35.8108C227.79 37.1773 229.365 37.8606 231.313 37.8606C233.255 37.8606 234.831 37.0318 236.039 35.3681C237.254 33.7042 237.854 31.5217 237.854 28.8142C237.854 26.4419 237.304 24.563 236.191 23.1649C235.077 21.7669 233.597 21.071 231.743 21.071C229.529 21.071 227.821 21.8111 226.607 23.2914C225.398 24.7781 224.791 26.5179 224.791 28.5231ZM254.922 38.9549V35.1529H254.853C254.245 36.4498 253.366 37.4873 252.208 38.259C251.057 39.0308 249.773 39.4168 248.362 39.4168C246.559 39.4168 245.136 38.9107 244.086 37.8984C243.036 36.8862 242.51 35.6084 242.51 34.0647C242.51 30.75 244.699 28.7509 249.09 28.0551L254.922 27.1884C254.922 23.108 253.391 21.071 250.33 21.071C248.242 21.071 246.211 21.9123 244.231 23.5889V21.5329C244.933 20.9761 245.889 20.5016 247.097 20.1094C248.299 19.7109 249.431 19.5148 250.494 19.5148C252.449 19.5148 253.961 20.1157 255.03 21.3304C256.099 22.5386 256.63 24.3036 256.63 26.6127V38.9549H254.922ZM249.697 29.5037C247.711 29.7884 246.312 30.2502 245.509 30.8828C244.706 31.5217 244.307 32.5529 244.307 33.9889C244.307 35.115 244.68 36.0386 245.427 36.766C246.173 37.4999 247.217 37.8606 248.552 37.8606C250.38 37.8606 251.898 37.1836 253.107 35.8298C254.321 34.476 254.922 32.7364 254.922 30.5981V28.7446L249.697 29.5037ZM276.836 43.9589V38.9549H261.691V43.9589H260.135V37.3987H261.805C262.627 36.1967 263.361 34.9062 264 33.5271C264.633 32.1417 265.171 30.6993 265.601 29.2063C266.031 27.7134 266.366 26.1825 266.6 24.6263C266.834 23.0701 266.974 21.5202 267.011 19.9767H275.463V37.3987H278.392V43.9589H276.836ZM273.755 21.5329H268.568C268.466 22.8549 268.302 24.2024 268.068 25.5752C267.834 26.948 267.511 28.3081 267.113 29.6682C266.708 31.0283 266.227 32.3568 265.664 33.6663C265.107 34.9694 264.456 36.2094 263.709 37.3987H273.755V21.5329Z" fill="black"/>
<path fill-rule="evenodd" clip-rule="evenodd" d="M0 0.00976562H4.58332V53.485H0V0.00976562Z" fill="#DF2824"/>
<path fill-rule="evenodd" clip-rule="evenodd" d="M0.0556641 4.58342V0H54.6998V4.58342H0.0556641Z" fill="#DF2824"/>
<path fill-rule="evenodd" clip-rule="evenodd" d="M50.125 0.00927734H54.7085V53.4845H50.125V0.00927734Z" fill="#DF2824"/>
<path fill-rule="evenodd" clip-rule="evenodd" d="M0.0556641 53.4848V48.9014H21.8179V53.4848H0.0556641Z" fill="#DF2824"/>
<path fill-rule="evenodd" clip-rule="evenodd" d="M32.9082 53.4848V48.9014H54.6706V53.4848H32.9082Z" fill="#DF2824"/>
<path fill-rule="evenodd" clip-rule="evenodd" d="M18.3984 51.9683L21.8019 48.8984L29.9484 57.9303L26.545 61.0002L18.3984 51.9683Z" fill="#DF2824"/>
<path fill-rule="evenodd" clip-rule="evenodd" d="M15.5893 16.8177H14.281V10.1329H10.5584V16.8177H9.25586V8.9668H15.5893V16.8177Z" fill="black"/>
<path fill-rule="evenodd" clip-rule="evenodd" d="M30.0845 16.8079H28.6549L27.9485 14.8101H24.8611L24.1827 16.8079H22.7588L25.6984 8.95703H27.1654L30.0845 16.8079ZM27.6046 13.7468L26.5151 10.6146C26.4815 10.5138 26.4459 10.3493 26.4104 10.1231H26.388C26.3562 10.3305 26.3188 10.4951 26.2796 10.6146L25.1994 13.7468H27.6046Z" fill="black"/>
<path fill-rule="evenodd" clip-rule="evenodd" d="M45.7661 16.8079H44.4749V11.7266C44.4749 11.3118 44.501 10.8015 44.5514 10.1998H44.529C44.4486 10.5417 44.3776 10.7884 44.3159 10.9379L41.9724 16.8079H41.0754L38.7263 10.9828C38.6608 10.8108 38.5899 10.5492 38.517 10.1998H38.4965C38.5244 10.5138 38.5394 11.0257 38.5394 11.7378V16.8079H37.3359V8.95703H39.1693L41.2324 14.1859C41.3894 14.5878 41.4922 14.8868 41.5408 15.0829H41.5669C41.7034 14.67 41.8117 14.3634 41.8958 14.1635L43.9982 8.95703H45.7661V16.8079Z" fill="black"/>
<path fill-rule="evenodd" clip-rule="evenodd" d="M15.0364 30.6941H13.7339V27.4853H12.891C12.6761 27.4853 12.4873 27.5452 12.3248 27.6666C12.1621 27.7862 11.9865 28.0553 11.8015 28.4703L10.8708 30.6941H9.34766L10.5026 28.1974C10.5942 28.0049 10.7344 27.8013 10.9232 27.5863C11.11 27.3732 11.3287 27.2219 11.5772 27.1302V27.1079C11.0371 26.9938 10.6166 26.7565 10.3139 26.394C10.0129 26.0295 9.86347 25.5904 9.86347 25.0709C9.86347 24.4 10.114 23.8599 10.6128 23.4524C11.1138 23.0469 11.7696 22.8433 12.5845 22.8433H15.0364V30.6941ZM13.7339 26.4351V23.9103H12.6443C12.1995 23.9103 11.8538 24.0187 11.6091 24.2336C11.3641 24.4485 11.2427 24.7532 11.2427 25.1474C11.2427 25.5455 11.3736 25.8595 11.6332 26.0893C11.8949 26.3192 12.2463 26.4351 12.6873 26.4351H13.7339Z" fill="black"/>
<path fill-rule="evenodd" clip-rule="evenodd" d="M29.571 23.9555H27.3153V30.7H26.0128V23.9555H23.7607V22.8491H29.571V23.9555Z" fill="black"/>
<path fill-rule="evenodd" clip-rule="evenodd" d="M44.9146 30.6941H43.6046V27.2892H39.91V30.6941H38.6074V22.8433H39.91V26.1436H43.6046V22.8433H44.9146V30.6941Z" fill="black"/>
<path fill-rule="evenodd" clip-rule="evenodd" d="M45.1304 44.5349H43.8763V39.3059C43.8763 38.835 43.8951 38.5024 43.9324 38.3099H43.8988C43.8371 38.4744 43.7605 38.6258 43.6689 38.764L39.9014 44.5349H38.4736V36.6841H39.7313V41.6775C39.7313 42.2494 39.7183 42.625 39.6884 42.7989H39.7108C39.7837 42.653 39.879 42.4924 39.9949 42.3167L43.6297 36.6841H45.1304V44.5349Z" fill="black"/>
<path fill-rule="evenodd" clip-rule="evenodd" d="M30.4088 44.5349H28.712L25.9797 40.9431C25.8769 40.8085 25.8152 40.717 25.7946 40.6703H25.7722V44.5349H24.4697V36.6841H25.7722V40.3731H25.7946C25.8377 40.2927 25.8994 40.2049 25.9797 40.1059L28.6129 36.6841H30.1733L27.0916 40.4497L30.4088 44.5349Z" fill="black"/>
<path fill-rule="evenodd" clip-rule="evenodd" d="M15.9643 44.5349H14.7103V39.3059C14.7103 38.835 14.729 38.5024 14.7664 38.3099H14.7328C14.6711 38.4744 14.5944 38.6258 14.5029 38.764L10.7353 44.5349H9.30762V36.6841H10.5653V41.6775C10.5653 42.2494 10.5522 42.625 10.5223 42.7989H10.5447C10.6176 42.653 10.7129 42.4924 10.8288 42.3167L14.4637 36.6841H15.9643V44.5349Z" fill="black"/>
</svg>
