<svg width="36" height="36" viewBox="0 0 36 36" fill="none" xmlns="http://www.w3.org/2000/svg">
<path fill-rule="evenodd" clip-rule="evenodd" d="M8.68198 21.0305C8.74643 21.0519 8.81271 21.0675 8.87998 21.077C9.30437 22.077 9.72637 23.078 10.146 24.08C10.9005 25.883 11.661 27.74 11.8275 28.274C12.036 28.931 12.255 29.378 12.495 29.684C12.6195 29.84 12.762 29.978 12.93 30.083C13.0175 30.1377 13.1111 30.182 13.209 30.215C13.689 30.395 14.127 30.32 14.4015 30.2285C14.5626 30.1735 14.7158 30.0979 14.8575 30.0035L14.865 30.0005L19.104 27.3575L24.0015 31.1105C24.0735 31.166 24.1515 31.2125 24.2355 31.25C24.8235 31.505 25.3935 31.595 25.9305 31.523C26.4645 31.448 26.889 31.2245 27.2055 30.971C27.5689 30.678 27.8586 30.304 28.0515 29.879L28.065 29.846L28.0695 29.834L28.0725 29.828V29.825L28.074 29.8235C28.1001 29.7589 28.1201 29.6922 28.134 29.624L32.604 7.08647C32.6181 7.01433 32.6251 6.94098 32.625 6.86747C32.625 6.20747 32.376 5.57897 31.7925 5.19947C31.2915 4.87397 30.735 4.85897 30.3825 4.88597C30.0045 4.91597 29.6535 5.00897 29.418 5.08397C29.2862 5.12575 29.156 5.17279 29.028 5.22497L29.0115 5.23247L3.94048 15.0665L3.93748 15.068C3.85266 15.0992 3.76909 15.1337 3.68698 15.1715C3.48818 15.2608 3.29747 15.3672 3.11698 15.4895C2.77648 15.722 1.99198 16.361 2.12548 17.417C2.23048 18.257 2.80648 18.7745 3.15898 19.0235C3.35098 19.16 3.53398 19.2575 3.66898 19.322C3.72898 19.352 3.85798 19.403 3.91348 19.427L3.92848 19.4315L8.68198 21.0305ZM29.889 7.30247H29.886C29.8731 7.3082 29.8601 7.3137 29.847 7.31897L4.74598 17.1665C4.73307 17.1717 4.72007 17.1767 4.70698 17.1815L4.69198 17.186C4.64613 17.204 4.60109 17.224 4.55698 17.246C4.59873 17.2699 4.6418 17.2914 4.68598 17.3105L9.39898 18.8975C9.4832 18.9258 9.56377 18.9641 9.63898 19.0115L25.2045 9.89897L25.2195 9.89147C25.2799 9.85472 25.342 9.82069 25.4055 9.78947C25.5135 9.73397 25.686 9.65297 25.881 9.59297C26.016 9.55097 26.4165 9.43247 26.8485 9.57197C27.0776 9.64419 27.2818 9.7794 27.4378 9.96215C27.5938 10.1449 27.6952 10.3678 27.7305 10.6055C27.7863 10.8136 27.7879 11.0326 27.735 11.2415C27.63 11.654 27.342 11.975 27.078 12.221C26.853 12.431 23.9355 15.245 21.057 18.023L17.1375 21.803L16.44 22.478L25.248 29.231C25.3669 29.2809 25.496 29.3014 25.6245 29.291C25.6892 29.2822 25.7501 29.2551 25.8 29.213C25.8608 29.1616 25.913 29.1009 25.9545 29.033L25.9575 29.0315L30.2925 7.17197C30.1559 7.20481 30.022 7.24794 29.892 7.30097L29.889 7.30247ZM17.1975 25.8935L15.4395 24.5465L15.0135 27.254L17.1975 25.8935ZM13.827 21.8735L15.5745 20.186L19.494 16.403L20.9535 14.996L11.1735 20.7215L11.226 20.8445C11.8428 22.3016 12.4528 23.7616 13.056 25.2245L13.4805 22.5245C13.5189 22.274 13.641 22.0455 13.827 21.8735Z" fill="white"/>
</svg>
