<svg width="194" height="50" viewBox="0 0 194 50" fill="none" xmlns="http://www.w3.org/2000/svg">
<rect width="194" height="50" rx="6" fill="#F4F4F4"/>
<path d="M21.6523 31V18.3965H25.2383C26.3281 18.3965 27.1924 18.6631 27.8311 19.1963C28.4697 19.7295 28.7891 20.4238 28.7891 21.2793C28.7891 21.9941 28.5957 22.6152 28.209 23.1426C27.8223 23.6699 27.2891 24.0449 26.6094 24.2676V24.3027C27.459 24.4023 28.1387 24.7246 28.6484 25.2695C29.1582 25.8086 29.4131 26.5117 29.4131 27.3789C29.4131 28.457 29.0264 29.3301 28.2529 29.998C27.4795 30.666 26.5039 31 25.3262 31H21.6523ZM23.1289 19.7324V23.8018H24.6406C25.4492 23.8018 26.085 23.6084 26.5479 23.2217C27.0107 22.8291 27.2422 22.2783 27.2422 21.5693C27.2422 20.3447 26.4365 19.7324 24.8252 19.7324H23.1289ZM23.1289 25.1289V29.6641H25.1328C26 29.6641 26.6709 29.459 27.1455 29.0488C27.626 28.6387 27.8662 28.0762 27.8662 27.3613C27.8662 25.873 26.8525 25.1289 24.8252 25.1289H23.1289ZM41.6211 31H40.1973V22H41.6211V31ZM31.7773 31V22H33.2188V25.4541H35.6445C36.5645 25.4541 37.2939 25.6943 37.833 26.1748C38.3779 26.6553 38.6504 27.3262 38.6504 28.1875C38.6504 29.0547 38.3779 29.7402 37.833 30.2441C37.2881 30.748 36.5996 31 35.7676 31H31.7773ZM33.2188 26.6934V29.7695H35.3809C36.5762 29.7695 37.1738 29.2422 37.1738 28.1875C37.1738 27.1914 36.5703 26.6934 35.3633 26.6934H33.2188ZM51.5176 17.5703V18.9238C51.2773 19.0996 50.8906 19.2314 50.3574 19.3193C49.0391 19.5186 48.1162 19.7119 47.5889 19.8994C47.0674 20.0811 46.6367 20.4736 46.2969 21.0771C45.9629 21.6807 45.749 22.5625 45.6553 23.7227H45.6904C46.3936 22.7031 47.3955 22.1934 48.6963 22.1934C49.8857 22.1934 50.8438 22.6006 51.5703 23.415C52.2969 24.2295 52.6602 25.3047 52.6602 26.6406C52.6602 28.0176 52.2793 29.125 51.5176 29.9629C50.7617 30.7949 49.7422 31.2109 48.459 31.2109C47.0762 31.2109 46.0098 30.7217 45.2598 29.7432C44.5156 28.7588 44.1436 27.3555 44.1436 25.5332C44.1436 24.1152 44.2783 22.9141 44.5479 21.9297C44.8174 20.9395 45.1895 20.1953 45.6641 19.6973C46.1445 19.1992 46.6748 18.8564 47.2549 18.6689C47.8408 18.4814 48.8428 18.2617 50.2607 18.0098C50.8232 17.8809 51.2422 17.7344 51.5176 17.5703ZM45.6377 25.1465V26.3945C45.6436 26.8633 45.7139 27.3232 45.8486 27.7744C45.9834 28.2256 46.1768 28.624 46.4287 28.9697C46.6807 29.3154 46.9766 29.5732 47.3164 29.7432C47.6621 29.9131 48.0547 29.998 48.4941 29.998C49.2969 29.998 49.9443 29.6992 50.4365 29.1016C50.9346 28.498 51.1836 27.7275 51.1836 26.79C51.1836 25.7588 50.9287 24.9414 50.4189 24.3379C49.915 23.7285 49.2324 23.4238 48.3711 23.4238C47.1641 23.4238 46.2529 23.998 45.6377 25.1465ZM56.457 29.6992H56.4219V35.1396H54.9805V22H56.4219V23.582H56.457C57.166 22.3867 58.2031 21.7891 59.5684 21.7891C60.7285 21.7891 61.6338 22.1934 62.2842 23.002C62.9346 23.8047 63.2598 24.8828 63.2598 26.2363C63.2598 27.7422 62.8936 28.9492 62.1611 29.8574C61.4287 30.7598 60.4268 31.2109 59.1553 31.2109C57.9893 31.2109 57.0898 30.707 56.457 29.6992ZM56.4219 26.0693V27.3262C56.4219 28.0703 56.6621 28.7031 57.1426 29.2246C57.6289 29.7402 58.2441 29.998 58.9883 29.998C59.8613 29.998 60.5439 29.6641 61.0361 28.9961C61.5342 28.3281 61.7832 27.3994 61.7832 26.21C61.7832 25.208 61.5518 24.4229 61.0889 23.8545C60.626 23.2861 59.999 23.002 59.208 23.002C58.3701 23.002 57.6963 23.2949 57.1865 23.8809C56.6768 24.4609 56.4219 25.1904 56.4219 26.0693ZM72.0049 31H70.5635V29.5938H70.5283C69.9014 30.6719 68.9785 31.2109 67.7598 31.2109C66.8633 31.2109 66.1602 30.9736 65.6504 30.499C65.1465 30.0244 64.8945 29.3945 64.8945 28.6094C64.8945 26.9277 65.8848 25.9492 67.8652 25.6738L70.5635 25.2959C70.5635 23.7666 69.9453 23.002 68.709 23.002C67.625 23.002 66.6465 23.3711 65.7734 24.1094V22.6328C66.6582 22.0703 67.6777 21.7891 68.832 21.7891C70.9473 21.7891 72.0049 22.9082 72.0049 25.1465V31ZM70.5635 26.4473L68.3926 26.7461C67.7246 26.8398 67.2207 27.0068 66.8809 27.2471C66.541 27.4814 66.3711 27.9004 66.3711 28.5039C66.3711 28.9434 66.5264 29.3037 66.8369 29.585C67.1533 29.8604 67.5723 29.998 68.0938 29.998C68.8086 29.998 69.3975 29.749 69.8604 29.251C70.3291 28.7471 70.5635 28.1113 70.5635 27.3438V26.4473ZM80.3721 23.2305H77.6738V31H76.2324V23.2305H73.5254V22H80.3721V23.2305ZM82.1035 31V22H83.5449V25.4541H85.9707C86.8906 25.4541 87.6201 25.6943 88.1592 26.1748C88.7041 26.6553 88.9766 27.3262 88.9766 28.1875C88.9766 29.0547 88.7041 29.7402 88.1592 30.2441C87.6143 30.748 86.9258 31 86.0938 31H82.1035ZM83.5449 26.6934V29.7695H85.707C86.9023 29.7695 87.5 29.2422 87.5 28.1875C87.5 27.1914 86.8965 26.6934 85.6895 26.6934H83.5449ZM103.584 31H102.143V23.2305H97.5547V31H96.1133V22H103.584V31ZM112.944 31H111.503V29.5938H111.468C110.841 30.6719 109.918 31.2109 108.699 31.2109C107.803 31.2109 107.1 30.9736 106.59 30.499C106.086 30.0244 105.834 29.3945 105.834 28.6094C105.834 26.9277 106.824 25.9492 108.805 25.6738L111.503 25.2959C111.503 23.7666 110.885 23.002 109.648 23.002C108.564 23.002 107.586 23.3711 106.713 24.1094V22.6328C107.598 22.0703 108.617 21.7891 109.771 21.7891C111.887 21.7891 112.944 22.9082 112.944 25.1465V31ZM111.503 26.4473L109.332 26.7461C108.664 26.8398 108.16 27.0068 107.82 27.2471C107.48 27.4814 107.311 27.9004 107.311 28.5039C107.311 28.9434 107.466 29.3037 107.776 29.585C108.093 29.8604 108.512 29.998 109.033 29.998C109.748 29.998 110.337 29.749 110.8 29.251C111.269 28.7471 111.503 28.1113 111.503 27.3438V26.4473ZM125.381 31H123.957V23.582C123.828 23.957 123.629 24.5078 123.359 25.2344L121.109 31H119.817L117.497 25.2344C117.374 24.9238 117.175 24.373 116.899 23.582V31H115.66V22H117.497L119.87 27.8711C120.04 28.2988 120.257 28.8906 120.521 29.6465L121.162 27.9062L123.465 22H125.381V31ZM134.451 31H133.01V27.2734H131.806C131.226 27.2734 130.698 27.7422 130.224 28.6797L129.055 31H127.385L128.896 28.2227C129.248 27.5781 129.673 27.1533 130.171 26.9482C129.468 26.8545 128.932 26.5967 128.562 26.1748C128.193 25.7529 128.009 25.2256 128.009 24.5928C128.009 23.7959 128.296 23.166 128.87 22.7031C129.45 22.2344 130.262 22 131.305 22H134.451V31ZM133.01 26.0693V23.2305H131.305C130.092 23.2305 129.485 23.6904 129.485 24.6104C129.485 25.583 130.074 26.0693 131.252 26.0693H133.01ZM143.003 23.2305H140.305V31H138.863V23.2305H136.156V22H143.003V23.2305ZM152.205 31H150.764V26.9131H146.176V31H144.734V22H146.176V25.6914H150.764V22H152.205V31ZM162.664 31H161.363V23.8193C161.234 24.0713 161.038 24.4258 160.774 24.8828L156.617 31H155.123V22H156.441V29.0928C156.512 28.9229 156.664 28.6328 156.898 28.2227L161.17 22H162.664V31ZM173.053 31H171.031L167.059 26.6758H167.023V31H165.582V22H167.023V26.1221H167.059L170.838 22H172.728L168.553 26.3418L173.053 31Z" fill="#140E41"/>
</svg>
