<svg width="59" height="86" viewBox="0 0 59 86" fill="none" xmlns="http://www.w3.org/2000/svg">
<g opacity="0.5" clip-path="url(#clip0_1_1146)">
<path d="M1.79109 64.3753C1.38018 96.7031 7.40675 109.517 7.54372 110.193H52.3493C56.7322 101.872 57.2629 73.4379 57.2629 66.4043C57.2629 59.3706 57.2629 60.7232 55.3454 45.168C53.8113 32.7238 56.8977 19.3328 58.6326 14.1928L54.1126 12.4344L57.2629 6.21234C55.391 4.67936 48.5518 1.31582 36.1699 0.125512C23.788 -1.0648 11.2875 3.68743 6.58492 6.21234C5.12394 14.8241 2.11981 38.5131 1.79109 64.3753Z" stroke="white"/>
<path d="M54.1251 12.4194C49.2708 22.8209 47.1915 42.3064 56.8996 59.2262" stroke="white"/>
<path d="M37.0038 39.0815C37.0038 42.5376 36.0564 45.6443 34.5507 47.8727C33.0431 50.1039 31.0134 51.41 28.8359 51.41C26.6584 51.41 24.6286 50.1039 23.121 47.8727C21.6154 45.6443 20.668 42.5376 20.668 39.0815C20.668 35.6253 21.6154 32.5186 23.121 30.2902C24.6286 28.059 26.6584 26.7529 28.8359 26.7529C31.0134 26.7529 33.0431 28.059 34.5507 30.2902C36.0564 32.5186 37.0038 35.6253 37.0038 39.0815Z" stroke="white"/>
<path d="M11.1528 65.7785C11.8463 65.7785 12.5397 65.4318 12.5397 64.3916V69.2456" stroke="white"/>
<path d="M21.5547 68.8986C22.5948 68.8986 23.9834 68.8121 23.9834 66.1744M23.9834 66.1744C23.9834 63.7474 21.5579 64.0941 21.5564 65.8276C21.5547 67.8587 23.9834 67.778 23.9834 66.1744Z" stroke="white"/>
<path d="M14.2737 68.8986C15.3138 68.8986 16.7024 68.8121 16.7024 66.1744M16.7024 66.1744C16.7024 63.7474 14.2769 64.0941 14.2754 65.8276C14.2737 67.8587 16.7024 67.778 16.7024 66.1744Z" stroke="white"/>
<path d="M19.8215 69.2456C19.8215 69.2456 19.8215 65.2367 19.8215 64.3916C19.4748 65.7785 18.0879 67.8588 17.7412 67.8588C18.7814 67.8588 20.5149 67.8588 20.5149 67.8588" stroke="white" stroke-linejoin="bevel"/>
<path d="M26.4092 67.1655H30.2231" stroke="white" stroke-linejoin="bevel"/>
<path d="M43.5879 65.7785C44.2813 65.7785 44.9748 65.4318 44.9748 64.3916V69.2456" stroke="white"/>
<path d="M38.4998 66.7146C38.4998 67.9976 38.1704 69.0376 37.1823 69.0376C36.1941 69.0376 35.8647 67.9976 35.8647 66.7146C35.8647 65.4316 36.1941 64.3916 37.1823 64.3916C38.1704 64.3916 38.4998 65.4316 38.4998 66.7146Z" stroke="white"/>
<path d="M39.6799 66.1251C39.6799 65.0994 40.7035 64.0739 41.7271 64.7575C42.7507 65.4411 42.4093 67.8587 41.0225 67.512C39.6357 67.1653 39.6798 68.557 39.6798 68.8989L42.4094 68.8989" stroke="white" stroke-linejoin="bevel"/>
<path d="M31.9567 66.1251C31.9567 65.0994 32.9803 64.0739 34.004 64.7575C35.0276 65.4411 34.6861 67.8587 33.2994 67.512C31.9126 67.1653 31.9567 68.557 31.9567 68.8989L34.6863 68.8989" stroke="white" stroke-linejoin="bevel"/>
</g>
<defs>
<clipPath id="clip0_1_1146">
<rect width="59" height="86" fill="white"/>
</clipPath>
</defs>
</svg>
