<svg width="99" height="15" viewBox="0 0 99 15" fill="none" xmlns="http://www.w3.org/2000/svg">
<circle cx="6.5" cy="7.5" r="6.5" fill="url(#paint0_linear_366_885)"/>
<path d="M30.4141 12H28.5703V4.75C28.5703 4.15625 28.6068 3.42969 28.6797 2.57031H28.6484C28.5339 3.0599 28.4323 3.41146 28.3438 3.625L25 12H23.7188L20.3672 3.6875C20.2734 3.44271 20.1745 3.07031 20.0703 2.57031H20.0391C20.0807 3.01823 20.1016 3.75 20.1016 4.76562V12H18.3828V0.796875H21L23.9453 8.25781C24.1693 8.83073 24.3151 9.25781 24.3828 9.53906H24.4219C24.6146 8.95052 24.7708 8.51302 24.8906 8.22656L27.8906 0.796875H30.4141V12ZM39.75 8.49219H34.2969C34.3177 9.23177 34.5443 9.80208 34.9766 10.2031C35.4141 10.6042 36.013 10.8047 36.7734 10.8047C37.6276 10.8047 38.4115 10.5495 39.125 10.0391V11.5C38.3958 11.9583 37.4323 12.1875 36.2344 12.1875C35.0573 12.1875 34.1328 11.8255 33.4609 11.1016C32.7943 10.3724 32.4609 9.34896 32.4609 8.03125C32.4609 6.78646 32.8281 5.77344 33.5625 4.99219C34.3021 4.20573 35.2188 3.8125 36.3125 3.8125C37.4062 3.8125 38.2526 4.16406 38.8516 4.86719C39.4505 5.57031 39.75 6.54688 39.75 7.79688V8.49219ZM38 7.21094C37.9948 6.5599 37.8411 6.05469 37.5391 5.69531C37.237 5.33073 36.8203 5.14844 36.2891 5.14844C35.7682 5.14844 35.3255 5.33854 34.9609 5.71875C34.6016 6.09896 34.3802 6.59635 34.2969 7.21094H38ZM49.1328 14.9141H47.625V12H41.9297V14.9141H40.4375V10.6172H41.1484C42.4245 8.73177 43.0729 6.52604 43.0938 4H47.9062V10.6172H49.1328V14.9141ZM46.0938 10.6172V5.375H44.5703C44.4453 7.3125 43.9141 9.0599 42.9766 10.6172H46.0938ZM58.0234 12H56.3828V6.13281C56.2786 6.34115 56.1198 6.63021 55.9062 7L52.5391 12H50.7578V4H52.4219V9.75C52.4792 9.61458 52.6016 9.38021 52.7891 9.04688L56.2031 4H58.0234V12ZM66.5391 12H64.7812V10.75H64.75C64.1979 11.7083 63.388 12.1875 62.3203 12.1875C61.5339 12.1875 60.9167 11.974 60.4688 11.5469C60.026 11.1198 59.8047 10.5547 59.8047 9.85156C59.8047 8.34115 60.6745 7.46094 62.4141 7.21094L64.7891 6.875C64.7891 5.73438 64.2474 5.16406 63.1641 5.16406C62.2109 5.16406 61.3516 5.49219 60.5859 6.14844V4.5625C61.4297 4.0625 62.4036 3.8125 63.5078 3.8125C65.5286 3.8125 66.5391 4.80729 66.5391 6.79688V12ZM64.7891 8.07031L63.1094 8.30469C62.5885 8.3724 62.1953 8.5 61.9297 8.6875C61.6693 8.86979 61.5391 9.19271 61.5391 9.65625C61.5391 9.99479 61.6589 10.2734 61.8984 10.4922C62.1432 10.7057 62.4688 10.8125 62.875 10.8125C63.4271 10.8125 63.8828 10.6198 64.2422 10.2344C64.6068 9.84375 64.7891 9.35417 64.7891 8.76562V8.07031ZM74.4844 11.6328C73.8438 12.0026 73.0859 12.1875 72.2109 12.1875C71.0234 12.1875 70.0651 11.8177 69.3359 11.0781C68.6068 10.3333 68.2422 9.36979 68.2422 8.1875C68.2422 6.86979 68.6328 5.8125 69.4141 5.01562C70.2005 4.21354 71.25 3.8125 72.5625 3.8125C73.2917 3.8125 73.9349 3.9401 74.4922 4.19531V5.88281C73.9349 5.46615 73.3411 5.25781 72.7109 5.25781C71.9453 5.25781 71.3177 5.51823 70.8281 6.03906C70.3385 6.55469 70.0938 7.23177 70.0938 8.07031C70.0938 8.89844 70.3229 9.55208 70.7812 10.0312C71.2448 10.5104 71.8646 10.75 72.6406 10.75C73.2917 10.75 73.9062 10.5182 74.4844 10.0547V11.6328ZM83.0625 8.49219H77.6094C77.6302 9.23177 77.8568 9.80208 78.2891 10.2031C78.7266 10.6042 79.3255 10.8047 80.0859 10.8047C80.9401 10.8047 81.724 10.5495 82.4375 10.0391V11.5C81.7083 11.9583 80.7448 12.1875 79.5469 12.1875C78.3698 12.1875 77.4453 11.8255 76.7734 11.1016C76.1068 10.3724 75.7734 9.34896 75.7734 8.03125C75.7734 6.78646 76.1406 5.77344 76.875 4.99219C77.6146 4.20573 78.5312 3.8125 79.625 3.8125C80.7188 3.8125 81.5651 4.16406 82.1641 4.86719C82.763 5.57031 83.0625 6.54688 83.0625 7.79688V8.49219ZM81.3125 7.21094C81.3073 6.5599 81.1536 6.05469 80.8516 5.69531C80.5495 5.33073 80.1328 5.14844 79.6016 5.14844C79.0807 5.14844 78.638 5.33854 78.2734 5.71875C77.9141 6.09896 77.6927 6.59635 77.6094 7.21094H81.3125ZM90.2422 5.44531H87.9609V12H86.1406V5.44531H83.8438V4H90.2422V5.44531ZM91.6797 12V4H93.4922V6.95312H95.625C96.474 6.95312 97.1458 7.17188 97.6406 7.60938C98.1406 8.04167 98.3906 8.64583 98.3906 9.42188C98.3906 10.2188 98.1406 10.849 97.6406 11.3125C97.1458 11.7708 96.5182 12 95.7578 12H91.6797ZM93.4922 8.25781V10.6953H95.1484C96.0651 10.6953 96.5234 10.276 96.5234 9.4375C96.5234 8.65104 96.0599 8.25781 95.1328 8.25781H93.4922Z" fill="#DF2824"/>
<defs>
<linearGradient id="paint0_linear_366_885" x1="2.70833" y1="6.41667" x2="23.8333" y2="-3.875" gradientUnits="userSpaceOnUse">
<stop stop-color="#DF2824"/>
<stop offset="1" stop-color="white" stop-opacity="0"/>
</linearGradient>
</defs>
</svg>
