<svg width="138" height="172" viewBox="0 0 138 172" fill="none" xmlns="http://www.w3.org/2000/svg">
<path fill-rule="evenodd" clip-rule="evenodd" d="M83.5282 1.5C64.1403 1.50005 51.3309 8.46948 46.98 17.6552C46.8973 17.8298 46.7213 17.9412 46.5281 17.9412H37.1709V145.182H129.241V17.9412H118.884C118.713 17.9412 118.554 17.854 118.463 17.71C113.175 9.4204 102.838 1.49995 83.5282 1.5ZM129.741 17.4412V16.9412C130.018 16.9412 130.241 17.165 130.241 17.4412V145.682C130.241 145.958 130.018 146.182 129.741 146.182H36.6709C36.3948 146.182 36.1709 145.958 36.1709 145.682V17.4412C36.1709 17.165 36.3948 16.9412 36.6709 16.9412V17.4412C36.6709 16.9412 36.6708 16.9412 36.6709 16.9412H46.2146C50.9321 7.3926 64.1651 0.500051 83.5282 0.5C102.986 0.499949 113.633 8.4354 119.157 16.9412H129.741C129.741 16.9412 129.741 16.9412 129.741 17.4412Z" fill="#140E41"/>
<path fill-rule="evenodd" clip-rule="evenodd" d="M27.9502 145.682C27.9502 145.406 28.1741 145.182 28.4502 145.182H136.962C137.238 145.182 137.462 145.406 137.462 145.682V163.767C137.462 164.044 137.238 164.267 136.962 164.267H28.4502C28.1741 164.267 27.9502 164.044 27.9502 163.767V145.682ZM28.9502 146.182V163.267H136.462V146.182H28.9502Z" fill="#140E41"/>
<path fill-rule="evenodd" clip-rule="evenodd" d="M89.7776 54.3277C91.8818 51.2416 93.2154 46.9225 93.2154 42.1028C93.2154 37.2832 91.8818 32.9641 89.7776 29.878C87.67 26.7868 84.8617 25.0176 81.8846 25.0176C78.9074 25.0176 76.0992 26.7868 73.9916 29.878C71.8874 32.9641 70.5537 37.2832 70.5537 42.1028C70.5537 46.9225 71.8874 51.2416 73.9916 54.3277C76.0992 57.4189 78.9074 59.1881 81.8846 59.1881C84.8617 59.1881 87.67 57.4189 89.7776 54.3277ZM81.8846 60.1881C88.6947 60.1881 94.2154 52.0911 94.2154 42.1028C94.2154 32.1146 88.6947 24.0176 81.8846 24.0176C75.0744 24.0176 69.5537 32.1146 69.5537 42.1028C69.5537 52.0911 75.0744 60.1881 81.8846 60.1881Z" fill="#140E41"/>
<path fill-rule="evenodd" clip-rule="evenodd" d="M49.366 115.677C49.593 115.677 49.777 115.861 49.777 116.088V125.998C49.777 126.225 49.593 126.409 49.366 126.409C49.1391 126.409 48.9551 126.225 48.9551 125.998V118.42C48.8882 118.489 48.8179 118.555 48.7443 118.616C48.1164 119.139 47.3035 119.331 46.5345 119.331C46.3075 119.331 46.1235 119.146 46.1235 118.92C46.1235 118.693 46.3075 118.509 46.5345 118.509C47.1813 118.509 47.7841 118.346 48.2181 117.984C48.6389 117.634 48.9551 117.051 48.9551 116.088C48.9551 115.861 49.1391 115.677 49.366 115.677Z" fill="#140E41"/>
<path fill-rule="evenodd" clip-rule="evenodd" d="M72.2775 116.771C72.8165 117.439 73.1425 118.424 73.1425 119.728C73.1425 122.484 72.4159 124.032 71.2922 124.859C70.1962 125.666 68.824 125.701 67.7728 125.701C67.5458 125.701 67.3618 125.517 67.3618 125.29C67.3618 125.063 67.5458 124.879 67.7728 124.879C68.8452 124.879 69.9524 124.825 70.8048 124.198C71.3418 123.802 71.8221 123.141 72.0918 122.003C71.5597 122.413 70.8913 122.603 70.2301 122.567C69.5083 122.528 68.7847 122.217 68.2435 121.615C67.7003 121.011 67.3644 120.14 67.3653 119.02C67.367 117.042 68.7718 115.778 70.255 115.778C70.9977 115.778 71.7347 116.099 72.2775 116.771ZM72.3205 119.728C72.3205 120.435 72.0563 120.945 71.6845 121.274C71.3065 121.608 70.7949 121.775 70.2751 121.746C69.7577 121.718 69.2422 121.497 68.8547 121.066C68.4691 120.637 68.1865 119.973 68.1873 119.02C68.1886 117.459 69.2614 116.6 70.255 116.6C70.7508 116.6 71.2521 116.81 71.6379 117.287C72.0275 117.77 72.3205 118.555 72.3205 119.728Z" fill="#140E41"/>
<path fill-rule="evenodd" clip-rule="evenodd" d="M57.4103 116.771C57.9493 117.439 58.2753 118.424 58.2753 119.728C58.2753 122.484 57.5487 124.032 56.425 124.859C55.329 125.666 53.9568 125.701 52.9056 125.701C52.6786 125.701 52.4946 125.517 52.4946 125.29C52.4946 125.063 52.6786 124.879 52.9056 124.879C53.9781 124.879 55.0852 124.825 55.9377 124.197C56.4746 123.802 56.9549 123.141 57.2246 122.003C56.6925 122.413 56.0241 122.603 55.3629 122.567C54.6411 122.528 53.9175 122.217 53.3763 121.615C52.8332 121.011 52.4972 120.14 52.4981 119.02C52.4998 117.042 53.9046 115.778 55.3879 115.778C56.1305 115.778 56.8675 116.099 57.4103 116.771ZM57.4533 119.728C57.4533 120.435 57.1891 120.945 56.8173 121.274C56.4394 121.608 55.9278 121.775 55.4079 121.746C54.8905 121.718 54.375 121.497 53.9875 121.066C53.6019 120.637 53.3193 119.973 53.3201 119.02C53.3214 117.459 54.3943 116.6 55.3878 116.6C55.8836 116.6 56.3849 116.809 56.7707 117.287C57.1603 117.77 57.4533 118.555 57.4533 119.728Z" fill="#140E41"/>
<path fill-rule="evenodd" clip-rule="evenodd" d="M64.2832 115.68C64.4892 115.705 64.644 115.88 64.644 116.088L64.644 122.756H65.6481L65.6488 123.167L65.6487 123.578H64.644L64.644 125.998L64.233 125.998L63.822 125.998L63.822 123.578H59.9857C59.7587 123.578 59.5747 123.394 59.5747 123.167C59.5747 122.954 59.7371 122.778 59.9449 122.758C59.9463 122.757 59.9477 122.756 59.9493 122.756C59.976 122.741 60.0194 122.713 60.0799 122.663C60.2007 122.562 60.3547 122.405 60.5353 122.193C60.8944 121.77 61.3252 121.169 61.7608 120.471C62.6359 119.071 63.4954 117.344 63.8343 115.988C63.8846 115.787 64.0772 115.655 64.2832 115.68ZM61.1353 122.756H63.822L63.822 118.392C63.4197 119.266 62.9365 120.141 62.4579 120.907C62.0087 121.626 61.5546 122.263 61.1616 122.725C61.1528 122.735 61.1441 122.746 61.1353 122.756ZM64.233 125.998L63.822 125.998C63.822 126.225 64.006 126.409 64.233 126.409C64.46 126.409 64.644 126.225 64.644 125.998L64.233 125.998ZM65.6488 123.167L65.6487 123.578C65.8757 123.578 66.0597 123.394 66.0597 123.167C66.0597 122.94 65.8751 122.756 65.6481 122.756L65.6488 123.167Z" fill="#140E41"/>
<path fill-rule="evenodd" clip-rule="evenodd" d="M77.272 121.751C77.272 121.524 77.456 121.34 77.683 121.34H85.4697C85.6966 121.34 85.8806 121.524 85.8806 121.751C85.8806 121.978 85.6966 122.162 85.4697 122.162H77.683C77.456 122.162 77.272 121.978 77.272 121.751Z" fill="#140E41"/>
<path fill-rule="evenodd" clip-rule="evenodd" d="M115.587 115.677C115.814 115.677 115.998 115.861 115.998 116.088V125.998C115.998 126.225 115.814 126.409 115.587 126.409C115.36 126.409 115.176 126.225 115.176 125.998V118.42C115.109 118.489 115.039 118.555 114.965 118.616C114.337 119.139 113.524 119.331 112.755 119.331C112.528 119.331 112.344 119.146 112.344 118.92C112.344 118.693 112.528 118.509 112.755 118.509C113.402 118.509 114.005 118.346 114.439 117.984C114.86 117.634 115.176 117.051 115.176 116.088C115.176 115.861 115.36 115.677 115.587 115.677Z" fill="#140E41"/>
<path fill-rule="evenodd" clip-rule="evenodd" d="M97.9471 117.658C97.5678 118.433 97.4006 119.544 97.4006 120.831C97.4006 122.118 97.5678 123.229 97.9471 124.004C98.1343 124.386 98.3663 124.672 98.642 124.863C98.9143 125.051 99.2515 125.163 99.6796 125.163C100.108 125.163 100.445 125.051 100.717 124.863C100.993 124.672 101.225 124.386 101.412 124.004C101.791 123.229 101.959 122.118 101.959 120.831C101.959 119.544 101.791 118.433 101.412 117.658C101.225 117.276 100.993 116.99 100.717 116.799C100.445 116.61 100.108 116.499 99.6796 116.499C99.2515 116.499 98.9143 116.61 98.642 116.799C98.3663 116.99 98.1343 117.276 97.9471 117.658ZM98.1742 116.123C98.5954 115.831 99.0989 115.677 99.6796 115.677C100.26 115.677 100.764 115.831 101.185 116.123C101.603 116.412 101.917 116.82 102.15 117.296C102.611 118.238 102.78 119.498 102.78 120.831C102.78 122.163 102.611 123.423 102.15 124.365C101.917 124.841 101.603 125.25 101.185 125.539C100.764 125.83 100.26 125.985 99.6796 125.985C99.0989 125.985 98.5954 125.83 98.1742 125.539C97.7565 125.25 97.442 124.841 97.2089 124.365C96.7477 123.423 96.5786 122.163 96.5786 120.831C96.5786 119.498 96.7477 118.238 97.2089 117.296C97.442 116.82 97.7565 116.412 98.1742 116.123Z" fill="#140E41"/>
<path fill-rule="evenodd" clip-rule="evenodd" d="M106.338 117.246C105.655 117.779 105.19 118.706 105.19 119.627C105.19 119.854 105.006 120.038 104.779 120.038C104.552 120.038 104.368 119.854 104.368 119.627C104.368 118.454 104.949 117.287 105.833 116.598C106.74 115.891 107.978 115.686 109.187 116.493C109.813 116.911 110.207 117.577 110.409 118.289C110.613 119.004 110.634 119.796 110.488 120.517C110.343 121.234 110.024 121.92 109.507 122.381C108.974 122.858 108.259 123.067 107.421 122.857C106.773 122.696 106.349 122.75 106.068 122.878C105.79 123.005 105.597 123.23 105.46 123.521C105.257 123.956 105.206 124.479 105.194 124.879L110.352 124.879C110.579 124.879 110.763 125.063 110.763 125.29C110.763 125.517 110.579 125.701 110.352 125.701L104.779 125.701C104.67 125.701 104.566 125.658 104.489 125.581C104.412 125.504 104.368 125.399 104.368 125.29C104.368 125.27 104.368 125.248 104.368 125.223C104.366 124.845 104.362 123.931 104.716 123.173C104.911 122.756 105.226 122.359 105.727 122.13C106.226 121.903 106.852 121.868 107.62 122.06C108.197 122.204 108.631 122.062 108.96 121.768C109.305 121.46 109.56 120.957 109.682 120.354C109.804 119.755 109.784 119.096 109.619 118.514C109.453 117.931 109.15 117.457 108.731 117.177C107.85 116.588 106.998 116.732 106.338 117.246Z" fill="#140E41"/>
<path fill-rule="evenodd" clip-rule="evenodd" d="M90.5685 117.247C89.8852 117.779 89.4207 118.706 89.4207 119.627C89.4207 119.854 89.2367 120.038 89.0097 120.038C88.7827 120.038 88.5987 119.854 88.5987 119.627C88.5987 118.454 89.1792 117.287 90.0633 116.598C90.9703 115.891 92.2089 115.686 93.4178 116.493C94.0434 116.911 94.4372 117.577 94.6399 118.29C94.843 119.004 94.8644 119.796 94.7185 120.517C94.5735 121.234 94.2545 121.92 93.738 122.381C93.2045 122.858 92.4899 123.067 91.6513 122.858C91.004 122.696 90.5795 122.75 90.2987 122.878C90.0204 123.005 89.8271 123.23 89.6909 123.521C89.4877 123.956 89.4369 124.48 89.4244 124.879L94.5826 124.879C94.8096 124.879 94.9936 125.063 94.9936 125.29C94.9936 125.517 94.8096 125.701 94.5826 125.701L89.0097 125.701C88.9007 125.701 88.7962 125.658 88.7191 125.581C88.642 125.504 88.5987 125.399 88.5987 125.29C88.5987 125.27 88.5986 125.248 88.5985 125.223C88.5966 124.845 88.592 123.931 88.9462 123.173C89.1415 122.756 89.4565 122.359 89.9576 122.131C90.4562 121.903 91.0823 121.868 91.8506 122.06C92.4277 122.204 92.862 122.062 93.1903 121.769C93.5354 121.46 93.791 120.957 93.9129 120.354C94.034 119.755 94.0148 119.096 93.8493 118.514C93.6834 117.931 93.3806 117.457 92.9613 117.177C92.0803 116.588 91.2289 116.732 90.5685 117.247Z" fill="#140E41"/>
<path d="M41.6268 110.337C40.0708 115.895 36.5326 148.775 34.9581 164.521C37.472 165.681 43.2 168.7 46 171.5H4C6.8 168.7 12.528 165.681 15.0419 164.521C13.4674 148.775 10.0561 115.895 8.50004 110.337C6.944 104.78 2.85243 99.1303 1 97H49.1292C47.2767 99.1303 43.1829 104.78 41.6268 110.337Z" fill="#F4F4F4"/>
<path fill-rule="evenodd" clip-rule="evenodd" d="M0.545011 96.7927C0.626239 96.6144 0.804099 96.5 1.00001 96.5H49.1292C49.3251 96.5 49.5029 96.6144 49.5842 96.7927C49.6654 96.971 49.635 97.1803 49.5065 97.3281C47.6756 99.4336 43.6356 105.018 42.1083 110.472C41.7302 111.823 41.2214 114.884 40.645 119.003C40.0706 123.108 39.4337 128.227 38.796 133.667C37.5395 144.385 36.2806 156.34 35.4909 164.218C36.7748 164.825 38.686 165.808 40.6278 166.966C42.7329 168.221 44.9084 169.701 46.3536 171.146C46.4966 171.289 46.5393 171.505 46.4619 171.691C46.3846 171.878 46.2022 172 46 172H4.00001C3.79778 172 3.61546 171.878 3.53807 171.691C3.46068 171.505 3.50346 171.289 3.64645 171.146C5.09159 169.701 7.26711 168.221 9.37219 166.966C11.3141 165.808 13.2253 164.825 14.5091 164.218C13.7203 156.339 12.4926 144.384 11.2673 133.665C10.6454 128.225 10.0244 123.106 9.46188 119.002C8.89729 114.882 8.39645 111.822 8.01856 110.472C6.49121 105.017 2.45347 99.4335 0.622705 97.3281C0.494154 97.1803 0.463783 96.971 0.545011 96.7927ZM2.06573 97.5C4.12567 100.074 7.56974 105.16 8.98153 110.203C9.38166 111.632 9.89074 114.766 10.4526 118.866C11.0166 122.981 11.6386 128.109 12.2608 133.552C13.5054 144.438 14.7521 156.598 15.5395 164.471C15.5607 164.684 15.445 164.886 15.2514 164.975C14.0091 165.548 11.9643 166.585 9.88428 167.825C8.23146 168.81 6.57797 169.912 5.28853 171H44.7115C43.422 169.912 41.7686 168.81 40.1157 167.825C38.0357 166.585 35.9909 165.548 34.7486 164.975C34.555 164.886 34.4393 164.684 34.4606 164.471C35.248 156.597 36.5265 144.437 37.8028 133.55C38.4409 128.107 39.0788 122.98 39.6546 118.865C40.2284 114.764 40.7454 111.631 41.1453 110.203C42.5572 105.161 46.0031 100.074 48.0634 97.5H2.06573Z" fill="#F4F4F4"/>
<path fill-rule="evenodd" clip-rule="evenodd" d="M0.545011 96.7927C0.626239 96.6144 0.804099 96.5 1.00001 96.5H49.1292C49.3251 96.5 49.5029 96.6144 49.5842 96.7927C49.6654 96.971 49.635 97.1803 49.5065 97.3281C47.6756 99.4336 43.6356 105.018 42.1083 110.472C41.7302 111.823 41.2214 114.884 40.645 119.003C40.0706 123.108 39.4337 128.227 38.796 133.667C37.5395 144.385 36.2806 156.34 35.4909 164.218C36.7748 164.825 38.686 165.808 40.6278 166.966C42.7329 168.221 44.9084 169.701 46.3536 171.146C46.4966 171.289 46.5393 171.505 46.4619 171.691C46.3846 171.878 46.2022 172 46 172H4.00001C3.79778 172 3.61546 171.878 3.53807 171.691C3.46068 171.505 3.50346 171.289 3.64645 171.146C5.09159 169.701 7.26711 168.221 9.37219 166.966C11.3141 165.808 13.2253 164.825 14.5091 164.218C13.7203 156.339 12.4926 144.384 11.2673 133.665C10.6454 128.225 10.0244 123.106 9.46188 119.002C8.89729 114.882 8.39645 111.822 8.01856 110.472C6.49121 105.017 2.45347 99.4335 0.622705 97.3281C0.494154 97.1803 0.463783 96.971 0.545011 96.7927ZM2.06573 97.5C4.12567 100.074 7.56974 105.16 8.98153 110.203C9.38166 111.632 9.89074 114.766 10.4526 118.866C11.0166 122.981 11.6386 128.109 12.2608 133.552C13.5054 144.438 14.7521 156.598 15.5395 164.471C15.5607 164.684 15.445 164.886 15.2514 164.975C14.0091 165.548 11.9643 166.585 9.88428 167.825C8.23146 168.81 6.57798 169.912 5.28854 171H44.7115C43.422 169.912 41.7686 168.81 40.1157 167.825C38.0357 166.585 35.9909 165.548 34.7486 164.975C34.555 164.886 34.4393 164.684 34.4606 164.471C35.248 156.597 36.5265 144.437 37.8028 133.55C38.4409 128.107 39.0788 122.98 39.6546 118.865C40.2284 114.764 40.7454 111.631 41.1453 110.203C42.5572 105.161 46.0031 100.074 48.0634 97.5H2.06573Z" fill="#140E41"/>
<path fill-rule="evenodd" clip-rule="evenodd" d="M25.3043 75.9342C25.5012 76.1278 25.5039 76.4444 25.3103 76.6413C25.2958 76.6561 25.2758 76.676 25.2506 76.701C24.6603 77.2882 21.2657 80.6652 20.578 85.5942C20.5399 85.8677 20.2872 86.0585 20.0137 86.0203C19.7402 85.9822 19.5495 85.7295 19.5876 85.4561C20.3236 80.1803 23.9379 76.5947 24.5373 76.0001C24.5629 75.9746 24.5831 75.9546 24.5972 75.9402C24.7908 75.7433 25.1074 75.7406 25.3043 75.9342Z" fill="#140E41"/>
<path fill-rule="evenodd" clip-rule="evenodd" d="M15.3111 75.5088C15.5823 75.5605 15.7603 75.8223 15.7086 76.0936C15.1396 79.0802 15.6444 82.1017 17.4499 84.7572C17.6052 84.9856 17.5459 85.2965 17.3176 85.4518C17.0892 85.6071 16.7782 85.5478 16.6229 85.3195C14.6567 82.4276 14.1116 79.1326 14.7263 75.9064C14.778 75.6352 15.0398 75.4572 15.3111 75.5088Z" fill="#140E41"/>
<path fill-rule="evenodd" clip-rule="evenodd" d="M15.6879 87.7961C15.5177 88.0136 15.2034 88.052 14.986 87.8818C13.7733 86.933 12.5606 86.402 11.4341 86.291C10.319 86.1811 9.2589 86.4787 8.31473 87.2426C8.10005 87.4163 7.78522 87.3831 7.61153 87.1684C7.43783 86.9538 7.47106 86.6389 7.68573 86.4652C8.83485 85.5355 10.1564 85.1602 11.5322 85.2958C12.8967 85.4302 14.2842 86.0631 15.6022 87.0942C15.8197 87.2644 15.858 87.5787 15.6879 87.7961Z" fill="#140E41"/>
</svg>
