<svg width="71" height="178" viewBox="0 0 71 178" fill="none" xmlns="http://www.w3.org/2000/svg">
<path fill-rule="evenodd" clip-rule="evenodd" d="M27.6322 1C27.6322 0.723858 27.856 0.5 28.1322 0.5H43.4396C43.7157 0.5 43.9396 0.723858 43.9396 1V9.47768H51.2921C51.5682 9.47768 51.7921 9.70154 51.7921 9.97768V26.8108C51.7921 27.087 51.5682 27.3108 51.2921 27.3108H43.9396V35.2885H70.5012C70.7773 35.2885 71.0012 35.5124 71.0012 35.7885V52.0606C71.0012 52.3367 70.7773 52.5606 70.5012 52.5606H43.9396V92.6551L50.0721 94.9853C50.2662 95.0591 50.3945 95.2451 50.3945 95.4527V97.0101H57.8249C57.9458 97.0101 58.0626 97.0539 58.1536 97.1334L70.1744 107.623C70.2832 107.718 70.3457 107.856 70.3457 108V177C70.3457 177.276 70.1218 177.5 69.8457 177.5H0.57489C0.298748 177.5 0.0748901 177.276 0.0748901 177V108C0.0748901 107.856 0.137332 107.718 0.246144 107.623L12.2672 97.1334C12.3583 97.0539 12.4751 97.0101 12.5959 97.0101H18.9971V83.5C18.9971 83.3312 19.0823 83.1738 19.2237 83.0814C19.365 82.9891 19.5434 82.9743 19.698 83.0421L27.6322 86.5227V52.5606H0.574707C0.298565 52.5606 0.074707 52.3367 0.074707 52.0606V35.7885C0.074707 35.5124 0.298565 35.2885 0.574707 35.2885H27.6322V27.3108H20.5707C20.2945 27.3108 20.0707 27.087 20.0707 26.8108V9.97768C20.0707 9.70154 20.2945 9.47768 20.5707 9.47768H27.6322V1ZM28.6322 1.5V9.97768C28.6322 10.2538 28.4083 10.4777 28.1322 10.4777H21.0707V26.3108H28.1322C28.4083 26.3108 28.6322 26.5347 28.6322 26.8108V35.7885C28.6322 36.0647 28.4083 36.2885 28.1322 36.2885H1.07471V51.5606H28.1322C28.4083 51.5606 28.6322 51.7844 28.6322 52.0606V87.288C28.6322 87.4568 28.547 87.6142 28.4056 87.7066C28.2643 87.7989 28.0859 87.8137 27.9313 87.7459L19.9971 84.2653V97.5101C19.9971 97.7862 19.7733 98.0101 19.4971 98.0101H12.7834L1.07489 108.227V176.5H69.3457V108.227L57.6374 98.0101H49.8945C49.6184 98.0101 49.3945 97.7862 49.3945 97.5101V95.7976L43.262 93.4674C43.0679 93.3936 42.9396 93.2076 42.9396 93V52.0606C42.9396 51.7844 43.1635 51.5606 43.4396 51.5606H70.0012V36.2885H43.4396C43.1635 36.2885 42.9396 36.0647 42.9396 35.7885V26.8108C42.9396 26.5347 43.1635 26.3108 43.4396 26.3108H50.7921V10.4777H43.4396C43.1635 10.4777 42.9396 10.2538 42.9396 9.97768V1.5H28.6322Z" fill="#140E41"/>
<path fill-rule="evenodd" clip-rule="evenodd" d="M20.5 118C20.5 117.724 20.7239 117.5 21 117.5H49C49.2761 117.5 49.5 117.724 49.5 118C49.5 119.423 49.8549 120.387 50.5266 121.008C51.2071 121.636 52.3086 122 54 122C54.2761 122 54.5 122.224 54.5 122.5V136.5C54.5 136.776 54.2761 137 54 137C52.3086 137 51.2071 137.364 50.5266 137.992C49.8549 138.613 49.5 139.577 49.5 141C49.5 141.276 49.2761 141.5 49 141.5H21C20.7239 141.5 20.5 141.276 20.5 141C20.5 139.577 20.1451 138.613 19.4734 137.992C18.7929 137.364 17.6914 137 16 137C15.7239 137 15.5 136.776 15.5 136.5V122.5C15.5 122.224 15.7239 122 16 122C17.6914 122 18.7929 121.636 19.4734 121.008C20.1451 120.387 20.5 119.423 20.5 118ZM21.486 118.5C21.4083 119.85 21.0021 120.957 20.1516 121.742C19.2961 122.532 18.068 122.923 16.5 122.99V136.01C18.068 136.077 19.2961 136.468 20.1516 137.258C21.0021 138.043 21.4083 139.15 21.486 140.5H48.514C48.5917 139.15 48.9979 138.043 49.8484 137.258C50.7039 136.468 51.932 136.077 53.5 136.01V122.99C51.932 122.923 50.7039 122.532 49.8484 121.742C48.9979 120.957 48.5917 119.85 48.514 118.5H21.486Z" fill="#140E41"/>
</svg>
