<svg width="44" height="44" viewBox="0 0 44 44" fill="none" xmlns="http://www.w3.org/2000/svg">
<circle opacity="0.5" cx="22" cy="22" r="21.5" stroke="#ACAAC0"/>
<g clip-path="url(#clip0_1_1136)">
<path d="M34.6675 13.6866C36.3385 14.2244 38.7343 15.6352 37.6573 18.664C37.0538 20.3609 34.8817 24.9675 33.5652 27.7454C31.5612 31.9742 25.0699 46.3017 22.1953 52.9974" stroke="#ACAAC0"/>
<path d="M15.8943 11.4045C15.0004 12.871 4.34673 36.0828 0.642455 43.4796C0.366349 44.8857 12.8554 50.2393 19.1345 52.7403C23.8398 42.6013 32.5907 24.0685 34.4526 20.001C35.5309 17.6452 37.4326 14.6253 34.9741 13.7902C32.5156 12.9552 31.2206 12.5329 27.2377 11.3165C24.1377 10.3697 21.7234 9.54362 19.9431 9.20231C17.6674 8.76602 16.453 10.4879 15.8943 11.4045Z" stroke="#ACAAC0"/>
<path d="M18.9751 29.9135C17.817 28.8179 17.1326 27.451 16.7567 25.6856C16.3617 23.8305 15.6776 20.0452 18.9754 18.9459C20.2164 18.5323 20.4383 19.1613 20.5867 20.0972C20.7568 21.1688 20.68 22.9356 19.3728 22.5669C18.6745 22.8589 19.0022 23.8118 19.6016 25.8081C20.201 27.8045 20.4037 28.0445 21.0059 27.9043C21.0059 27.615 21.6012 27.0964 22.098 27.5202C23.3446 28.5835 24.7284 29.8291 22.9313 30.5624C21.7846 31.0303 20.1479 31.023 18.9751 29.9135Z" fill="#ACAAC0"/>
</g>
<defs>
<clipPath id="clip0_1_1136">
<rect width="44" height="44" rx="22" fill="white"/>
</clipPath>
</defs>
</svg>
