<svg width="212" height="123" viewBox="0 0 212 123" fill="none" xmlns="http://www.w3.org/2000/svg">
<path fill-rule="evenodd" clip-rule="evenodd" d="M114.246 48.5087C116.128 45.9986 117.322 42.4852 117.322 38.5618C117.322 34.6384 116.128 31.125 114.246 28.6149C112.363 26.1051 109.839 24.6462 107.135 24.6462C104.432 24.6462 101.908 26.1051 100.025 28.6149C98.1427 31.125 96.9487 34.6384 96.9487 38.5618C96.9487 42.4852 98.1427 45.9986 100.025 48.5087C101.908 51.0185 104.432 52.4774 107.135 52.4774C109.839 52.4774 112.363 51.0185 114.246 48.5087ZM107.135 53.4774C113.314 53.4774 118.322 46.7994 118.322 38.5618C118.322 30.3242 113.314 23.6462 107.135 23.6462C100.957 23.6462 95.9487 30.3242 95.9487 38.5618C95.9487 46.7994 100.957 53.4774 107.135 53.4774Z" fill="#140E41"/>
<path fill-rule="evenodd" clip-rule="evenodd" d="M42.0011 5.00183C42.0011 4.72569 42.225 4.50183 42.5011 4.50183H54.9308C55.2069 4.50183 55.4308 4.72569 55.4308 5.00183V16.31H68.6034C68.8795 16.31 69.1034 16.5338 69.1034 16.81V19.9908C74.1715 15.3576 86.579 7.60924 117.7 7.60924C150.756 7.60924 166.425 18.2165 172.744 24.5357C172.815 24.6062 172.863 24.6963 172.882 24.7942C174.756 34.4791 175.533 49.5919 174.988 64.527C174.444 79.4522 172.578 94.2813 169.129 103.373C169.056 103.568 168.87 103.696 168.662 103.696H41.8796C41.7244 103.696 41.578 103.624 41.4833 103.501C39.8785 101.415 38.4978 98.361 37.3451 94.8149C36.1897 91.2607 35.2524 87.1766 34.5503 83.0031C33.1475 74.6644 32.6751 65.9139 33.3034 60.2585C33.3316 60.0053 33.5456 59.8137 33.8004 59.8137H42.0011V29.7396H31.3145C31.0383 29.7396 30.8145 29.5158 30.8145 29.2396V16.81C30.8145 16.5338 31.0383 16.31 31.3145 16.31H42.0011V5.00183ZM43.0011 5.50183V16.81C43.0011 17.0861 42.7773 17.31 42.5011 17.31H31.8145V28.7396H42.5011C42.7773 28.7396 43.0011 28.9635 43.0011 29.2396V60.3137C43.0011 60.5899 42.7773 60.8137 42.5011 60.8137H34.2509C33.7077 66.357 34.1793 74.7701 35.5364 82.8372C36.2327 86.976 37.1598 91.0101 38.2961 94.5058C39.3978 97.8949 40.6859 100.745 42.1288 102.696H168.315C171.626 93.7365 173.452 79.2183 173.989 64.4905C174.529 49.6723 173.762 34.7225 171.929 25.135C165.746 19.0094 150.33 8.60924 117.7 8.60924C84.8565 8.60924 73.1897 17.2811 68.9569 21.5139C68.8139 21.6569 68.5989 21.6997 68.412 21.6223C68.2252 21.5449 68.1034 21.3626 68.1034 21.1604V17.31H54.9308C54.6546 17.31 54.4308 17.0861 54.4308 16.81V5.50183H43.0011Z" fill="#140E41"/>
<path fill-rule="evenodd" clip-rule="evenodd" d="M71.3117 69.7803C71.422 69.8238 71.5605 69.9539 71.595 70.018C71.6399 70.1228 71.6378 70.2358 71.5981 70.3337C71.5967 70.3379 71.5949 70.3436 71.5927 70.3508C71.5832 70.3813 71.5688 70.429 71.55 70.4931C71.5127 70.6206 71.4593 70.8076 71.3953 71.0395C71.2673 71.5034 71.0975 72.1444 70.9279 72.8464C70.5846 74.2682 70.2574 75.8823 70.257 76.8023C70.2569 77.0288 70.0733 77.2122 69.8468 77.2122C69.6204 77.2121 69.4369 77.0284 69.437 76.802C69.4374 75.7687 69.7911 74.0607 70.1309 72.654C70.3028 71.9418 70.475 71.292 70.6049 70.8214C70.6698 70.5861 70.7243 70.3949 70.7632 70.2624C70.7825 70.1964 70.7983 70.1437 70.8098 70.1069C70.8153 70.0891 70.8208 70.0719 70.8256 70.0579C70.8275 70.0525 70.8319 70.0397 70.8376 70.0258C70.8377 70.0257 70.8377 70.0256 70.8378 70.0254C70.8395 70.0213 70.849 69.998 70.8645 69.9716C70.8696 69.9633 70.8827 69.9435 70.8909 69.9323C70.9043 69.9155 70.9442 69.8743 70.972 69.8515C71.0277 69.8163 71.1993 69.7699 71.3117 69.7803Z" fill="#140E41"/>
<path fill-rule="evenodd" clip-rule="evenodd" d="M71.9718 70.2057C71.707 70.2352 71.4813 70.2604 71.3676 70.2647C71.1413 70.2734 70.9509 70.097 70.9422 69.8707C70.9335 69.6445 71.1099 69.454 71.3362 69.4453C71.4171 69.4422 71.6008 69.4218 71.8668 69.3923C71.9243 69.3859 71.9858 69.379 72.0508 69.3719C72.4022 69.3331 72.8347 69.2875 73.2614 69.2578C73.6844 69.2284 74.1187 69.2132 74.4693 69.2396C74.6428 69.2526 74.8169 69.2772 74.966 69.3249C75.0944 69.3661 75.3115 69.4573 75.4167 69.6796C75.4424 69.7338 75.4559 69.793 75.4562 69.853C75.4586 70.3305 75.3718 70.8936 75.2607 71.4762C75.2061 71.7621 75.1443 72.0596 75.0819 72.36L75.0765 72.3856C75.012 72.696 74.9469 73.0099 74.8869 73.3249C74.6418 74.6105 74.5055 75.8109 74.7928 76.6726C74.8644 76.8874 74.7483 77.1196 74.5335 77.1912C74.3187 77.2628 74.0865 77.1467 74.0149 76.9319C73.651 75.8403 73.8403 74.4364 74.0814 73.1714C74.1429 72.8487 74.2093 72.5284 74.2737 72.2188L74.2784 72.1961C74.3413 71.8934 74.4019 71.6017 74.4552 71.3225C74.5451 70.8515 74.61 70.4349 74.6299 70.0848C74.5727 70.0738 74.4991 70.0641 74.4078 70.0572C74.1179 70.0354 73.7313 70.0471 73.3183 70.0758C72.909 70.1043 72.4903 70.1484 72.1407 70.1869C72.0832 70.1933 72.0266 70.1996 71.9718 70.2057ZM74.7522 70.1204C74.752 70.1205 74.7496 70.1194 74.7456 70.1169C74.7504 70.119 74.7524 70.1203 74.7522 70.1204Z" fill="#140E41"/>
<path fill-rule="evenodd" clip-rule="evenodd" d="M78.1468 72.2814C78.6058 72.2811 79.0682 72.3729 79.4169 72.488C79.739 72.5942 79.9961 72.7671 80.18 72.9987C80.3631 73.2292 80.4563 73.4961 80.4865 73.7645C80.5455 74.2893 80.3681 74.8437 80.1116 75.2839C79.88 75.6816 79.4916 76.1378 79.018 76.424C78.5357 76.7153 77.9025 76.8588 77.2906 76.4735C76.5064 75.9798 76.4839 75.1406 76.6278 74.47C76.7065 74.1029 76.8458 73.7302 76.9832 73.4055C76.8947 73.3877 76.8115 73.3408 76.7493 73.2661C76.6043 73.0921 76.6278 72.8336 76.8017 72.6886C77.1839 72.3702 77.6984 72.2816 78.1468 72.2814ZM78.015 73.1049C77.9858 73.1707 77.9548 73.2392 77.9228 73.3099C77.742 73.7087 77.5288 74.1793 77.4295 74.642C77.3089 75.2045 77.3922 75.5684 77.7275 75.7796C77.9881 75.9436 78.2732 75.9159 78.594 75.7221C78.9236 75.523 79.2231 75.1801 79.4031 74.8712C79.6035 74.5271 79.7047 74.1506 79.6716 73.8561C79.6557 73.7147 79.6102 73.5998 79.5378 73.5086C79.4662 73.4185 79.351 73.3297 79.16 73.2667C78.8817 73.1749 78.5065 73.1012 78.1473 73.1014C78.1019 73.1014 78.0578 73.1026 78.015 73.1049Z" fill="#140E41"/>
<path fill-rule="evenodd" clip-rule="evenodd" d="M100.313 83.9118C100.771 83.9287 101.23 84.0379 101.574 84.1659C101.892 84.2842 102.142 84.4666 102.317 84.7049C102.492 84.9421 102.575 85.2124 102.595 85.4817C102.634 86.0083 102.436 86.5556 102.163 86.986C101.917 87.3746 101.512 87.816 101.028 88.0841C100.535 88.3572 99.8967 88.4768 99.2997 88.0688C98.5346 87.546 98.5436 86.7066 98.7125 86.0419C98.805 85.6779 98.9582 85.3108 99.1077 84.9914C99.02 84.9704 98.9386 84.9203 98.8791 84.8433C98.7408 84.664 98.774 84.4066 98.9533 84.2682C99.3471 83.9643 99.8646 83.8952 100.313 83.9118ZM100.15 84.7298C100.118 84.7944 100.085 84.8617 100.05 84.9311C99.8546 85.3229 99.6238 85.7852 99.5073 86.2438C99.3656 86.8014 99.4352 87.1682 99.7624 87.3918C100.017 87.5655 100.303 87.5485 100.63 87.3669C100.967 87.1803 101.279 86.8489 101.471 86.5469C101.684 86.2106 101.799 85.8382 101.777 85.5426C101.767 85.4008 101.726 85.2842 101.657 85.1904C101.588 85.0976 101.477 85.0046 101.288 84.9345C101.014 84.8323 100.641 84.7445 100.282 84.7312C100.237 84.7295 100.193 84.7291 100.15 84.7298Z" fill="#140E41"/>
<path fill-rule="evenodd" clip-rule="evenodd" d="M85.7299 74.9111C85.7658 75.2943 85.8122 75.6745 85.8578 76.0478C85.8854 76.2737 85.9126 76.497 85.9371 76.717C85.9621 76.9421 86.1648 77.1042 86.3898 77.0792C86.6149 77.0542 86.7771 76.8515 86.7521 76.6265C86.7254 76.3867 86.6966 76.1508 86.6682 75.9175C86.5834 75.2228 86.5015 74.551 86.487 73.8677C86.4853 73.791 86.4995 73.3921 86.5136 72.9943L86.5144 72.9704C86.5214 72.7739 86.528 72.5853 86.5318 72.4538C86.5336 72.3891 86.5349 72.3338 86.5351 72.2978C86.5351 72.2974 86.5351 72.2968 86.5351 72.2961C86.5352 72.2856 86.5354 72.2521 86.532 72.2216C86.5313 72.2151 86.5299 72.2031 86.5271 72.1884L86.527 72.188C86.5252 72.1787 86.5183 72.1419 86.4992 72.0987C86.4904 72.0787 86.4661 72.0267 86.4152 71.9754C86.3585 71.9181 86.2397 71.8367 86.074 71.8569C85.9292 71.8746 85.8444 71.9605 85.8149 71.9943C85.7808 72.0333 85.7621 72.0699 85.7542 72.0861C85.7377 72.1205 85.7298 72.1495 85.7275 72.158C85.724 72.1707 85.7219 72.1811 85.7207 72.1872C85.7182 72.1994 85.7167 72.2098 85.716 72.2153C85.6089 72.9919 85.3004 73.808 84.9801 74.5787C84.8545 74.8808 84.6684 75.2135 84.4945 75.3589C84.4658 75.3829 84.4462 75.3946 84.4346 75.4001C84.4121 75.3848 84.3562 75.3369 84.2779 75.1999C84.1343 74.9486 84.0397 74.6576 83.957 74.3292C83.9276 74.2128 83.8976 74.0809 83.8665 73.9441C83.8175 73.7288 83.7656 73.5011 83.7093 73.3019C83.708 73.2972 83.705 73.2846 83.7006 73.2661C83.6797 73.1775 83.6265 72.9519 83.5619 72.7807C83.5202 72.67 83.4575 72.5315 83.3619 72.416C83.2646 72.2985 83.0847 72.1515 82.8252 72.1722C82.6801 72.1839 82.5858 72.2624 82.5435 72.3048C82.4981 72.3503 82.4684 72.3982 82.4505 72.4302C82.414 72.4957 82.3865 72.5698 82.3653 72.6347C82.3215 72.7694 82.2791 72.947 82.2388 73.1418C82.1572 73.5353 82.0731 74.0517 81.9961 74.5574C81.951 74.8534 81.907 75.1547 81.8672 75.4271C81.8396 75.6161 81.814 75.7912 81.7915 75.941C81.7634 76.1282 81.7398 76.2775 81.7216 76.3775C81.7165 76.4053 81.7124 76.4264 81.7092 76.4419C81.6237 76.6292 81.6908 76.8548 81.8715 76.9632C81.9697 77.0221 82.0903 77.0387 82.204 77.0039C82.2994 76.9747 82.3585 76.9192 82.3846 76.8914C82.4344 76.8384 82.4584 76.7842 82.4645 76.7704L82.4648 76.7697C82.4819 76.7312 82.4918 76.6939 82.4964 76.6765C82.5076 76.6335 82.5183 76.5795 82.5283 76.5244C82.5491 76.4106 82.5743 76.25 82.6024 76.0628C82.6263 75.9039 82.6521 75.7267 82.6798 75.5375C82.7188 75.2701 82.7613 74.9787 82.8067 74.6809C82.859 74.3379 82.9133 73.9981 82.9669 73.6993C82.9992 73.827 83.0275 73.9524 83.057 74.0836C83.0884 74.2227 83.1212 74.3682 83.1618 74.5295C83.2507 74.8822 83.367 75.2585 83.566 75.6067C83.7313 75.8961 83.9536 76.1355 84.2593 76.205C84.5773 76.2773 84.8438 76.1357 85.0205 75.9879C85.3527 75.7101 85.5979 75.2251 85.7299 74.9111ZM84.4216 75.4046C84.4216 75.4045 84.4229 75.404 84.4254 75.4039C84.4228 75.4047 84.4215 75.4048 84.4216 75.4046Z" fill="#140E41"/>
<path fill-rule="evenodd" clip-rule="evenodd" d="M104.746 74.9111C104.781 75.2943 104.828 75.6745 104.873 76.0478C104.901 76.2737 104.928 76.497 104.953 76.717C104.978 76.9421 105.18 77.1042 105.405 77.0792C105.631 77.0542 105.793 76.8515 105.768 76.6265C105.741 76.3867 105.712 76.1508 105.684 75.9175C105.599 75.2228 105.517 74.551 105.503 73.8677C105.501 73.791 105.515 73.3921 105.529 72.9943L105.53 72.9704C105.537 72.7739 105.544 72.5853 105.547 72.4538C105.549 72.3891 105.551 72.3338 105.551 72.2978C105.551 72.2974 105.551 72.2968 105.551 72.2961C105.551 72.2856 105.551 72.2521 105.548 72.2216C105.547 72.2151 105.546 72.2031 105.543 72.1884L105.543 72.188C105.541 72.1787 105.534 72.1419 105.515 72.0987C105.506 72.0787 105.482 72.0267 105.431 71.9754C105.374 71.9181 105.255 71.8367 105.09 71.8569C104.945 71.8746 104.86 71.9605 104.831 71.9943C104.796 72.0333 104.778 72.0699 104.77 72.0861C104.753 72.1205 104.745 72.1495 104.743 72.158C104.74 72.1707 104.737 72.1811 104.736 72.1872C104.734 72.1994 104.732 72.2098 104.732 72.2153C104.624 72.9919 104.316 73.808 103.996 74.5787C103.87 74.8808 103.684 75.2135 103.51 75.3589C103.481 75.3829 103.462 75.3946 103.45 75.4001C103.428 75.3848 103.372 75.3369 103.294 75.1999C103.15 74.9486 103.055 74.6576 102.973 74.3292C102.943 74.2128 102.913 74.0809 102.882 73.9441C102.833 73.7288 102.781 73.5011 102.725 73.3019C102.724 73.2972 102.721 73.2846 102.716 73.2661C102.695 73.1775 102.642 72.9519 102.578 72.7807C102.536 72.67 102.473 72.5315 102.378 72.416C102.28 72.2985 102.1 72.1515 101.841 72.1722C101.696 72.1839 101.601 72.2624 101.559 72.3048C101.514 72.3503 101.484 72.3982 101.466 72.4302C101.43 72.4957 101.402 72.5698 101.381 72.6347C101.337 72.7694 101.295 72.947 101.254 73.1418C101.173 73.5353 101.089 74.0517 101.012 74.5574C100.967 74.8534 100.923 75.1547 100.883 75.4271C100.855 75.6161 100.83 75.7912 100.807 75.941C100.779 76.1282 100.755 76.2775 100.737 76.3775C100.732 76.4053 100.728 76.4264 100.725 76.4419C100.639 76.6292 100.706 76.8548 100.887 76.9632C100.985 77.0221 101.106 77.0387 101.22 77.0039C101.315 76.9747 101.374 76.9192 101.4 76.8914C101.45 76.8384 101.474 76.7842 101.48 76.7704L101.48 76.7697C101.498 76.7312 101.507 76.6939 101.512 76.6765C101.523 76.6335 101.534 76.5795 101.544 76.5244C101.565 76.4106 101.59 76.25 101.618 76.0628C101.642 75.9039 101.668 75.7267 101.695 75.5375C101.734 75.2701 101.777 74.9787 101.822 74.6809C101.875 74.3379 101.929 73.9981 101.982 73.6993C102.015 73.827 102.043 73.9524 102.073 74.0836C102.104 74.2227 102.137 74.3682 102.177 74.5295C102.266 74.8822 102.383 75.2585 102.582 75.6067C102.747 75.8961 102.969 76.1355 103.275 76.205C103.593 76.2773 103.859 76.1357 104.036 75.9879C104.368 75.7101 104.613 75.2251 104.746 74.9111ZM103.437 75.4046C103.437 75.4045 103.439 75.404 103.441 75.4039C103.438 75.4047 103.437 75.4048 103.437 75.4046Z" fill="#140E41"/>
<path fill-rule="evenodd" clip-rule="evenodd" d="M142.508 74.9111C142.544 75.2943 142.591 75.6745 142.636 76.0478C142.664 76.2737 142.691 76.497 142.715 76.717C142.74 76.9421 142.943 77.1042 143.168 77.0792C143.393 77.0542 143.555 76.8515 143.53 76.6265C143.504 76.3867 143.475 76.1508 143.446 75.9175C143.362 75.2228 143.28 74.551 143.265 73.8677C143.264 73.791 143.278 73.3921 143.292 72.9943L143.293 72.9704C143.3 72.7739 143.306 72.5853 143.31 72.4538C143.312 72.3891 143.313 72.3338 143.313 72.2978C143.313 72.2974 143.313 72.2968 143.313 72.2961C143.313 72.2856 143.314 72.2521 143.31 72.2216C143.31 72.2151 143.308 72.2031 143.305 72.1884L143.305 72.188C143.304 72.1787 143.297 72.1419 143.278 72.0987C143.269 72.0787 143.244 72.0267 143.194 71.9754C143.137 71.9181 143.018 71.8367 142.852 71.8569C142.708 71.8746 142.623 71.9605 142.593 71.9943C142.559 72.0333 142.54 72.0699 142.533 72.0861C142.516 72.1205 142.508 72.1495 142.506 72.158C142.502 72.1707 142.5 72.1811 142.499 72.1872C142.497 72.1994 142.495 72.2098 142.494 72.2153C142.387 72.9919 142.079 73.808 141.758 74.5787C141.633 74.8808 141.447 75.2135 141.273 75.3589C141.244 75.3829 141.225 75.3946 141.213 75.4001C141.19 75.3848 141.134 75.3369 141.056 75.1999C140.913 74.9486 140.818 74.6576 140.735 74.3292C140.706 74.2128 140.676 74.0809 140.645 73.9441C140.596 73.7288 140.544 73.5011 140.488 73.3019C140.486 73.2972 140.483 73.2846 140.479 73.2661C140.458 73.1775 140.405 72.9519 140.34 72.7807C140.298 72.67 140.236 72.5315 140.14 72.416C140.043 72.2985 139.863 72.1515 139.604 72.1722C139.458 72.1839 139.364 72.2624 139.322 72.3048C139.276 72.3503 139.247 72.3982 139.229 72.4302C139.192 72.4957 139.165 72.5698 139.144 72.6347C139.1 72.7694 139.057 72.947 139.017 73.1418C138.936 73.5353 138.851 74.0517 138.774 74.5574C138.729 74.8534 138.685 75.1547 138.646 75.4271C138.618 75.6161 138.592 75.7912 138.57 75.941C138.542 76.1282 138.518 76.2775 138.5 76.3775C138.495 76.4053 138.491 76.4264 138.487 76.4419C138.402 76.6292 138.469 76.8548 138.65 76.9632C138.748 77.0221 138.869 77.0387 138.982 77.0039C139.078 76.9747 139.137 76.9192 139.163 76.8914C139.213 76.8384 139.237 76.7842 139.243 76.7704L139.243 76.7697C139.26 76.7312 139.27 76.6939 139.275 76.6765C139.286 76.6335 139.297 76.5795 139.307 76.5244C139.327 76.4106 139.353 76.25 139.381 76.0628C139.405 75.9039 139.43 75.7267 139.458 75.5375C139.497 75.2701 139.54 74.9787 139.585 74.6809C139.637 74.3379 139.692 73.9981 139.745 73.6993C139.778 73.827 139.806 73.9524 139.835 74.0836C139.867 74.2227 139.899 74.3682 139.94 74.5295C140.029 74.8822 140.145 75.2585 140.344 75.6067C140.51 75.8961 140.732 76.1355 141.038 76.205C141.356 76.2773 141.622 76.1357 141.799 75.9879C142.131 75.7101 142.376 75.2251 142.508 74.9111ZM141.2 75.4046C141.2 75.4045 141.201 75.404 141.204 75.4039C141.201 75.4047 141.2 75.4048 141.2 75.4046Z" fill="#140E41"/>
<path fill-rule="evenodd" clip-rule="evenodd" d="M124.82 87.0273C124.842 87.4117 124.874 87.7933 124.905 88.168C124.924 88.3948 124.943 88.619 124.959 88.8398C124.976 89.0656 125.173 89.2353 125.398 89.2187C125.624 89.2022 125.794 89.0057 125.777 88.7799C125.76 88.5392 125.74 88.3024 125.72 88.0682C125.662 87.3708 125.605 86.6965 125.616 86.0131C125.617 85.9364 125.646 85.5383 125.675 85.1413L125.677 85.1175C125.691 84.9214 125.705 84.7332 125.714 84.6018C125.718 84.5372 125.721 84.4821 125.723 84.4461C125.723 84.4457 125.723 84.4451 125.723 84.4444C125.724 84.434 125.725 84.4004 125.723 84.3699C125.722 84.3633 125.721 84.3513 125.719 84.3365L125.719 84.3361C125.718 84.3268 125.712 84.2897 125.695 84.2458C125.687 84.2255 125.664 84.1726 125.615 84.1194C125.561 84.0601 125.445 83.9742 125.279 83.9882C125.133 84.0005 125.045 84.0831 125.015 84.1158C124.979 84.1535 124.959 84.1893 124.951 84.2053C124.933 84.239 124.924 84.2677 124.921 84.2761C124.917 84.2886 124.915 84.299 124.913 84.305C124.91 84.3171 124.909 84.3274 124.908 84.3329C124.771 85.105 124.432 85.9089 124.083 86.667C123.947 86.9642 123.748 87.2897 123.569 87.4284C123.539 87.4514 123.519 87.4623 123.508 87.4674C123.486 87.4512 123.432 87.4012 123.358 87.2614C123.224 87.0049 123.141 86.7106 123.07 86.3793C123.045 86.2618 123.02 86.1289 122.994 85.991C122.954 85.774 122.91 85.5446 122.862 85.3435C122.86 85.3387 122.858 85.326 122.854 85.3073C122.837 85.218 122.792 84.9905 122.734 84.817C122.696 84.7049 122.639 84.5641 122.548 84.4451C122.455 84.3241 122.281 84.1704 122.02 84.1814C121.875 84.1875 121.778 84.2625 121.734 84.3032C121.687 84.347 121.655 84.3937 121.636 84.4251C121.597 84.4891 121.567 84.5622 121.544 84.6262C121.495 84.7592 121.446 84.9351 121.398 85.1282C121.302 85.5184 121.198 86.0312 121.102 86.5337C121.046 86.8279 120.991 87.1273 120.941 87.3979C120.906 87.5858 120.874 87.7598 120.846 87.9086C120.811 88.0947 120.782 88.243 120.76 88.3422C120.754 88.3698 120.749 88.3908 120.745 88.4061C120.652 88.5901 120.711 88.818 120.888 88.9331C120.983 88.9957 121.103 89.0168 121.218 88.9863C121.315 88.9607 121.376 88.9074 121.403 88.8807C121.455 88.8296 121.481 88.7763 121.487 88.7627L121.488 88.7621C121.506 88.7242 121.518 88.6874 121.523 88.6701C121.536 88.6275 121.548 88.574 121.56 88.5193C121.585 88.4064 121.617 88.2468 121.652 88.0608C121.682 87.9029 121.714 87.7269 121.749 87.5388C121.798 87.2731 121.851 86.9835 121.908 86.6876C121.973 86.3468 122.04 86.0093 122.105 85.7127C122.132 85.8414 122.156 85.9679 122.18 86.1C122.206 86.2402 122.234 86.3868 122.268 86.5496C122.344 86.9054 122.446 87.2858 122.632 87.6412C122.786 87.9367 122.999 88.1842 123.302 88.2651C123.617 88.3493 123.889 88.2178 124.071 88.0768C124.413 87.8116 124.677 87.3361 124.82 87.0273ZM123.494 87.4714C123.494 87.4712 123.496 87.4709 123.498 87.4708C123.496 87.4715 123.494 87.4715 123.494 87.4714Z" fill="#140E41"/>
<path fill-rule="evenodd" clip-rule="evenodd" d="M89.4211 71.5243C89.6468 71.5431 89.8144 71.7412 89.7956 71.9669C89.7883 72.0555 89.7797 72.1583 89.7704 72.2713C89.7262 72.8039 89.6631 73.5646 89.6114 74.1488C89.9787 74.1375 90.4629 74.0622 90.9445 73.9202C91.2761 73.8224 91.5869 73.6984 91.8387 73.5561C91.9127 73.5142 91.979 73.4723 92.0377 73.4307C92.1321 72.9409 92.256 72.432 92.4372 71.9649C92.449 71.9344 92.4726 71.8819 92.518 71.8294C92.5663 71.7736 92.6545 71.7021 92.7854 71.6853C92.9141 71.6689 93.0147 71.7144 93.0714 71.7514C93.126 71.787 93.1613 71.8276 93.1799 71.8511C93.2421 71.9299 93.276 72.0268 93.2888 72.0633C93.308 72.1182 93.3241 72.1755 93.3357 72.2215C93.344 72.2545 93.3593 72.3179 93.3634 72.3691C93.4007 72.8366 93.2435 73.2311 93.0361 73.567L92.8673 73.4628L93.0361 73.567C92.9686 73.6763 92.8853 73.7767 92.7912 73.8688C92.7724 73.9768 92.7545 74.0846 92.7374 74.1918C92.723 74.2819 92.7085 74.3718 92.6941 74.4615C92.5653 75.2611 92.439 76.0453 92.3932 76.8263C92.3799 77.0523 92.1859 77.2248 91.9599 77.2115C91.7338 77.1983 91.5614 77.0043 91.5746 76.7782C91.6205 75.9963 91.7425 75.2133 91.8641 74.4581C91.6437 74.5548 91.4104 74.6377 91.1764 74.7067C90.6136 74.8727 90.001 74.9713 89.5089 74.9701C89.4764 75.1663 89.4342 75.4201 89.3907 75.6783C89.3448 75.9505 89.2975 76.2283 89.2587 76.4492C89.2222 76.6565 89.1883 76.8434 89.171 76.9082C89.1685 76.917 89.1614 76.9392 89.1564 76.9525C89.1465 76.9756 89.1067 77.0432 89.0726 77.0843C88.9677 77.1642 88.6669 77.198 88.5108 77.1161C88.4527 77.056 88.3935 76.953 88.3819 76.9194C88.3691 76.8765 88.3665 76.8399 88.3662 76.8363L88.3662 76.836C88.3653 76.8252 88.365 76.8166 88.3649 76.8126C88.3645 76.7994 88.3649 76.7878 88.365 76.7853L88.365 76.785C88.3653 76.7764 88.3658 76.7667 88.3662 76.7582C88.3672 76.7399 88.3688 76.7142 88.3709 76.6827C88.3751 76.6192 88.3818 76.5284 88.3906 76.4195C88.4083 76.2019 88.4351 75.909 88.4699 75.6152C88.5044 75.3247 88.5482 75.0205 88.6014 74.7862C88.6272 74.6729 88.6603 74.5522 88.7053 74.4533C88.7195 74.4221 88.7407 74.3799 88.7713 74.3364C88.8256 73.7409 88.9018 72.8228 88.953 72.2049C88.9625 72.0915 88.971 71.9882 88.9785 71.8988C88.9973 71.6732 89.1954 71.5055 89.4211 71.5243Z" fill="#140E41"/>
<path fill-rule="evenodd" clip-rule="evenodd" d="M98.4726 71.8222C98.6832 71.9053 98.7866 72.1435 98.7034 72.3541C98.628 72.545 98.5443 72.7905 98.4461 73.0784C98.4066 73.194 98.3648 73.3164 98.3203 73.4449C98.1684 73.8837 97.9899 74.3766 97.7813 74.845C97.574 75.3106 97.3286 75.7711 97.0365 76.1366C96.7479 76.4976 96.3759 76.813 95.9056 76.8963C95.6254 76.9459 95.3575 76.9094 95.1274 76.7659C94.9044 76.6268 94.7622 76.4153 94.6711 76.1986C94.4944 75.7781 94.4624 75.2236 94.4805 74.7043C94.5131 73.7716 94.7196 72.7482 94.808 72.3095C94.8198 72.2513 94.8294 72.2035 94.8363 72.1675C94.8789 71.9451 95.0938 71.7993 95.3162 71.842C95.5385 71.8846 95.6843 72.0994 95.6417 72.3218C95.6337 72.3636 95.623 72.4165 95.6105 72.4791C95.5201 72.929 95.33 73.876 95.3 74.7329C95.2827 75.2296 95.3229 75.633 95.4271 75.8808C95.4764 75.9983 95.5269 76.0486 95.5614 76.0701C95.5887 76.0872 95.643 76.11 95.7625 76.0888C95.9503 76.0556 96.1633 75.9157 96.3959 75.6246C96.625 75.3381 96.837 74.9498 97.0322 74.5114C97.2261 74.076 97.3954 73.6099 97.5455 73.1765C97.5856 73.0608 97.6248 72.946 97.6629 72.8344C97.7641 72.5375 97.8577 72.2632 97.9407 72.053C98.0238 71.8424 98.262 71.7391 98.4726 71.8222Z" fill="#140E41"/>
<path fill-rule="evenodd" clip-rule="evenodd" d="M136.169 71.8222C136.38 71.9053 136.483 72.1435 136.4 72.3541C136.324 72.545 136.241 72.7905 136.142 73.0784C136.103 73.194 136.061 73.3164 136.017 73.4449C135.865 73.8837 135.686 74.3766 135.478 74.845C135.27 75.3106 135.025 75.7711 134.733 76.1366C134.444 76.4976 134.072 76.813 133.602 76.8963C133.322 76.9459 133.054 76.9094 132.824 76.7659C132.601 76.6268 132.459 76.4153 132.367 76.1986C132.191 75.7781 132.159 75.2236 132.177 74.7043C132.209 73.7716 132.416 72.7482 132.504 72.3095C132.516 72.2513 132.526 72.2035 132.533 72.1675C132.575 71.9451 132.79 71.7993 133.012 71.842C133.235 71.8846 133.381 72.0994 133.338 72.3218C133.33 72.3636 133.319 72.4165 133.307 72.4791C133.216 72.929 133.026 73.876 132.996 74.7329C132.979 75.2296 133.019 75.633 133.123 75.8808C133.173 75.9983 133.223 76.0486 133.258 76.0701C133.285 76.0872 133.339 76.11 133.459 76.0888C133.647 76.0556 133.86 75.9157 134.092 75.6246C134.321 75.3381 134.533 74.9498 134.728 74.5114C134.922 74.076 135.092 73.6099 135.242 73.1765C135.282 73.0608 135.321 72.946 135.359 72.8344C135.46 72.5375 135.554 72.2632 135.637 72.053C135.72 71.8424 135.958 71.7391 136.169 71.8222Z" fill="#140E41"/>
<path fill-rule="evenodd" clip-rule="evenodd" d="M118.601 83.7023C118.808 83.7933 118.903 84.0352 118.812 84.2425C118.729 84.4305 118.636 84.6727 118.527 84.9567C118.484 85.0707 118.437 85.1915 118.388 85.3182C118.22 85.751 118.023 86.2368 117.797 86.6971C117.572 87.1545 117.31 87.6056 117.004 87.9598C116.702 88.3097 116.318 88.6109 115.845 88.6765C115.563 88.7155 115.297 88.669 115.073 88.5169C114.855 88.3696 114.721 88.1529 114.638 87.9329C114.477 87.5061 114.466 86.9508 114.504 86.4325C114.571 85.5017 114.816 84.4868 114.921 84.0517C114.935 83.9941 114.946 83.9466 114.954 83.9109C115.005 83.6902 115.225 83.5527 115.446 83.6036C115.667 83.6545 115.804 83.8747 115.753 84.0953C115.744 84.1368 115.731 84.1893 115.716 84.2513C115.609 84.6976 115.383 85.6367 115.321 86.4919C115.285 86.9876 115.31 87.3922 115.405 87.6438C115.45 87.763 115.499 87.8152 115.532 87.838C115.559 87.856 115.612 87.8809 115.733 87.8642C115.922 87.838 116.14 87.7063 116.383 87.4241C116.623 87.1464 116.849 86.7663 117.061 86.3356C117.271 85.9077 117.457 85.4484 117.624 85.0209C117.668 84.9067 117.712 84.7935 117.754 84.6834C117.866 84.3905 117.97 84.1199 118.061 83.913C118.152 83.7057 118.394 83.6114 118.601 83.7023Z" fill="#140E41"/>
<path fill-rule="evenodd" clip-rule="evenodd" d="M98.4563 71.817C98.6698 71.8922 98.782 72.1263 98.7068 72.3399C98.4002 73.2103 98.2941 74.1137 98.399 74.8786C98.5045 75.647 98.8137 76.2282 99.2895 76.5429C99.4783 76.6679 99.5301 76.9222 99.4052 77.1111C99.2802 77.2999 99.0259 77.3518 98.837 77.2268C98.0987 76.7384 97.7116 75.9006 97.5867 74.9901C97.4612 74.0761 97.5906 73.0405 97.9333 72.0675C98.0086 71.8539 98.2427 71.7417 98.4563 71.817Z" fill="#140E41"/>
<path fill-rule="evenodd" clip-rule="evenodd" d="M136.153 71.8171C136.366 71.8923 136.478 72.1265 136.403 72.34C136.096 73.2104 135.99 74.1138 136.095 74.8787C136.201 75.6471 136.51 76.2283 136.986 76.5431C137.175 76.668 137.226 76.9224 137.101 77.1112C136.977 77.3001 136.722 77.3519 136.533 77.2269C135.795 76.7385 135.408 75.9008 135.283 74.9902C135.158 74.0762 135.287 73.0406 135.63 72.0676C135.705 71.854 135.939 71.7419 136.153 71.8171Z" fill="#140E41"/>
<path fill-rule="evenodd" clip-rule="evenodd" d="M118.585 83.6968C118.796 83.78 118.899 84.0182 118.816 84.2288C118.477 85.087 118.337 85.9858 118.413 86.7541C118.49 87.526 118.777 88.1183 119.24 88.4507C119.425 88.5827 119.467 88.8388 119.335 89.0228C119.203 89.2068 118.947 89.2491 118.763 89.1171C118.043 88.6013 117.688 87.7496 117.597 86.8351C117.506 85.917 117.674 84.887 118.053 83.9275C118.137 83.7169 118.375 83.6136 118.585 83.6968Z" fill="#140E41"/>
<path fill-rule="evenodd" clip-rule="evenodd" d="M108.261 76.3922C108.487 76.3922 108.671 76.5758 108.671 76.8022H108.261C108.671 76.8022 108.671 76.8021 108.671 76.8022L108.671 76.8033L108.671 76.8048L108.671 76.8092L108.671 76.8237C108.67 76.8358 108.67 76.8525 108.669 76.8736C108.668 76.9156 108.665 76.9748 108.659 77.0473C108.648 77.1917 108.626 77.3917 108.581 77.6151C108.495 78.0461 108.312 78.6327 107.9 79.0454C107.74 79.2055 107.48 79.2055 107.32 79.0454C107.16 78.8852 107.16 78.6256 107.32 78.4655C107.558 78.2271 107.701 77.8371 107.777 77.4543C107.814 77.2707 107.833 77.1045 107.842 76.9844C107.846 76.9246 107.849 76.877 107.85 76.8453C107.85 76.8295 107.851 76.8176 107.851 76.8103L107.851 76.8027C107.851 76.8026 107.851 76.8027 107.851 76.8027M108.261 76.3922C108.034 76.3922 107.851 76.5763 107.851 76.8027L108.261 76.3922Z" fill="#140E41"/>
<path fill-rule="evenodd" clip-rule="evenodd" d="M116.897 71.2215C117.103 71.3166 117.192 71.5603 117.097 71.7658C116.951 72.0802 116.758 72.408 116.548 72.7504C116.488 72.8477 116.427 72.9462 116.365 73.0467C116.204 73.306 116.035 73.5782 115.861 73.8756C115.383 74.6935 114.883 75.6739 114.514 76.9189C114.449 77.136 114.221 77.2597 114.004 77.1952C113.787 77.1308 113.663 76.9026 113.728 76.6855C114.122 75.3566 114.655 74.314 115.153 73.4618C115.333 73.1545 115.51 72.8684 115.673 72.6063C115.734 72.5079 115.793 72.413 115.849 72.3216C116.058 71.9806 116.229 71.6883 116.353 71.4213C116.448 71.2158 116.692 71.1264 116.897 71.2215Z" fill="#140E41"/>
<path fill-rule="evenodd" clip-rule="evenodd" d="M116.65 71.1904C116.872 71.1492 117.086 71.2964 117.127 71.5191C117.26 72.2368 117.482 72.9536 117.713 73.6991C117.751 73.8223 117.789 73.9463 117.827 74.0712C118.093 74.9389 118.351 75.844 118.435 76.765C118.455 76.9905 118.289 77.19 118.063 77.2105C117.838 77.231 117.638 77.0648 117.618 76.8393C117.543 76.0111 117.309 75.1779 117.043 74.3115C117.007 74.1913 116.969 74.0703 116.931 73.9486C116.701 73.2061 116.463 72.4373 116.321 71.668C116.28 71.4453 116.427 71.2315 116.65 71.1904Z" fill="#140E41"/>
<path fill-rule="evenodd" clip-rule="evenodd" d="M125.078 72.2917C125.471 72.7885 125.599 73.5156 125.599 74.1982C125.599 74.962 125.228 75.8678 124.687 76.4998C124.151 77.1248 123.306 77.6216 122.401 77.1695C121.943 76.9405 121.696 76.5325 121.571 76.1124C121.448 75.6976 121.434 75.2387 121.46 74.8319C121.466 74.7361 121.475 74.6418 121.485 74.5499C121.412 74.5609 121.341 74.5682 121.274 74.5738C121.198 74.5801 121.121 74.5846 121.05 74.5888L121.037 74.5895C120.963 74.5939 120.894 74.598 120.829 74.6038C120.822 74.6065 120.773 74.6285 120.697 74.7562C120.694 74.7608 120.691 74.7655 120.688 74.7703C120.674 74.9008 120.66 75.0298 120.646 75.1558C120.59 75.6625 120.533 76.1267 120.486 76.4484C120.463 76.6059 120.44 76.7422 120.419 76.8336C120.413 76.8573 120.407 76.8835 120.399 76.9091C120.393 76.9272 120.378 76.9749 120.348 77.0241C120.336 77.0445 120.296 77.1077 120.22 77.1588C120.118 77.2265 119.953 77.2663 119.791 77.178C119.676 77.1148 119.627 77.0175 119.615 76.9913C119.596 76.9528 119.587 76.919 119.582 76.9008C119.531 76.6925 119.521 76.4112 119.536 76.1299C119.551 75.8398 119.594 75.5144 119.666 75.2047C119.72 74.9756 119.792 74.7418 119.889 74.533C119.98 73.6647 120.064 72.7618 120.097 72.2644C120.112 72.0385 120.308 71.8676 120.534 71.8828C120.76 71.898 120.93 72.0934 120.915 72.3194C120.892 72.6676 120.845 73.2024 120.789 73.7843C120.857 73.7787 120.926 73.7747 120.989 73.7709L120.999 73.7704C121.072 73.7661 121.14 73.7621 121.206 73.7566C121.346 73.7449 121.451 73.7281 121.531 73.7011C121.591 73.6807 121.625 73.6586 121.646 73.6377C121.667 73.5525 121.686 73.4807 121.701 73.4253C121.711 73.3881 121.72 73.3573 121.728 73.3342C121.713 73.2616 121.717 73.1841 121.745 73.1095C121.861 72.7966 122.03 72.5354 122.267 72.3231C122.501 72.1134 122.783 71.9668 123.103 71.857C123.516 71.7148 123.9 71.6772 124.245 71.757C124.596 71.8382 124.873 72.0329 125.078 72.2917ZM122.53 73.352C122.603 73.1714 122.697 73.0391 122.815 72.9336C122.944 72.8175 123.12 72.7181 123.369 72.6324C123.681 72.5253 123.904 72.5198 124.06 72.556C124.211 72.5909 124.333 72.6716 124.435 72.8006C124.656 73.0796 124.779 73.5785 124.779 74.1982C124.779 74.7368 124.499 75.4588 124.064 75.9662C123.623 76.4807 123.166 76.635 122.768 76.436C122.575 76.3395 122.44 76.1585 122.358 75.8794C122.273 75.595 122.255 75.2443 122.279 74.8844C122.301 74.5356 122.36 74.202 122.415 73.9526C122.488 73.8036 122.528 73.6346 122.539 73.4504C122.539 73.4402 122.539 73.415 122.538 73.3999C122.537 73.3898 122.534 73.3722 122.53 73.352Z" fill="#140E41"/>
<path fill-rule="evenodd" clip-rule="evenodd" d="M132.072 70.2834C132.076 70.5098 131.896 70.697 131.67 70.7014C130.543 70.7235 129.523 70.8304 128.447 71.1119C128.382 71.1289 128.29 71.1467 128.203 71.1633C128.171 71.1695 128.14 71.1754 128.111 71.1812C127.988 71.2057 127.866 71.2334 127.758 71.2689C127.656 71.3025 127.591 71.3354 127.555 71.3608C127.573 71.4374 127.644 71.5662 127.82 71.7476C127.954 71.8859 128.094 72.0031 128.23 72.1165C128.293 72.1692 128.356 72.2211 128.416 72.2739C128.526 72.3708 128.641 72.469 128.76 72.5695C129.286 73.0169 129.869 73.5117 130.283 74.1499C130.475 74.4457 130.659 74.8314 130.71 75.2378C130.763 75.6575 130.674 76.12 130.292 76.4853C129.659 77.0894 128.664 77.2685 127.866 76.9908C127.37 76.8182 127.1 76.4526 127.001 76.0378C126.909 75.6481 126.968 75.2291 127.073 74.8806C127.218 74.3967 127.471 74.0666 127.83 73.8519C128.081 73.7023 128.366 73.6202 128.655 73.5627C128.529 73.4517 128.399 73.3406 128.265 73.2268C128.138 73.1179 128.007 73.0064 127.874 72.8898C127.84 72.86 127.795 72.8225 127.744 72.7791C127.598 72.6572 127.397 72.4892 127.231 72.3182C127.016 72.0959 126.736 71.7511 126.731 71.3365C126.728 71.0631 126.869 70.8628 127.025 70.7345C127.172 70.6141 127.351 70.5395 127.502 70.4898C127.658 70.4385 127.819 70.4033 127.95 70.3771C128.002 70.3668 128.046 70.3583 128.084 70.3511C128.153 70.3378 128.202 70.3284 128.24 70.3186C129.395 70.0165 130.482 69.9045 131.654 69.8816C131.88 69.8771 132.067 70.057 132.072 70.2834ZM129.302 74.2052C129.242 74.2649 129.164 74.3071 129.075 74.3213C128.691 74.3823 128.436 74.4449 128.25 74.5559C128.089 74.6523 127.952 74.8024 127.858 75.1163C127.776 75.3905 127.753 75.6522 127.799 75.8484C127.84 76.0196 127.931 76.1451 128.135 76.2163C128.663 76.3997 129.329 76.27 129.725 75.8922C129.876 75.7481 129.925 75.5685 129.896 75.3404C129.866 75.0991 129.748 74.8317 129.595 74.5966C129.506 74.4583 129.407 74.3289 129.302 74.2052Z" fill="#140E41"/>
<path fill-rule="evenodd" clip-rule="evenodd" d="M145.66 76.468C145.844 76.5991 145.888 76.8551 145.757 77.0397C145.307 77.6727 144.856 78.3044 144.403 78.935C144.271 79.1189 144.015 79.161 143.831 79.0289C143.647 78.8969 143.605 78.6407 143.737 78.4567C144.189 77.8271 144.639 77.1966 145.088 76.5648C145.219 76.3802 145.475 76.3369 145.66 76.468Z" fill="#140E41"/>
<path fill-rule="evenodd" clip-rule="evenodd" d="M89.5445 83.2151C90.0259 83.1849 90.5075 83.3361 90.9229 83.7168C91.0898 83.8699 91.101 84.1292 90.948 84.2961C90.795 84.463 90.5356 84.4743 90.3687 84.3213C90.1196 84.0928 89.8572 84.0171 89.5957 84.0334C89.3226 84.0506 89.0252 84.171 88.7399 84.3803C88.1533 84.8106 87.7466 85.5153 87.7368 86.0613C87.7221 86.8878 88.1773 87.5686 88.9464 87.7719C89.1522 87.8263 89.4266 87.7997 89.7328 87.6957C90.0333 87.5937 90.3225 87.4313 90.5345 87.2707C90.7151 87.134 90.9722 87.1695 91.1089 87.35C91.2456 87.5305 91.2101 87.7876 91.0296 87.9244C90.7532 88.1337 90.3867 88.3398 89.9964 88.4722C89.6118 88.6028 89.1602 88.6766 88.7369 88.5647C87.5489 88.2507 86.8965 87.1921 86.917 86.0467C86.9324 85.1796 87.5207 84.2576 88.255 83.7191C88.6301 83.4439 89.0747 83.2445 89.5445 83.2151Z" fill="#140E41"/>
<path fill-rule="evenodd" clip-rule="evenodd" d="M94.0361 83.0322C94.2563 83.0849 94.3921 83.3061 94.3394 83.5264C94.0648 84.6736 94.0561 85.9506 94.1208 86.9444C94.1529 87.4384 94.2027 87.8557 94.2444 88.1429C94.2652 88.2866 94.2838 88.3962 94.2968 88.4653C94.3004 88.4843 94.3033 88.4991 94.3055 88.5099C94.3213 88.5562 94.329 88.606 94.3271 88.6577C94.3271 88.6579 94.3271 88.6582 94.3271 88.6586C94.3268 88.667 94.3253 88.713 94.3082 88.767L94.3082 88.7671C94.3017 88.7878 94.2736 88.877 94.1869 88.9527C94.1425 88.9865 94.0333 89.0372 93.9696 89.0507C93.9066 89.0539 93.7938 89.0351 93.7457 89.0166C93.6512 88.9732 93.6009 88.9062 93.5885 88.8897C93.5691 88.8638 93.557 88.8412 93.5513 88.83C93.5394 88.8068 93.5323 88.7874 93.5297 88.7801C93.5201 88.7534 93.514 88.7275 93.512 88.719L93.5118 88.7183C93.5056 88.6919 93.4984 88.6567 93.4909 88.6167C93.4754 88.5344 93.455 88.4134 93.4329 88.2606C93.3885 87.9547 93.3362 87.5157 93.3025 86.9976C93.2354 85.9672 93.2399 84.5971 93.5419 83.3355C93.5946 83.1153 93.8159 82.9795 94.0361 83.0322ZM93.5092 88.6039C93.508 88.6156 93.5078 88.6235 93.5077 88.6262C93.5077 88.6265 93.5077 88.6268 93.5077 88.6269C93.508 88.6192 93.5085 88.6115 93.5092 88.6039Z" fill="#140E41"/>
<path fill-rule="evenodd" clip-rule="evenodd" d="M97.1648 83.8202C97.3138 83.9906 97.2965 84.2496 97.1261 84.3987C96.9719 84.5336 96.7256 84.7425 96.4516 84.975C96.2064 85.183 95.939 85.4099 95.6955 85.6194C95.4758 85.8084 95.274 85.9846 95.1174 86.1265C95.3967 86.382 95.6278 86.6934 95.8268 86.9616C95.8501 86.993 95.8729 87.0237 95.8953 87.0537C96.2334 87.5065 96.4902 87.8095 96.7878 87.9213C96.9998 88.001 97.1071 88.2374 97.0275 88.4493C96.9479 88.6613 96.7115 88.7686 96.4995 88.689C95.9379 88.478 95.5451 87.9552 95.2382 87.5443C95.2275 87.5298 95.2167 87.5155 95.2061 87.5012C94.878 87.0615 94.6196 86.7154 94.3024 86.5366C94.206 86.4823 94.1357 86.3921 94.1062 86.2862C94.0807 86.1947 94.0926 86.1179 94.1018 86.0784C94.1191 86.0031 94.1536 85.949 94.1646 85.9319C94.1936 85.8869 94.2294 85.8463 94.2541 85.8194C94.3095 85.7591 94.3872 85.6841 94.4741 85.6037C94.6507 85.4401 94.8975 85.2243 95.1607 84.9978C95.4164 84.7779 95.686 84.5492 95.9298 84.3423C96.1967 84.1159 96.4329 83.9156 96.5862 83.7815C96.7567 83.6324 97.0157 83.6498 97.1648 83.8202Z" fill="#140E41"/>
<path fill-rule="evenodd" clip-rule="evenodd" d="M104.258 83.5244C104.484 83.5372 104.657 83.7308 104.644 83.9569C104.59 84.9162 104.562 85.8644 104.566 86.8226C104.569 87.467 104.516 88.1112 104.339 88.7591C104.088 89.678 103.67 90.5317 103.274 91.3423C103.225 91.4412 103.177 91.5396 103.13 91.6373C103.031 91.841 102.786 91.9259 102.582 91.827C102.378 91.7281 102.293 91.4828 102.392 91.2791C102.44 91.1799 102.488 91.0815 102.536 90.9835C102.937 90.1637 103.319 89.3824 103.548 88.5433C103.699 87.9889 103.749 87.4234 103.746 86.8262C103.742 85.8495 103.77 84.8846 103.825 83.9107C103.838 83.6846 104.032 83.5117 104.258 83.5244Z" fill="#140E41"/>
<path fill-rule="evenodd" clip-rule="evenodd" d="M106.086 84.733C105.478 84.6455 104.906 84.8734 104.661 85.3201C104.552 85.5187 104.303 85.5915 104.104 85.4827C103.906 85.3739 103.833 85.1247 103.942 84.9261C104.399 84.0922 105.367 83.801 106.203 83.9214C107.05 84.0435 107.9 84.6073 108.095 85.6356C108.341 86.9342 107.618 87.9087 106.737 88.4429C106.296 88.7101 105.799 88.8801 105.325 88.9385C104.857 88.9962 104.372 88.9493 103.982 88.7357C103.784 88.6269 103.711 88.3777 103.82 88.1791C103.928 87.9806 104.178 87.9078 104.376 88.0166C104.566 88.1206 104.861 88.1694 105.225 88.1247C105.582 88.0806 105.968 87.9499 106.312 87.7416C106.999 87.325 107.453 86.6499 107.289 85.7885C107.176 85.1897 106.681 84.8188 106.086 84.733Z" fill="#140E41"/>
<path fill-rule="evenodd" clip-rule="evenodd" d="M114.088 82.2126C114.09 82.4391 113.909 82.6249 113.683 82.6277C112.722 82.6396 111.708 82.7245 110.824 82.9892C110.653 83.0406 110.398 83.1218 110.197 83.2369C110.097 83.2945 110.036 83.3463 110.006 83.3849C109.995 83.3982 109.991 83.4066 109.989 83.4101C110.004 83.5154 110.115 83.6753 110.397 83.8756C110.586 84.0094 110.779 84.1149 110.96 84.2135C111.04 84.2574 111.118 84.3 111.192 84.3431C111.31 84.4118 111.443 84.4807 111.593 84.5589C111.644 84.5852 111.697 84.6126 111.752 84.6414C111.962 84.7518 112.193 84.8775 112.412 85.0227C112.838 85.3052 113.295 85.711 113.42 86.315C113.616 87.2652 112.943 88.1093 112.209 88.514C111.467 88.9235 110.396 89.0207 109.753 88.1421C109.322 87.5546 109.202 86.7549 109.305 86.0908C109.407 85.4263 109.928 85.0736 110.287 84.8407C110.304 84.8299 110.322 84.8188 110.34 84.8074C110.203 84.7285 110.056 84.639 109.923 84.5442C109.624 84.3322 109.236 83.9918 109.176 83.5107C109.11 82.9875 109.534 82.6723 109.789 82.5258C110.081 82.3583 110.419 82.2546 110.589 82.2036C111.58 81.907 112.682 81.82 113.673 81.8078C113.899 81.8049 114.085 81.9862 114.088 82.2126ZM111.632 85.5088C111.598 85.543 111.556 85.5716 111.509 85.5922C111.312 85.6776 111.085 85.597 110.985 85.4123C110.96 85.4177 110.927 85.4279 110.887 85.4452C110.835 85.4678 110.781 85.4976 110.733 85.5289C110.353 85.7748 110.156 85.9518 110.115 86.2159C110.038 86.7173 110.14 87.284 110.414 87.6576C110.708 88.0592 111.25 88.1068 111.813 87.796C112.385 87.4804 112.71 86.9335 112.617 86.4809C112.56 86.2046 112.336 85.956 111.959 85.7061C111.855 85.6373 111.746 85.5721 111.632 85.5088Z" fill="#140E41"/>
<path fill-rule="evenodd" clip-rule="evenodd" d="M32.0566 103.196C32.0566 102.92 32.2805 102.696 32.5566 102.696H176.74C177.017 102.696 177.24 102.92 177.24 103.196V121.84C177.24 122.116 177.017 122.34 176.74 122.34H32.5566C32.2805 122.34 32.0566 122.116 32.0566 121.84V103.196ZM33.0566 103.696V121.34H176.24V103.696H33.0566Z" fill="#140E41"/>
<path fill-rule="evenodd" clip-rule="evenodd" d="M44.0923 2.67555C43.3987 2.79007 42.7237 2.90151 42.0709 2.99475C41.4255 3.08693 40.9473 3.53882 40.5385 4.35753C40.1259 5.18373 39.8428 6.26751 39.5387 7.43921L39.5329 7.46145C39.2379 8.59817 38.9227 9.81251 38.4407 10.8046C37.9535 11.8077 37.2509 12.6773 36.1316 12.9822C35.4532 13.167 34.8567 13.3165 34.3181 13.4515C33.7285 13.5992 33.2083 13.7296 32.7257 13.8699C31.8251 14.1317 31.2047 14.3906 30.7557 14.7606C29.8948 15.4702 29.5002 16.7316 29.5002 20.0013C29.5002 22.0398 28.7457 31.8196 26.9939 42.7058C26.1172 48.1536 24.9889 53.891 23.5765 59.0856C22.1662 64.2722 20.4638 68.952 18.4261 72.2634C14.4409 78.7393 9.95069 87.5937 6.5812 95.0815C4.89662 98.825 3.49634 102.218 2.58074 104.794C2.12238 106.083 1.78964 107.157 1.6025 107.962C1.5087 108.366 1.45476 108.688 1.43715 108.93C1.41968 109.169 1.44384 109.263 1.44718 109.276C1.44755 109.278 1.44767 109.278 1.44746 109.278C1.48303 109.349 1.60767 109.478 1.96075 109.592C2.29957 109.7 2.76882 109.768 3.34908 109.783C4.50555 109.813 6.00815 109.633 7.57323 109.265C9.13633 108.897 10.7371 108.347 12.092 107.65C13.4578 106.948 14.521 106.125 15.0762 105.236C17.6564 101.108 22.7953 97.5167 28.9587 97.003C29.2556 96.9783 29.559 96.9536 29.8678 96.9285C32.6993 96.698 35.9756 96.4313 38.6938 95.7657C40.2006 95.3966 41.4934 94.9143 42.4294 94.2758C43.3556 93.644 43.899 92.8852 44.0033 91.9461C44.0281 91.7231 44.0162 91.3667 43.9579 90.8641C43.9005 90.3696 43.8018 89.7625 43.6672 89.0514C43.3979 87.6292 42.9899 85.8182 42.4977 83.7087C42.2959 82.8438 42.0801 81.9295 41.8542 80.9726C40.9801 77.269 39.9556 72.9285 39.0106 68.3524C37.8213 62.5938 36.7544 56.4469 36.2677 50.6998C35.7816 44.9615 35.8697 39.5796 37.0179 35.3698L37.9826 35.6329C36.8808 39.6731 36.7814 44.9162 37.2641 50.6154C37.7461 56.3058 38.8042 62.4089 39.9899 68.1502C40.9318 72.7109 41.952 77.0336 42.826 80.7362C42.9365 81.2047 43.0447 81.6632 43.1501 82.111C43.2912 82.1615 43.4501 82.2247 43.6213 82.2958C43.9372 82.4268 44.3254 82.5976 44.7734 82.7958C44.8432 82.8266 44.9145 82.8582 44.9874 82.8905C45.8529 83.2736 46.9324 83.7516 48.1839 84.2654C50.8981 85.3798 54.4091 86.658 58.2418 87.4834C65.9249 89.1381 74.7693 88.9504 81.1355 82.1598C83.4745 79.6648 87.304 78.4277 91.9063 77.9326C96.5247 77.4358 102.021 77.6767 107.799 78.2291C112.486 78.6771 117.379 79.3326 122.16 79.9729C123.275 80.1222 124.384 80.2708 125.483 80.4156C131.289 81.1812 136.808 81.8447 141.487 82.001C147.352 81.4862 151.14 79.7368 154.415 77.9814C154.862 77.7418 155.302 77.5008 155.737 77.2619C158.488 75.7535 161.08 74.3319 164.437 73.9034C165.944 73.711 167.659 73.6124 169.601 74.012C171.742 74.4525 173.297 74.9311 174.368 75.4528C175.423 75.9668 176.108 76.5721 176.324 77.323C176.547 78.0944 176.222 78.8271 175.73 79.4569C175.235 80.0923 174.495 80.7223 173.675 81.3374C172.976 81.8617 172.192 82.3945 171.411 82.9247C171.271 83.0196 171.132 83.1145 170.993 83.2092C170.07 83.8375 169.173 84.4615 168.41 85.0832C167.642 85.7093 167.046 86.3056 166.7 86.8691C166.364 87.415 166.294 87.8751 166.459 88.3022C168.933 93.4911 172.498 98.761 179.173 102.523C185.826 106.271 195.625 108.554 210.627 107.684C210.597 107.492 210.517 107.203 210.369 106.806C210.022 105.87 209.371 104.508 208.483 102.818C206.71 99.4443 204.031 94.8372 201.07 89.8755C198.878 86.2027 196.531 82.3351 194.287 78.6365C190.477 72.3585 186.963 66.5673 185.005 63.0424C183.401 60.1555 182.647 56.309 182.052 52.0796C181.877 50.8309 181.715 49.5479 181.55 48.2406C181.152 45.0853 180.736 41.7888 180.066 38.4919C178.177 29.2003 174.303 20.1067 163.288 14.9529C141.741 4.871 114.304 4.45951 94.5763 7.4942C91.4663 7.97259 87.3443 9.09932 83.1747 10.2978C82.3898 10.5235 81.6032 10.7516 80.822 10.9782C77.4705 11.9504 74.2169 12.8941 71.6113 13.4875C68.1708 14.2711 64.9796 14.4997 62.6236 14.1524C61.4488 13.9792 60.4396 13.6569 59.711 13.1523C58.965 12.6356 58.5002 11.9135 58.5002 11C58.5002 7.93945 57.857 5.90662 56.8573 4.56687C55.864 3.23558 54.4723 2.52685 52.8409 2.20479C51.1987 1.88061 49.3382 1.95391 47.4571 2.17505C46.2992 2.31117 45.1732 2.49709 44.0923 2.67555ZM165.94 86.2014C166.379 85.5446 167.038 84.9117 167.778 84.3081C168.578 83.6561 169.508 83.0104 170.43 82.3827C170.571 82.2862 170.713 82.1901 170.854 82.0945C171.635 81.5637 172.397 81.0463 173.075 80.5374C173.88 79.9338 174.531 79.3685 174.942 78.8419C175.357 78.3098 175.454 77.9138 175.364 77.5996C175.267 77.2648 174.906 76.8276 173.93 76.3518C172.969 75.8837 171.508 75.4254 169.399 74.9915C167.865 74.6758 166.477 74.6944 165.197 74.8227C165.377 75.4403 165.472 76.203 165.529 77.0183C165.601 78.0486 165.616 79.2389 165.632 80.46C165.634 80.6083 165.636 80.7571 165.638 80.9061C165.656 82.2905 165.685 83.7013 165.8 84.9971C165.837 85.4158 165.883 85.8186 165.94 86.2014ZM164.189 74.9479C161.214 75.404 158.883 76.6805 156.236 78.1297C155.797 78.3703 155.349 78.6157 154.888 78.8629C151.543 80.655 147.613 82.4721 141.544 82.9999C141.524 83.0016 141.504 83.0021 141.484 83.0015C136.743 82.8452 131.167 82.1739 125.352 81.4071C124.248 81.2615 123.136 81.1126 122.019 80.9629C117.24 80.3228 112.37 79.6706 107.704 79.2245C101.945 78.674 96.5295 78.4411 92.0133 78.9269C87.4811 79.4144 83.9533 80.6162 81.865 82.8437C75.1377 90.0195 65.8392 90.1425 58.0312 88.461C54.1184 87.6183 50.5468 86.3166 47.8041 85.1905C46.5394 84.6712 45.4484 84.1882 44.5833 83.8052C44.5102 83.7728 44.4387 83.7412 44.3688 83.7103C44.0091 83.5511 43.6955 83.4131 43.4291 83.2998C43.4433 83.3606 43.4575 83.4211 43.4715 83.4815C43.9637 85.5907 44.3761 87.4203 44.6497 88.8653C44.7865 89.5878 44.89 90.2209 44.9513 90.7489C45.0116 91.2688 45.0349 91.7171 44.9972 92.0565C44.8515 93.3674 44.0824 94.3587 42.993 95.1019C41.9133 95.8383 40.4874 96.356 38.9317 96.737C36.1304 97.423 32.7707 97.696 29.9532 97.9249C29.6423 97.9502 29.338 97.9749 29.0418 97.9996C23.2052 98.486 18.3441 101.895 15.9242 105.766C15.2295 106.878 13.9802 107.804 12.5491 108.54C11.1072 109.281 9.42666 109.856 7.80227 110.238C6.17983 110.62 4.58869 110.815 3.32328 110.782C2.69261 110.766 2.11888 110.693 1.65497 110.544C1.20532 110.399 0.767455 110.154 0.553029 109.725C0.425894 109.471 0.418639 109.147 0.439799 108.857C0.462715 108.543 0.528898 108.164 0.628455 107.736C0.828031 106.877 1.17498 105.763 1.63849 104.459C2.56665 101.847 3.97886 98.4276 5.66928 94.6711C9.04979 87.1589 13.5596 78.2633 17.5744 71.7393C19.5367 68.5506 21.2093 63.9804 22.6115 58.8233C24.0116 53.6742 25.1333 47.974 26.0066 42.5469C27.7548 31.6831 28.5002 21.9629 28.5002 20.0013C28.5002 16.7711 28.8557 15.0307 30.1197 13.9889C30.7333 13.4833 31.5191 13.1792 32.4466 12.9096C32.9264 12.7702 33.4861 12.6295 34.1043 12.474C34.6516 12.3364 35.2447 12.1873 35.8689 12.0173C36.5858 11.822 37.1104 11.2546 37.5413 10.3677C37.9743 9.47618 38.2673 8.35688 38.5707 7.18798L38.5817 7.14567C38.8743 6.01813 39.1803 4.83888 39.6438 3.91076C40.1169 2.96352 40.8114 2.1645 41.9296 2.0048C42.5354 1.91826 43.1935 1.80985 43.8816 1.6965C44.9878 1.51429 46.1714 1.31931 47.3403 1.18189C49.2561 0.956669 51.2392 0.869302 53.0346 1.22372C54.8407 1.58026 56.4803 2.38941 57.6588 3.96884C58.831 5.53981 59.5002 7.81055 59.5002 11C59.5002 11.5213 59.7467 11.9606 60.2804 12.3302C60.8315 12.712 61.6704 13.0011 62.7694 13.1631C64.961 13.4861 68.0197 13.2799 71.3892 12.5125C73.9634 11.9262 77.1796 10.9934 80.5293 10.0219C81.3139 9.79429 82.1058 9.56461 82.8985 9.33676C87.058 8.14112 91.2409 6.9955 94.4242 6.50582C114.256 3.45517 141.916 3.84894 163.712 14.0471C175.139 19.3933 179.128 28.8562 181.046 38.2927C181.724 41.6284 182.147 44.9859 182.547 48.1558C182.711 49.4536 182.871 50.7199 183.042 51.9403C183.638 56.1752 184.375 59.8504 185.879 62.5568C187.829 66.0664 191.323 71.8247 195.123 78.0865C197.37 81.7896 199.724 85.6688 201.929 89.363C204.89 94.3252 207.581 98.9528 209.368 102.353C210.259 104.049 210.936 105.458 211.307 106.458C211.489 106.948 211.615 107.385 211.637 107.722C211.648 107.885 211.64 108.094 211.543 108.284C211.424 108.516 211.205 108.652 210.952 108.667C195.683 109.586 185.597 107.29 178.683 103.394C171.759 99.4926 168.075 94.0204 165.549 88.7167C165.547 88.7119 165.544 88.7069 165.542 88.702C165.54 88.6971 165.538 88.6923 165.536 88.6874C165.134 87.6812 164.922 86.418 164.804 85.0857C164.685 83.7478 164.657 82.3021 164.638 80.9197C164.636 80.7709 164.634 80.623 164.632 80.476C164.616 79.2484 164.601 78.0883 164.531 77.0882C164.467 76.1688 164.358 75.4445 164.189 74.9479Z" fill="#ACAAC0"/>
<path fill-rule="evenodd" clip-rule="evenodd" d="M160.544 24.8879C160.713 24.5485 160.942 24.2219 161.277 24.0547L161.724 24.9491C161.683 24.9694 161.577 25.0568 161.44 25.3322C161.31 25.5944 161.183 25.9637 161.062 26.4431C160.819 27.4003 160.617 28.7131 160.426 30.2962C160.255 31.7117 160.095 33.3249 159.922 35.068C159.902 35.2697 159.882 35.4732 159.862 35.6783C159.666 37.6531 159.45 39.7754 159.184 41.938C158.652 46.2589 157.913 50.7639 156.704 54.6052C155.5 58.4276 153.802 61.6909 151.282 63.4146L150.718 62.5892C152.949 61.0629 154.562 58.0762 155.75 54.3049C156.931 50.5524 157.661 46.1199 158.191 41.8158C158.456 39.6659 158.671 37.5538 158.867 35.5794C158.887 35.3742 158.907 35.1705 158.927 34.9684C159.1 33.2277 159.261 31.6032 159.433 30.1764C159.625 28.5875 159.833 27.2207 160.093 26.1974C160.222 25.6866 160.369 25.2405 160.544 24.8879Z" fill="#ACAAC0"/>
<path fill-rule="evenodd" clip-rule="evenodd" d="M170.526 37.7485C170.193 34.1414 169.393 31.0706 167.608 28.8092L168.393 28.1896C170.357 30.6782 171.183 33.9824 171.522 37.6566C171.796 40.6337 171.755 43.9128 171.713 47.2667C171.704 48.0507 171.694 48.8388 171.688 49.6281C171.625 58.0247 172.018 66.5808 177.376 72.6691L176.625 73.3297C170.983 66.918 170.626 57.9741 170.688 49.6207C170.694 48.8177 170.704 48.0203 170.714 47.2306C170.755 43.8806 170.795 40.6683 170.526 37.7485Z" fill="#ACAAC0"/>
</svg>
