<svg width="36" height="36" viewBox="0 0 36 36" fill="none" xmlns="http://www.w3.org/2000/svg">
<path d="M28.5752 7.365C27.2 5.97589 25.562 4.8745 23.7567 4.12507C21.9513 3.37565 20.0149 2.99319 18.0602 3C9.87019 3 3.1952 9.675 3.1952 17.865C3.1952 20.49 3.8852 23.04 5.1752 25.29L3.0752 33L10.9502 30.93C13.1252 32.115 15.5702 32.745 18.0602 32.745C26.2502 32.745 32.9252 26.07 32.9252 17.88C32.9252 13.905 31.3802 10.17 28.5752 7.365ZM18.0602 30.225C15.8402 30.225 13.6652 29.625 11.7602 28.5L11.3102 28.23L6.6302 29.46L7.8752 24.9L7.5752 24.435C6.34181 22.4655 5.68691 20.1889 5.6852 17.865C5.6852 11.055 11.2352 5.505 18.0452 5.505C21.3452 5.505 24.4502 6.795 26.7752 9.135C27.9264 10.2809 28.8387 11.644 29.4593 13.1451C30.0798 14.6463 30.3962 16.2557 30.3902 17.88C30.4202 24.69 24.8702 30.225 18.0602 30.225ZM24.8402 20.985C24.4652 20.805 22.6352 19.905 22.3052 19.77C21.9602 19.65 21.7202 19.59 21.4652 19.95C21.2102 20.325 20.5052 21.165 20.2952 21.405C20.0852 21.66 19.8602 21.69 19.4852 21.495C19.1102 21.315 17.9102 20.91 16.5002 19.65C15.3902 18.66 14.6552 17.445 14.4302 17.07C14.2202 16.695 14.4002 16.5 14.5952 16.305C14.7602 16.14 14.9702 15.87 15.1502 15.66C15.3302 15.45 15.4052 15.285 15.5252 15.045C15.6452 14.79 15.5852 14.58 15.4952 14.4C15.4052 14.22 14.6552 12.39 14.3552 11.64C14.0552 10.92 13.7402 11.01 13.5152 10.995H12.7952C12.5402 10.995 12.1502 11.085 11.8052 11.46C11.4752 11.835 10.5152 12.735 10.5152 14.565C10.5152 16.395 11.8502 18.165 12.0302 18.405C12.2102 18.66 14.6552 22.41 18.3752 24.015C19.2602 24.405 19.9502 24.63 20.4902 24.795C21.3752 25.08 22.1852 25.035 22.8302 24.945C23.5502 24.84 25.0352 24.045 25.3352 23.175C25.6502 22.305 25.6502 21.57 25.5452 21.405C25.4402 21.24 25.2152 21.165 24.8402 20.985Z" fill="white"/>
</svg>
