<svg width="144" height="161" viewBox="0 0 144 161" fill="none" xmlns="http://www.w3.org/2000/svg">
<path fill-rule="evenodd" clip-rule="evenodd" d="M0 0.0253906H12.065V140.792H0V0.0253906Z" fill="#DF2824"/>
<path fill-rule="evenodd" clip-rule="evenodd" d="M0.132812 12.0652V0H143.976V12.0652H0.132812Z" fill="#DF2824"/>
<path fill-rule="evenodd" clip-rule="evenodd" d="M131.935 0.0253906H144V140.792H131.935V0.0253906Z" fill="#DF2824"/>
<path fill-rule="evenodd" clip-rule="evenodd" d="M0.132812 140.79V128.725H57.419V140.79H0.132812Z" fill="#DF2824"/>
<path fill-rule="evenodd" clip-rule="evenodd" d="M86.6055 140.79V128.725H143.892V140.79H86.6055Z" fill="#DF2824"/>
<path fill-rule="evenodd" clip-rule="evenodd" d="M48.4258 136.799L57.3849 128.718L78.8296 152.493L69.8704 160.574L48.4258 136.799Z" fill="#DF2824"/>
<path fill-rule="evenodd" clip-rule="evenodd" d="M41.041 44.2701H37.5973V26.6733H27.7978V44.2701H24.3691V23.6037H41.041V44.2701Z" fill="white"/>
<path fill-rule="evenodd" clip-rule="evenodd" d="M79.1991 44.2456H75.4358L73.5762 38.9866H65.4491L63.6634 44.2456H59.915L67.6531 23.5791H71.5148L79.1991 44.2456ZM72.6711 36.1875L69.803 27.9426C69.7145 27.6771 69.6208 27.2441 69.5273 26.6488H69.4684C69.3846 27.1947 69.2863 27.6278 69.1831 27.9426L66.3395 36.1875H72.6711Z" fill="white"/>
<path fill-rule="evenodd" clip-rule="evenodd" d="M120.469 44.2456H117.07V30.8696C117.07 29.7777 117.138 28.4345 117.271 26.8507H117.212C117 27.7506 116.814 28.4 116.651 28.7935L110.482 44.2456H108.121L101.937 28.9117C101.765 28.459 101.578 27.7704 101.386 26.8507H101.332C101.406 27.6771 101.445 29.0247 101.445 30.8992V44.2456H98.2773V23.5791H103.103L108.534 37.3435C108.947 38.4014 109.218 39.1884 109.346 39.7048H109.415C109.774 38.6179 110.059 37.8108 110.281 37.2846L115.815 23.5791H120.469V44.2456Z" fill="white"/>
<path fill-rule="evenodd" clip-rule="evenodd" d="M39.5802 80.7992H36.1516V72.3525H33.9329C33.3672 72.3525 32.8701 72.51 32.4423 72.8297C32.014 73.1445 31.5518 73.8528 31.0648 74.9452L28.6149 80.7992H24.6055L27.6458 74.227C27.8869 73.7201 28.2559 73.1841 28.7528 72.6182C29.2447 72.0573 29.8202 71.6591 30.4744 71.4177V71.3589C29.0526 71.0587 27.9457 70.434 27.1489 69.4796C26.3568 68.5203 25.9633 67.3644 25.9633 65.9968C25.9633 64.2308 26.6226 62.809 27.9358 61.7364C29.2545 60.669 30.9809 60.1328 33.1261 60.1328H39.5802V80.7992ZM36.1516 69.5878V62.9417H33.2833C32.1125 62.9417 31.2026 63.2269 30.5583 63.7926C29.9135 64.3583 29.594 65.1604 29.594 66.1981C29.594 67.2462 29.9384 68.0728 30.6219 68.6775C31.3108 69.2829 32.2357 69.5878 33.3967 69.5878H36.1516Z" fill="white"/>
<path fill-rule="evenodd" clip-rule="evenodd" d="M77.8416 63.0588H71.9038V80.8128H68.4751V63.0588H62.5469V60.1465H77.8416V63.0588Z" fill="white"/>
<path fill-rule="evenodd" clip-rule="evenodd" d="M118.234 80.7992H114.785V71.8361H105.06V80.7992H101.631V60.1328H105.06V68.8206H114.785V60.1328H118.234V80.7992Z" fill="white"/>
<path fill-rule="evenodd" clip-rule="evenodd" d="M118.799 117.233H115.498V103.468C115.498 102.228 115.548 101.353 115.646 100.846H115.557C115.395 101.279 115.193 101.678 114.952 102.041L105.035 117.233H101.276V96.5663H104.587V109.711C104.587 111.216 104.553 112.205 104.474 112.663H104.533C104.725 112.279 104.976 111.856 105.281 111.393L114.849 96.5663H118.799V117.233Z" fill="white"/>
<path fill-rule="evenodd" clip-rule="evenodd" d="M80.0546 117.233H75.588L68.3956 107.778C68.125 107.423 67.9626 107.182 67.9085 107.059H67.8496V117.233H64.4209V96.5663H67.8496V106.277H67.9085C68.0219 106.066 68.1842 105.834 68.3956 105.574L75.3273 96.5663H79.4348L71.3226 106.479L80.0546 117.233Z" fill="white"/>
<path fill-rule="evenodd" clip-rule="evenodd" d="M42.0121 117.233H38.711V103.468C38.711 102.228 38.7604 101.353 38.8587 100.846H38.7702C38.6079 101.279 38.406 101.678 38.165 102.042L28.2474 117.233H24.4893V96.5664H27.7999V109.711C27.7999 111.216 27.7654 112.205 27.6869 112.663H27.7457C27.9377 112.279 28.1886 111.856 28.4935 111.393L38.062 96.5664H42.0121V117.233Z" fill="white"/>
</svg>
