<svg width="348" height="206" viewBox="0 0 348 206" fill="none" xmlns="http://www.w3.org/2000/svg">
<path d="M158.892 11.3059C193.124 23.2094 209.484 43.0095 207.46 71.3406C205.435 99.6717 183.176 117.886 140.679 121.933C98.181 125.979 78.4496 116.812 52.9859 104.395C30.1873 113.859 -8.42459 108.955 9.81426 104.395C24.4054 100.747 32.8843 89.8442 30.7255 82.8093C26.4193 68.7769 17.3703 48.1588 46.2409 26.8201C77.2705 3.8856 123.511 -0.996832 158.892 11.3059Z" fill="#C83936"/>
<path fill-rule="evenodd" clip-rule="evenodd" d="M46.5379 27.2222C77.421 4.39597 123.486 -0.476277 158.727 11.7781C175.791 17.7117 188.346 25.5954 196.384 35.4783C204.412 45.3493 207.965 57.2531 206.961 71.3049C205.958 85.3334 199.954 96.8368 188.941 105.348C177.911 113.87 161.825 119.417 140.631 121.435C119.428 123.454 103.928 122.175 90.565 118.853C77.1946 115.529 65.9395 110.156 53.2049 103.946L53.0022 103.847L52.794 103.933C41.4905 108.626 26.2218 109.765 16.0408 109.155C13.4998 109.003 11.2876 108.742 9.54259 108.403C7.77557 108.061 6.55385 107.65 5.93896 107.235C5.62621 107.024 5.57342 106.881 5.56784 106.837C5.56547 106.818 5.55682 106.7 5.82255 106.472C6.08428 106.248 6.53494 105.991 7.22777 105.715C7.91386 105.442 8.80878 105.162 9.93538 104.88C17.3195 103.034 23.1764 99.348 26.9217 95.2077C30.6481 91.0884 32.3578 86.4245 31.2033 82.6626C30.9222 81.7464 30.6221 80.8052 30.3144 79.8402C28.2502 73.3667 25.8454 65.8251 26.54 57.5966C27.3339 48.191 32.1946 37.8235 46.5379 27.2222ZM159.056 10.8336C123.536 -1.51749 77.1198 3.37513 45.9435 26.418C31.4162 37.1553 26.3662 47.7663 25.5435 57.5125C24.8309 65.9553 27.3038 73.701 29.367 80.1635C29.6734 81.1232 29.9708 82.0547 30.2473 82.956C31.2517 86.2289 29.8013 90.5339 26.1801 94.5369C22.5779 98.5189 16.8998 102.108 9.69285 103.91C8.53959 104.198 7.59881 104.491 6.85786 104.786C6.12363 105.078 5.55592 105.384 5.17245 105.712C4.79299 106.037 4.51234 106.459 4.57567 106.962C4.63577 107.439 4.9864 107.799 5.37927 108.064C6.17563 108.602 7.57406 109.04 9.35226 109.385C11.1525 109.734 13.4105 109.999 15.981 110.153C26.1838 110.765 41.4959 109.642 52.9686 104.943C65.6159 111.109 76.9095 116.488 90.3238 119.823C103.816 123.177 119.432 124.458 140.726 122.43C162.029 120.402 178.321 114.818 189.552 106.139C200.799 97.448 206.936 85.6788 207.958 71.3762C208.978 57.0969 205.364 44.9352 197.16 34.8474C188.965 24.7716 176.224 16.8035 159.056 10.8336Z" fill="white"/>
<path d="M171.43 90.0232C134.911 98.3617 118.483 116.832 118.483 137.916C118.483 159 126.719 181.135 181 194C222.5 203.836 263.536 199.918 289 187.5C311.935 198.967 357.274 194.579 338.389 189.858C323.797 186.21 307.276 175.56 301.5 171C309.588 161.433 315 131.599 292.519 112.957C258.436 84.696 207.949 81.6847 171.43 90.0232Z" fill="#C83936"/>
<path fill-rule="evenodd" clip-rule="evenodd" d="M292.199 113.342C258.28 85.2164 207.974 82.1917 171.541 90.5105C135.129 98.8247 118.983 117.17 118.983 137.916C118.983 148.387 121.025 159.052 129.757 168.705C138.504 178.375 154.021 187.092 181.115 193.514C222.532 203.33 263.445 199.406 288.781 187.051L289.003 186.943L289.223 187.053C300.583 192.733 317.555 194.503 329.366 194.25C332.313 194.186 334.927 193.997 337.042 193.714C339.17 193.43 340.75 193.055 341.655 192.639C342.125 192.424 342.314 192.241 342.367 192.141C342.383 192.112 342.381 192.102 342.379 192.095L342.379 192.094C342.375 192.077 342.356 192.021 342.267 191.927C342.079 191.73 341.689 191.479 341.007 191.197C340.338 190.921 339.434 190.634 338.267 190.343C323.579 186.671 306.993 175.974 301.19 171.393L300.784 171.072L301.118 170.677C305.061 166.013 308.415 156.297 307.973 145.402C307.532 134.533 303.313 122.558 292.199 113.342ZM171.319 89.5356C207.923 81.1776 258.591 84.1754 292.838 112.572C304.206 121.999 308.521 134.26 308.972 145.361C309.41 156.141 306.205 165.888 302.211 170.921C308.293 175.616 324.339 185.83 338.51 189.372C339.703 189.671 340.658 189.972 341.389 190.273C342.107 190.569 342.656 190.885 342.991 191.237C343.163 191.418 343.301 191.632 343.356 191.88C343.413 192.138 343.368 192.389 343.25 192.611C343.034 193.017 342.58 193.315 342.072 193.548C341.025 194.029 339.321 194.418 337.174 194.706C335.014 194.995 332.361 195.186 329.387 195.249C317.591 195.502 300.569 193.757 288.998 188.057C263.39 200.452 222.348 204.314 180.885 194.487C153.698 188.043 137.956 179.26 129.015 169.376C120.058 159.474 117.983 148.529 117.983 137.916C117.983 116.494 134.693 97.8984 171.319 89.5356Z" fill="white"/>
<path fill-rule="evenodd" clip-rule="evenodd" d="M125.828 49.7148C124.824 50.7526 123.743 52.2605 122.518 54.2345C120.062 58.1936 117.869 60.2214 115.088 59.9643C113.734 59.8392 112.319 59.1737 110.754 58.0766C109.185 56.9767 107.421 55.4103 105.366 53.4229C102.352 50.5085 100.07 49.4115 98.1056 49.6141C96.1366 49.8172 94.2777 51.3453 92.1651 54.2641C90.9073 56.002 89.8227 57.1525 88.7885 57.8121C87.7274 58.4888 86.7241 58.6448 85.6866 58.4125C84.6878 58.1888 83.6852 57.6099 82.5963 56.9008C82.2351 56.6656 81.8637 56.4155 81.4751 56.1539C80.6654 55.6087 79.7815 55.0136 78.762 54.3992C73.1763 51.033 69.3582 50.6956 66.4753 51.7304C63.5522 52.7797 61.4552 55.277 59.3952 57.9333L58.605 57.3205C60.6458 54.6888 62.9035 51.9501 66.1375 50.7892C69.4117 49.614 73.5532 50.0926 79.2782 53.5427C80.3184 54.1696 81.2421 54.7913 82.0622 55.3434C82.4442 55.6005 82.8036 55.8425 83.142 56.0628C84.2317 56.7725 85.1002 57.2564 85.9051 57.4366C86.6711 57.6082 87.4037 57.5091 88.2508 56.9689C89.1247 56.4116 90.1206 55.3834 91.3551 53.6778C93.4892 50.7293 95.5736 48.87 98.003 48.6194C100.437 48.3684 103.008 49.7513 106.061 52.7041C108.107 54.6828 109.826 56.2045 111.328 57.2578C112.834 58.3138 114.079 58.8668 115.18 58.9685C117.308 59.1652 119.204 57.6806 121.669 53.7073C122.904 51.7152 124.031 50.1351 125.109 49.0198C126.182 47.909 127.26 47.2043 128.406 47.0714C129.571 46.9362 130.684 47.4055 131.787 48.3665C132.884 49.3221 134.019 50.8028 135.258 52.8C137.704 56.7417 140.181 59.125 142.559 59.8281C143.729 60.1743 144.89 60.1184 146.05 59.6225C147.219 59.1224 148.413 58.1635 149.609 56.6633L150.391 57.2868C149.127 58.8715 147.81 59.9576 146.443 60.542C145.066 61.1305 143.666 61.1984 142.275 60.787C139.529 59.975 136.884 57.3176 134.409 53.3272C133.187 51.3584 132.115 49.9779 131.13 49.1206C130.152 48.2686 129.31 47.9732 128.521 48.0648C127.712 48.1587 126.835 48.6723 125.828 49.7148Z" fill="white"/>
<path fill-rule="evenodd" clip-rule="evenodd" d="M196.832 119.996C197.68 121.183 198.748 122.677 200.199 124.385C201.806 126.278 203.322 127.53 204.839 128.194C206.374 128.864 207.878 128.919 209.421 128.475C210.946 128.036 212.496 127.113 214.15 125.857C215.807 124.598 217.602 122.978 219.612 121.116C220.774 120.04 221.724 119.277 222.51 118.769C223.301 118.258 223.895 118.026 224.35 117.97C224.781 117.917 225.105 118.019 225.396 118.239C225.707 118.474 225.999 118.86 226.304 119.409C226.602 119.945 226.889 120.59 227.217 121.327L227.237 121.37C227.569 122.118 227.94 122.946 228.389 123.795C229.29 125.496 230.519 127.299 232.457 128.789C233.539 129.622 234.645 130.008 235.783 130.046C236.91 130.083 238.034 129.778 239.161 129.292C240.287 128.806 241.445 128.125 242.642 127.384C242.979 127.175 243.319 126.962 243.663 126.746C244.549 126.19 245.461 125.617 246.42 125.064C253.33 121.078 257.708 120.535 261.648 121.73C263.642 122.334 265.557 123.394 267.661 124.745C268.6 125.348 269.57 126.004 270.6 126.701C270.724 126.785 270.848 126.869 270.973 126.953C272.141 127.743 273.385 128.579 274.732 129.434L275.268 128.59C273.934 127.743 272.701 126.914 271.534 126.125C271.408 126.04 271.284 125.956 271.16 125.872C270.132 125.177 269.151 124.513 268.202 123.903C266.074 122.538 264.067 121.418 261.938 120.773C257.632 119.467 252.959 120.138 245.921 124.198C244.944 124.761 244.008 125.349 243.116 125.908C242.776 126.122 242.442 126.332 242.115 126.534C240.923 127.272 239.818 127.919 238.765 128.374C237.713 128.828 236.742 129.077 235.816 129.046C234.901 129.016 233.995 128.711 233.066 127.997C231.281 126.623 230.134 124.953 229.273 123.327C228.841 122.512 228.484 121.713 228.15 120.964L228.12 120.896C227.801 120.179 227.498 119.499 227.178 118.923C226.849 118.331 226.476 117.802 226 117.442C225.504 117.066 224.919 116.892 224.228 116.978C223.56 117.06 222.818 117.38 221.968 117.929C221.113 118.481 220.116 119.287 218.933 120.382C216.921 122.246 215.159 123.835 213.545 125.06C211.93 126.287 210.496 127.125 209.144 127.514C207.811 127.898 206.547 127.849 205.24 127.277C203.916 126.699 202.518 125.571 200.961 123.737C199.538 122.063 198.493 120.601 197.645 119.413C197.559 119.293 197.475 119.175 197.393 119.061C196.948 118.441 196.551 117.896 196.178 117.452C195.808 117.011 195.438 116.641 195.043 116.393C194.635 116.136 194.194 116.007 193.706 116.06C193.232 116.112 192.764 116.329 192.282 116.665C191.331 117.329 190.17 118.57 188.594 120.425C185.55 124.009 179.293 126.404 172.928 127.162C169.762 127.539 166.606 127.505 163.863 127.025C161.11 126.543 158.822 125.621 157.338 124.262L156.662 125C158.343 126.539 160.843 127.512 163.69 128.01C166.547 128.51 169.802 128.541 173.047 128.155C179.505 127.386 186.07 124.942 189.356 121.073C190.945 119.202 192.026 118.063 192.854 117.485C193.263 117.2 193.57 117.081 193.813 117.054C194.042 117.03 194.26 117.082 194.511 117.24C194.776 117.405 195.066 117.682 195.412 118.095C195.757 118.505 196.134 119.021 196.58 119.643C196.662 119.757 196.746 119.875 196.832 119.996Z" fill="white"/>
<path fill-rule="evenodd" clip-rule="evenodd" d="M188.597 157.993C190.001 159.363 191.463 161.16 193.036 163.285C193.969 164.547 195.075 165.525 196.394 166.129C197.715 166.733 199.221 166.948 200.928 166.725C204.32 166.283 208.53 164.117 213.812 159.833C219.059 155.578 221.85 154.987 224.179 155.988C225.392 156.509 226.542 157.485 227.881 158.792C228.3 159.202 228.738 159.644 229.2 160.111C230.191 161.111 231.292 162.223 232.553 163.359C234.404 165.028 235.827 165.937 237.084 166.199C238.398 166.474 239.442 166.027 240.464 165.255C240.968 164.875 241.482 164.405 242.028 163.891C242.146 163.78 242.265 163.668 242.386 163.553C242.835 163.128 243.313 162.676 243.846 162.202C245.194 161.004 246.874 159.685 249.169 158.469C249.83 158.119 250.426 158.073 251.005 158.222C251.604 158.377 252.217 158.749 252.875 159.293C253.532 159.836 254.197 160.52 254.912 161.266C254.968 161.326 255.025 161.385 255.083 161.445C255.74 162.132 256.436 162.86 257.176 163.533C258.785 164.993 260.678 166.265 263.036 166.374C265.401 166.483 268.107 165.418 271.335 162.498L270.665 161.756C267.541 164.581 265.083 165.467 263.082 165.375C261.074 165.283 259.399 164.2 257.849 162.792C257.135 162.144 256.463 161.442 255.802 160.75C255.746 160.692 255.69 160.633 255.634 160.575C254.925 159.834 254.221 159.108 253.513 158.522C252.806 157.937 252.059 157.461 251.255 157.254C250.431 157.042 249.579 157.12 248.701 157.586C246.316 158.85 244.57 160.221 243.182 161.455C242.636 161.94 242.143 162.406 241.693 162.832C241.574 162.945 241.457 163.055 241.343 163.162C240.796 163.677 240.318 164.113 239.862 164.457C238.963 165.135 238.211 165.413 237.288 165.221C236.308 165.016 235.053 164.266 233.222 162.616C231.982 161.499 230.919 160.425 229.938 159.434C229.47 158.962 229.021 158.508 228.58 158.077C227.236 156.765 225.972 155.67 224.573 155.069C221.678 153.824 218.456 154.779 213.182 159.057C207.943 163.305 203.912 165.328 200.799 165.734C199.254 165.935 197.941 165.737 196.81 165.219C195.676 164.701 194.695 163.847 193.84 162.69C192.256 160.55 190.756 158.704 189.295 157.277C187.837 155.854 186.388 154.818 184.898 154.341C183.386 153.857 181.866 153.96 180.317 154.754C178.788 155.538 177.252 156.984 175.651 159.148C172.513 163.389 169.682 165.577 166.954 165.98C164.258 166.378 161.476 165.056 158.362 161.782L157.638 162.471C160.837 165.835 163.925 167.438 167.1 166.969C170.241 166.505 173.281 164.033 176.455 159.742C178.011 157.64 179.437 156.329 180.773 155.644C182.09 154.969 183.337 154.891 184.593 155.293C185.871 155.702 187.19 156.619 188.597 157.993Z" fill="white"/>
<path fill-rule="evenodd" clip-rule="evenodd" d="M83.7692 68.1903C82.0186 67.7485 80.0606 68.2648 76.7698 70.8582C76.2631 71.2576 75.7973 71.6285 75.3685 71.97C74.402 72.7398 73.6231 73.3601 72.9852 73.8198C72.5222 74.1534 72.1124 74.4181 71.7403 74.6003C71.3686 74.7824 71.0048 74.897 70.6403 74.897C69.8665 74.897 69.32 74.3894 68.8119 73.715C68.457 73.244 68.0602 72.605 67.5772 71.8275C67.3665 71.4884 67.1395 71.1228 66.8924 70.7334C66.0788 69.4511 65.3542 68.7141 64.7212 68.364C64.1215 68.0324 63.5916 68.0385 63.0639 68.2945C62.5007 68.5676 61.9106 69.1419 61.2924 70.0169C60.6796 70.8842 60.0702 72.0018 59.4518 73.3013L58.5488 72.8717C59.1776 71.5502 59.8153 70.3745 60.4757 69.4399C61.1305 68.513 61.8395 67.7768 62.6275 67.3947C63.4508 66.9954 64.3239 67.0015 65.2052 67.4889C66.0532 67.9579 66.8875 68.859 67.7368 70.1977C68.0051 70.6206 68.2432 71.004 68.4585 71.3506C68.9247 72.1012 69.2839 72.6796 69.6106 73.1133C70.0899 73.7494 70.3748 73.897 70.6403 73.897C70.7954 73.897 71.0032 73.8478 71.3005 73.7022C71.5975 73.5568 71.9542 73.3301 72.4006 73.0085C73.0182 72.5635 73.7672 71.9669 74.7204 71.2077C75.1529 70.8632 75.6274 70.4853 76.1508 70.0728C79.5114 67.4243 81.7985 66.6616 84.0138 67.2207C85.0915 67.4926 86.1064 68.0676 87.1748 68.7919C87.7341 69.171 88.3424 69.6163 88.9931 70.0925C89.5558 70.5044 90.1503 70.9395 90.7722 71.3752C91.0982 71.6035 91.392 71.8164 91.6641 72.0135C92.1897 72.3944 92.6341 72.7163 93.0713 72.9766C93.7096 73.3564 94.2645 73.5592 94.9063 73.5602C95.5605 73.5612 96.3617 73.3527 97.4854 72.7983C98.6088 72.244 100.019 71.3622 101.883 70.056C103.47 68.9443 105.314 68.0673 107.633 68.0932C109.945 68.119 112.655 69.0411 115.987 71.3752C116.459 71.7054 116.927 72.0633 117.388 72.4168L117.45 72.4642C117.892 72.8037 118.328 73.1381 118.768 73.451C119.691 74.1089 120.588 74.6418 121.497 74.8933C122.387 75.1396 123.297 75.1183 124.276 74.6465C125.271 74.1668 126.373 73.2037 127.593 71.4942L128.407 72.0751C127.133 73.8604 125.912 74.9678 124.71 75.5473C123.491 76.1347 122.33 76.1613 121.23 75.8571C120.149 75.558 119.137 74.9419 118.187 74.2654C117.733 73.9419 117.284 73.5977 116.845 73.261L116.779 73.2104C116.317 72.8555 115.865 72.5103 115.413 72.1942C112.182 69.9306 109.666 69.116 107.622 69.0931C105.585 69.0704 103.945 69.8326 102.457 70.8751C100.58 72.19 99.1204 73.1067 97.9279 73.6951C96.7357 74.2833 95.7753 74.5616 94.9048 74.5602C94.022 74.5588 93.2893 74.27 92.5599 73.8359C92.0843 73.5528 91.5796 73.1874 91.0281 72.7881C90.7631 72.5962 90.4872 72.3964 90.1985 72.1942C89.5275 71.7242 88.9305 71.2866 88.3754 70.8798C87.7504 70.4217 87.1784 70.0025 86.6137 69.6196C85.5728 68.914 84.6745 68.4187 83.7692 68.1903Z" fill="white"/>
<path fill-rule="evenodd" clip-rule="evenodd" d="M179.937 138.77C181.024 139.316 182.307 140.184 183.903 141.423C184.7 142.041 185.417 142.628 186.076 143.17C186.168 143.246 186.259 143.321 186.35 143.396C186.901 143.85 187.414 144.273 187.894 144.65C189.002 145.519 189.999 146.196 191.002 146.483C192.048 146.782 193.059 146.645 194.153 145.996C195.218 145.364 196.369 144.243 197.747 142.57C200.024 139.806 201.515 138.763 203.025 138.818C203.792 138.846 204.632 139.158 205.657 139.799C206.682 140.44 207.852 141.385 209.276 142.628C210.696 143.868 211.789 144.82 212.663 145.459C213.518 146.084 214.266 146.489 214.983 146.489C215.756 146.489 216.337 146.03 216.865 145.366C217.39 144.706 217.95 143.732 218.655 142.5C218.957 141.973 219.286 141.76 219.62 141.692C219.981 141.618 220.441 141.695 221.025 141.939C221.604 142.181 222.248 142.563 222.956 143.028C223.357 143.291 223.759 143.567 224.175 143.852C224.503 144.078 224.84 144.309 225.192 144.545C226.741 145.581 228.463 146.621 230.201 146.945C231.082 147.109 231.979 147.093 232.864 146.794C233.749 146.495 234.591 145.924 235.376 145.028L234.624 144.368C233.936 145.154 233.237 145.612 232.544 145.846C231.85 146.081 231.13 146.101 230.385 145.962C228.87 145.679 227.301 144.753 225.748 143.713C225.422 143.495 225.089 143.267 224.759 143.04C224.33 142.746 223.905 142.454 223.504 142.192C222.785 141.72 222.078 141.296 221.411 141.016C220.749 140.739 220.067 140.58 219.42 140.712C218.745 140.85 218.199 141.284 217.787 142.003C217.066 143.263 216.549 144.158 216.083 144.744C215.619 145.326 215.295 145.489 214.983 145.489C214.617 145.489 214.102 145.272 213.253 144.651C212.422 144.044 211.368 143.127 209.934 141.875C208.505 140.627 207.284 139.637 206.187 138.951C205.09 138.265 204.076 137.856 203.062 137.819C201.01 137.744 199.233 139.193 196.975 141.934C195.615 143.585 194.554 144.596 193.643 145.136C192.761 145.66 192.031 145.737 191.276 145.521C190.479 145.294 189.616 144.73 188.512 143.863C188.042 143.494 187.539 143.08 186.987 142.625C186.896 142.55 186.805 142.475 186.711 142.398C186.051 141.854 185.325 141.26 184.516 140.633C182.902 139.38 181.56 138.466 180.386 137.877C179.211 137.286 178.175 137.005 177.185 137.054C175.208 137.154 173.621 138.567 171.604 140.683C170.428 141.916 169.103 142.13 167.682 141.876C166.414 141.649 165.119 141.061 163.828 140.475C163.625 140.383 163.422 140.29 163.22 140.2C162.49 139.873 161.763 139.567 161.076 139.377C160.392 139.188 159.699 139.099 159.053 139.256C157.676 139.59 156.851 140.92 156.505 143.406L157.496 143.544C157.83 141.137 158.556 140.406 159.289 140.228C159.698 140.129 160.199 140.172 160.809 140.341C161.417 140.509 162.085 140.787 162.811 141.113C163.003 141.198 163.2 141.288 163.399 141.379C164.679 141.961 166.104 142.61 167.506 142.86C169.172 143.158 170.866 142.906 172.328 141.373C174.391 139.208 175.716 138.129 177.236 138.053C177.994 138.015 178.853 138.225 179.937 138.77Z" fill="white"/>
<path fill-rule="evenodd" clip-rule="evenodd" d="M162.734 43.9618C160.88 45.8998 160.185 48.9546 161.225 51.1771L160.319 51.601C159.071 48.9351 159.929 45.4472 162.011 43.2706C163.064 42.1701 164.45 41.3805 166.071 41.1992C167.695 41.0175 169.505 41.452 171.395 42.7119C173.366 44.0254 174.284 46.584 174.284 49.2444C174.284 51.9191 173.362 54.822 171.494 56.9491C170.286 58.3238 169.264 59.2266 168.431 59.9484C168.391 59.9832 168.351 60.0175 168.312 60.0513C167.53 60.7283 166.969 61.2146 166.55 61.8007C165.703 62.9861 165.39 64.6647 165.728 69.4004L164.731 69.4717C164.394 64.7637 164.655 62.7322 165.736 61.2193C166.227 60.5328 166.876 59.9715 167.62 59.3273C167.672 59.2829 167.724 59.238 167.776 59.1927C168.597 58.4809 169.58 57.6129 170.742 56.2892C172.429 54.369 173.284 51.711 173.284 49.2444C173.284 46.7634 172.425 44.6 170.841 43.544C169.112 42.3918 167.534 42.0418 166.182 42.193C164.827 42.3445 163.649 43.0051 162.734 43.9618Z" fill="white"/>
<path fill-rule="evenodd" clip-rule="evenodd" d="M164.729 75.3554L164.729 72.8088L165.729 72.8088L165.729 75.3554L164.729 75.3554Z" fill="white"/>
</svg>
