<svg width="148" height="190" viewBox="0 0 148 190" fill="none" xmlns="http://www.w3.org/2000/svg">
<path fill-rule="evenodd" clip-rule="evenodd" d="M20.6772 27C20.6772 26.7239 20.9011 26.5 21.1772 26.5H24.0633C24.3394 26.5 24.5633 26.7239 24.5633 27V29.2381H26.5886C26.8647 29.2381 27.0886 29.462 27.0886 29.7381V32.8333C27.0886 33.1095 26.8647 33.3333 26.5886 33.3333H24.5633V34.3571H32C32.2761 34.3571 32.5 34.581 32.5 34.8571V37.9524C32.5 38.2285 32.2761 38.4524 32 38.4524H24.5633V48.0542L26.9121 50.0473C27.0241 50.1423 27.0886 50.2817 27.0886 50.4286V53.5238C27.0886 53.7134 26.9813 53.8868 26.8116 53.9713C26.6419 54.0559 26.4389 54.0372 26.2875 53.923L24.5633 52.6225V60C24.5633 60.2761 24.3394 60.5 24.0633 60.5H21.1772C20.9011 60.5 20.6772 60.2761 20.6772 60V49.9743L18.0041 48.0999C17.8706 48.0063 17.7911 47.8535 17.7911 47.6905V44.3571C17.7911 44.1682 17.8977 43.9954 18.0665 43.9105C18.2353 43.8256 18.4375 43.8431 18.5892 43.9557L20.6772 45.506V38.4524H13C12.7239 38.4524 12.5 38.2285 12.5 37.9524V34.8571C12.5 34.581 12.7239 34.3571 13 34.3571H20.6772V33.3333H18.2911C18.015 33.3333 17.7911 33.1095 17.7911 32.8333V29.5C17.7911 29.2239 18.015 29 18.2911 29H20.6772V27ZM21.6772 27.5V29.5C21.6772 29.7761 21.4534 30 21.1772 30H18.7911V32.3333H21.1772C21.4534 32.3333 21.6772 32.5572 21.6772 32.8333V34.8571C21.6772 35.1333 21.4534 35.3571 21.1772 35.3571H13.5V37.4524H21.1772C21.4534 37.4524 21.6772 37.6762 21.6772 37.9524V46.5C21.6772 46.689 21.5707 46.8618 21.4019 46.9467C21.2331 47.0316 21.0309 47.0141 20.8792 46.9014L18.7911 45.3511V47.4304L21.4643 49.3049C21.5978 49.3985 21.6772 49.5513 21.6772 49.7143V59.5H23.5633V51.619C23.5633 51.4294 23.6706 51.2561 23.8403 51.1715C24.01 51.087 24.213 51.1057 24.3644 51.2199L26.0886 52.5204V50.66L23.7398 48.667C23.6278 48.572 23.5633 48.4325 23.5633 48.2857V37.9524C23.5633 37.6762 23.7871 37.4524 24.0633 37.4524H31.5V35.3571H24.0633C23.7871 35.3571 23.5633 35.1333 23.5633 34.8571V32.8333C23.5633 32.5572 23.7871 32.3333 24.0633 32.3333H26.0886V30.2381H24.0633C23.7871 30.2381 23.5633 30.0142 23.5633 29.7381V27.5H21.6772Z" fill="white"/>
<path fill-rule="evenodd" clip-rule="evenodd" d="M0.5 18C0.5 17.7239 0.723858 17.5 1 17.5H44C44.2761 17.5 44.5 17.7239 44.5 18V70C44.5 70.2761 44.2761 70.5 44 70.5H1C0.723858 70.5 0.5 70.2761 0.5 70V18ZM1.5 18.5V69.5H43.5V18.5H1.5Z" fill="white" fill-opacity="0.4"/>
<path d="M36.1442 62.8954C35.985 62.521 36.3602 62.142 36.7362 62.2975L54.4594 69.6267C54.8649 69.7944 54.821 70.3824 54.3951 70.488L46.5953 72.4223C46.4298 72.4634 46.3012 72.5936 46.2622 72.7597L44.4731 80.3843C44.3727 80.812 43.7842 80.8626 43.6123 80.4583L36.1442 62.8954Z" fill="#C83936"/>
<path fill-rule="evenodd" clip-rule="evenodd" d="M36.6479 62.802L54.1407 70.0359L46.4751 71.937C46.1274 72.0232 45.8573 72.2968 45.7755 72.6454L44.0181 80.1348L36.6479 62.802ZM36.9273 61.8354C36.1377 61.5089 35.3498 62.3048 35.6841 63.0911L43.1522 80.6539C43.5133 81.503 44.7492 81.3967 44.96 80.4985L46.7427 72.9009L54.5156 70.9732C55.4098 70.7515 55.502 69.5168 54.6506 69.1647L36.9273 61.8354Z" fill="white"/>
<path fill-rule="evenodd" clip-rule="evenodd" d="M58.5 167.571C58.5 167.295 58.7239 167.071 59 167.071H147C147.276 167.071 147.5 167.295 147.5 167.571V188.524C147.5 188.8 147.276 189.024 147 189.024H59C58.7239 189.024 58.5 188.8 58.5 188.524V167.571ZM59.5 168.071V188.024H146.5V168.071H59.5Z" fill="white"/>
<path fill-rule="evenodd" clip-rule="evenodd" d="M68.8205 10.8055C66.6024 23.9911 62.1192 59.554 61.626 98.3571C61.316 122.745 63.4344 139.759 65.6513 150.794C66.7598 156.312 67.8931 160.336 68.7605 163.04C69.1942 164.392 69.5619 165.416 69.8275 166.133C69.908 166.351 69.9751 166.529 70.0336 166.685C70.0752 166.795 70.1124 166.895 70.1472 166.988C70.1576 167.016 70.1679 167.044 70.178 167.071H137.203C138.754 163.987 139.992 159.128 140.968 153.342C141.971 147.402 142.691 140.538 143.204 133.727C144.231 120.104 144.431 106.721 144.431 101.416C144.431 97.9227 144.432 95.8078 144.328 93.6981C144.119 89.4126 143.48 85.148 141.538 69.3941C139.252 50.8492 143.718 30.947 146.376 22.8301L139.991 20.3459C139.859 20.2948 139.755 20.1904 139.705 20.0587C139.655 19.9269 139.662 19.78 139.726 19.6541L144.299 10.6212C142.799 9.50405 139.668 7.81108 134.792 6.16142C129.556 4.38991 122.334 2.67746 113.017 1.78173C94.6289 0.0140493 76.0346 6.99118 68.8205 10.8055ZM68.1319 10.0393C75.2876 6.19723 94.274 -1.02468 113.112 0.786323C122.501 1.68889 129.799 3.41634 135.112 5.21417C140.414 7.0079 143.768 8.88089 145.248 10.093C145.429 10.2416 145.483 10.4964 145.377 10.7057L140.867 19.6139L147.182 22.0705C147.431 22.1674 147.56 22.4432 147.474 22.6964C144.867 30.4198 140.225 50.5713 142.53 69.2717C142.997 73.0584 143.389 76.1825 143.718 78.8038C145.428 92.444 145.431 92.4715 145.431 101.416C145.431 106.737 145.231 120.146 144.201 133.802C143.687 140.629 142.964 147.526 141.954 153.509C140.947 159.475 139.646 164.586 137.95 167.804C137.864 167.969 137.693 168.071 137.508 168.071H69.817C69.5791 168.071 69.3741 167.904 69.3269 167.671C69.3271 167.671 69.327 167.671 69.3265 167.669C69.3247 167.663 69.3176 167.638 69.299 167.583C69.2779 167.522 69.2484 167.44 69.2097 167.336C69.1807 167.258 69.1442 167.161 69.1025 167.05C69.0407 166.885 68.9674 166.69 68.8898 166.481C68.6203 165.753 68.2476 164.715 67.8083 163.345C66.9298 160.606 65.7869 156.546 64.6709 150.991C62.4389 139.881 60.3153 122.796 60.6261 98.3444C61.1231 59.2436 65.6645 23.429 67.8755 10.3962C67.9013 10.244 67.9959 10.1123 68.1319 10.0393Z" fill="white"/>
<path fill-rule="evenodd" clip-rule="evenodd" d="M143.948 90.8201C129.189 65.0971 132.345 35.485 139.737 19.6455L140.643 20.0684C133.368 35.6574 130.241 64.9216 144.816 90.3224L143.948 90.8201Z" fill="white"/>
<path fill-rule="evenodd" clip-rule="evenodd" d="M113.003 66.0016C115.247 62.6806 116.667 58.0363 116.667 52.857C116.667 47.6777 115.247 43.0334 113.003 39.7125C110.755 36.3857 107.756 34.4761 104.572 34.4761C101.388 34.4761 98.3885 36.3857 96.1407 39.7125C93.8968 43.0334 92.4766 47.6777 92.4766 52.857C92.4766 58.0363 93.8968 62.6806 96.1407 66.0016C98.3885 69.3283 101.388 71.238 104.572 71.238C107.756 71.238 110.755 69.3283 113.003 66.0016ZM104.572 72.238C111.804 72.238 117.667 63.5608 117.667 52.857C117.667 42.1532 111.804 33.4761 104.572 33.4761C97.3395 33.4761 91.4766 42.1532 91.4766 52.857C91.4766 63.5608 97.3395 72.238 104.572 72.238Z" fill="white"/>
<path fill-rule="evenodd" clip-rule="evenodd" d="M73.8364 131.375C73.9709 131.428 74.1398 131.587 74.1818 131.665C74.2356 131.791 74.2341 131.926 74.1883 132.043C74.1876 132.045 74.1869 132.048 74.186 132.051C74.1788 132.074 74.1675 132.111 74.1526 132.162C74.1228 132.264 74.0801 132.413 74.0288 132.599C73.9262 132.971 73.79 133.485 73.6542 134.048C73.3772 135.195 73.1194 136.474 73.1191 137.19C73.119 137.467 72.8951 137.69 72.6189 137.69C72.3428 137.69 72.119 137.466 72.1191 137.19C72.1195 136.335 72.4096 134.942 72.6821 133.813C72.821 133.238 72.96 132.713 73.0648 132.333C73.1173 132.143 73.1614 131.989 73.1929 131.881C73.2086 131.828 73.2217 131.784 73.2313 131.753C73.2359 131.738 73.2409 131.723 73.2456 131.709C73.2472 131.704 73.2522 131.69 73.2588 131.674C73.2589 131.674 73.2589 131.673 73.259 131.673C73.2609 131.669 73.2723 131.641 73.2912 131.608C73.2974 131.598 73.3133 131.574 73.3233 131.561C73.3396 131.54 73.3882 131.49 73.4222 131.462C73.4901 131.419 73.6993 131.363 73.8364 131.375Z" fill="white"/>
<path fill-rule="evenodd" clip-rule="evenodd" d="M74.3506 132.052C74.1379 132.076 73.9476 132.097 73.8492 132.101C73.5733 132.111 73.341 131.896 73.3305 131.62C73.3199 131.344 73.535 131.112 73.8109 131.101C73.8693 131.099 74.0085 131.084 74.2224 131.06C74.2693 131.055 74.3198 131.049 74.3737 131.043C74.6568 131.012 75.0076 130.975 75.3545 130.951C75.6969 130.927 76.0562 130.914 76.3509 130.936C76.496 130.947 76.6513 130.968 76.7896 131.013C76.9028 131.049 77.1376 131.141 77.2541 131.387C77.2854 131.453 77.3019 131.525 77.3022 131.599C77.3043 132.001 77.2315 132.467 77.1419 132.937C77.0978 133.169 77.0478 133.409 76.9976 133.65L76.9932 133.672C76.9413 133.921 76.8892 134.173 76.8412 134.425C76.6433 135.463 76.5446 136.387 76.7598 137.032C76.8471 137.294 76.7055 137.577 76.4436 137.665C76.1816 137.752 75.8984 137.61 75.8111 137.348C75.5025 136.423 75.6657 135.251 75.8589 134.237C75.9087 133.976 75.9624 133.717 76.0142 133.468L76.0178 133.45C76.0685 133.206 76.1171 132.973 76.1596 132.75C76.2183 132.442 76.2625 132.17 76.2852 131.934C76.2821 131.934 76.279 131.934 76.2759 131.933C76.0553 131.917 75.7542 131.925 75.424 131.948C75.0983 131.971 74.7643 132.006 74.4833 132.037C74.4385 132.042 74.3941 132.047 74.3506 132.052ZM76.4989 131.97C76.4985 131.971 76.4947 131.969 76.4882 131.966C76.496 131.969 76.4992 131.97 76.4989 131.97Z" fill="white"/>
<path fill-rule="evenodd" clip-rule="evenodd" d="M79.2961 133.383C79.6861 133.383 80.0762 133.461 80.3714 133.558C80.6577 133.653 80.894 133.809 81.0652 134.025C81.2355 134.239 81.3204 134.485 81.3477 134.728C81.4005 135.198 81.242 135.681 81.024 136.055C80.8269 136.393 80.4961 136.784 80.0852 137.032C79.6636 137.287 79.082 137.426 78.5168 137.07C77.7927 136.614 77.7872 135.841 77.9078 135.279C77.9614 135.029 78.0486 134.775 78.1402 134.545C78.104 134.52 78.0707 134.49 78.0412 134.455C77.8644 134.242 77.893 133.927 78.1052 133.75C78.4573 133.457 78.9191 133.384 79.2961 133.383ZM79.3017 134.383C79.2907 134.408 79.2795 134.432 79.2682 134.457C79.1231 134.778 78.9611 135.136 78.8855 135.488C78.7933 135.918 78.8729 136.113 79.0496 136.224C79.1863 136.31 79.3435 136.312 79.5681 136.176C79.8033 136.034 80.0259 135.782 80.1599 135.551C80.3096 135.295 80.3752 135.029 80.3539 134.839C80.3441 134.752 80.3174 134.691 80.2821 134.647C80.2478 134.603 80.1846 134.549 80.0581 134.508C79.8501 134.439 79.5685 134.384 79.3017 134.383Z" fill="white"/>
<path fill-rule="evenodd" clip-rule="evenodd" d="M96.6145 144.023C97.0044 144.023 97.3945 144.101 97.6897 144.198C97.976 144.293 98.2123 144.449 98.3836 144.665C98.5538 144.879 98.6388 145.125 98.666 145.368C98.7189 145.838 98.5603 146.321 98.3424 146.695C98.1453 147.033 97.8144 147.424 97.4035 147.672C96.982 147.927 96.4003 148.066 95.8351 147.71C95.1111 147.254 95.1056 146.481 95.2261 145.919C95.2798 145.669 95.3669 145.415 95.4585 145.186C95.4224 145.16 95.389 145.13 95.3595 145.095C95.1827 144.883 95.2114 144.567 95.4235 144.391C95.7757 144.097 96.2374 144.024 96.6145 144.023ZM96.6201 145.023C96.6091 145.048 96.5979 145.073 96.5866 145.098C96.4415 145.418 96.2795 145.776 96.2039 146.128C96.1116 146.559 96.1912 146.753 96.3679 146.864C96.5046 146.95 96.6618 146.952 96.8864 146.816C97.1217 146.674 97.3442 146.422 97.4783 146.192C97.6279 145.935 97.6936 145.669 97.6723 145.479C97.6625 145.392 97.6358 145.331 97.6005 145.287C97.5662 145.244 97.5029 145.19 97.3764 145.148C97.1685 145.079 96.8869 145.024 96.6201 145.023Z" fill="white"/>
<path fill-rule="evenodd" clip-rule="evenodd" d="M85.2885 136.248C85.3028 136.37 85.3176 136.491 85.3322 136.61C85.3542 136.791 85.3758 136.968 85.395 137.141C85.4255 137.415 85.6727 137.613 85.9472 137.582C86.2216 137.552 86.4194 137.305 86.3889 137.03C86.367 136.833 86.3435 136.641 86.3205 136.451C86.2526 135.895 86.1881 135.366 86.1766 134.826C86.1767 134.826 86.1766 134.824 86.1766 134.82L86.1768 134.802C86.1769 134.787 86.1773 134.768 86.1778 134.745C86.1789 134.699 86.1806 134.64 86.1828 134.573C86.1867 134.452 86.1919 134.306 86.1969 134.162L86.1987 134.114C86.2043 133.956 86.2096 133.803 86.2127 133.697C86.2142 133.645 86.2153 133.599 86.2154 133.567C86.2154 133.567 86.2154 133.567 86.2154 133.566C86.2155 133.56 86.2158 133.522 86.2119 133.487C86.2111 133.479 86.2094 133.465 86.206 133.447L86.2059 133.446C86.2038 133.435 86.1953 133.39 86.1721 133.338C86.1613 133.313 86.1317 133.25 86.0697 133.187C86.0005 133.118 85.8557 133.018 85.6537 133.043C85.4771 133.065 85.3737 133.169 85.3377 133.21C85.2961 133.258 85.2733 133.303 85.2638 133.322C85.2436 133.364 85.234 133.399 85.2313 133.41C85.2271 133.425 85.2245 133.437 85.2231 133.445C85.2203 133.459 85.2185 133.471 85.2177 133.477C85.1348 134.078 84.8946 134.717 84.6371 135.336C84.5927 135.443 84.5341 135.565 84.4679 135.675C84.4344 135.73 84.4028 135.776 84.3743 135.812C84.2718 135.631 84.2008 135.416 84.1361 135.159C84.1147 135.074 84.0914 134.972 84.0666 134.863C84.0259 134.685 83.9815 134.49 83.9356 134.328C83.936 134.33 83.8779 134.069 83.8125 133.895C83.7764 133.799 83.7181 133.667 83.6234 133.553C83.5267 133.436 83.333 133.273 83.047 133.296C82.8733 133.31 82.7616 133.404 82.7135 133.452C82.6615 133.504 82.6287 133.557 82.6105 133.59C82.5731 133.657 82.5469 133.729 82.5288 133.785C82.4905 133.902 82.4549 134.053 82.4222 134.211C82.3556 134.532 82.2873 134.952 82.2253 135.359C82.1891 135.597 82.1533 135.841 82.1212 136.061C82.099 136.213 82.0785 136.354 82.0606 136.472C82.038 136.623 82.0194 136.741 82.0053 136.818C82.0031 136.83 82.0011 136.841 81.9994 136.85C81.9083 137.074 81.9916 137.337 82.2057 137.466C82.3253 137.538 82.4721 137.558 82.6105 137.515C82.7267 137.48 82.7985 137.412 82.8301 137.379C82.8901 137.315 82.9188 137.25 82.9258 137.234L82.9262 137.233C82.9458 137.189 82.9566 137.148 82.9607 137.132C82.9714 137.091 82.9809 137.042 82.9891 136.997C83.0063 136.903 83.0269 136.771 83.0495 136.621C83.069 136.491 83.0899 136.348 83.1121 136.196C83.1413 135.996 83.1729 135.78 83.2068 135.556C83.2754 135.803 83.3669 136.065 83.5088 136.313C83.6515 136.563 83.8625 136.804 84.1766 136.876C84.5057 136.951 84.7735 136.802 84.9359 136.666C85.0725 136.552 85.1904 136.402 85.2885 136.248ZM84.2779 135.911C84.2779 135.911 84.2783 135.911 84.2789 135.911L84.2779 135.911ZM85.2153 133.555C85.2154 133.555 85.2154 133.556 85.2154 133.559L85.2153 133.555Z" fill="white"/>
<path fill-rule="evenodd" clip-rule="evenodd" d="M100.587 136.248C100.602 136.37 100.616 136.491 100.631 136.61C100.653 136.791 100.675 136.968 100.694 137.141C100.724 137.415 100.972 137.613 101.246 137.582C101.52 137.552 101.718 137.305 101.688 137.03C101.666 136.833 101.642 136.641 101.619 136.451C101.551 135.895 101.487 135.366 101.475 134.826C101.475 134.826 101.475 134.824 101.475 134.82L101.476 134.802C101.476 134.787 101.476 134.768 101.477 134.745C101.478 134.699 101.479 134.64 101.482 134.573C101.486 134.452 101.491 134.306 101.496 134.162L101.498 134.114C101.503 133.956 101.508 133.803 101.511 133.697C101.513 133.645 101.514 133.599 101.514 133.567C101.514 133.567 101.514 133.567 101.514 133.566C101.514 133.56 101.515 133.522 101.511 133.487C101.51 133.479 101.508 133.465 101.505 133.447L101.505 133.446C101.503 133.435 101.494 133.39 101.471 133.338C101.46 133.313 101.431 133.25 101.368 133.187C101.299 133.118 101.154 133.018 100.953 133.043C100.776 133.065 100.672 133.169 100.637 133.21C100.595 133.258 100.572 133.303 100.563 133.322C100.542 133.364 100.533 133.399 100.53 133.41C100.526 133.425 100.523 133.437 100.522 133.445C100.519 133.459 100.517 133.471 100.517 133.477C100.434 134.078 100.193 134.717 99.9359 135.336C99.8915 135.443 99.833 135.565 99.7667 135.675C99.7333 135.73 99.7017 135.776 99.6732 135.812C99.5706 135.631 99.4996 135.416 99.4349 135.159C99.4135 135.074 99.3902 134.972 99.3654 134.863C99.3248 134.685 99.2803 134.49 99.2344 134.328C99.2348 134.33 99.1768 134.069 99.1113 133.895C99.0753 133.799 99.0169 133.667 98.9222 133.553C98.8255 133.436 98.6319 133.273 98.3458 133.296C98.1721 133.31 98.0605 133.404 98.0123 133.452C97.9604 133.504 97.9276 133.557 97.9093 133.59C97.8719 133.657 97.8458 133.729 97.8276 133.785C97.7894 133.902 97.7538 134.053 97.721 134.211C97.6544 134.532 97.5862 134.952 97.5241 135.359C97.4879 135.597 97.4522 135.841 97.42 136.061C97.3978 136.213 97.3773 136.354 97.3595 136.472C97.3368 136.623 97.3182 136.741 97.3041 136.818C97.3019 136.83 97.3 136.841 97.2982 136.85C97.2071 137.074 97.2904 137.337 97.5045 137.466C97.6241 137.538 97.7709 137.558 97.9093 137.515C98.0255 137.48 98.0973 137.412 98.1289 137.379C98.1889 137.315 98.2176 137.25 98.2246 137.234L98.225 137.233C98.2446 137.189 98.2554 137.148 98.2595 137.132C98.2702 137.091 98.2797 137.042 98.2879 136.997C98.3051 136.903 98.3258 136.771 98.3484 136.621C98.3679 136.491 98.3887 136.348 98.411 136.196C98.4402 135.996 98.4717 135.78 98.5056 135.556C98.5742 135.803 98.6658 136.065 98.8076 136.313C98.9503 136.563 99.1613 136.804 99.4755 136.876C99.8045 136.951 100.072 136.802 100.235 136.666C100.371 136.552 100.489 136.402 100.587 136.248ZM99.5767 135.911C99.5767 135.911 99.5771 135.911 99.5778 135.911L99.5767 135.911ZM100.514 133.555C100.514 133.555 100.514 133.556 100.514 133.559L100.514 133.555Z" fill="white"/>
<path fill-rule="evenodd" clip-rule="evenodd" d="M130.968 136.248C130.983 136.37 130.997 136.491 131.012 136.61C131.034 136.791 131.055 136.968 131.075 137.141C131.105 137.415 131.352 137.613 131.627 137.582C131.901 137.552 132.099 137.305 132.069 137.03C132.047 136.833 132.023 136.641 132 136.451C131.932 135.895 131.868 135.366 131.856 134.826C131.856 134.826 131.856 134.824 131.856 134.82L131.856 134.802C131.857 134.787 131.857 134.768 131.858 134.745C131.859 134.699 131.86 134.64 131.862 134.573C131.866 134.452 131.872 134.306 131.877 134.162L131.878 134.114C131.884 133.956 131.889 133.803 131.892 133.697C131.894 133.645 131.895 133.599 131.895 133.567C131.895 133.567 131.895 133.567 131.895 133.566C131.895 133.56 131.896 133.522 131.892 133.487C131.891 133.479 131.889 133.465 131.886 133.447L131.886 133.446C131.883 133.435 131.875 133.39 131.852 133.338C131.841 133.313 131.811 133.25 131.749 133.187C131.68 133.118 131.535 133.018 131.333 133.043C131.157 133.065 131.053 133.169 131.017 133.21C130.976 133.258 130.953 133.303 130.943 133.322C130.923 133.364 130.914 133.399 130.911 133.41C130.907 133.425 130.904 133.437 130.903 133.445C130.9 133.459 130.898 133.471 130.897 133.477C130.815 134.078 130.574 134.717 130.317 135.336C130.272 135.443 130.214 135.565 130.148 135.675C130.114 135.73 130.083 135.776 130.054 135.812C129.951 135.631 129.88 135.416 129.816 135.159C129.794 135.074 129.771 134.972 129.746 134.863C129.706 134.685 129.661 134.49 129.615 134.328C129.616 134.33 129.558 134.069 129.492 133.895C129.456 133.799 129.398 133.667 129.303 133.553C129.206 133.436 129.013 133.273 128.727 133.296C128.553 133.31 128.441 133.404 128.393 133.452C128.341 133.504 128.308 133.557 128.29 133.59C128.253 133.657 128.227 133.729 128.208 133.785C128.17 133.902 128.135 134.053 128.102 134.211C128.035 134.532 127.967 134.952 127.905 135.359C127.869 135.597 127.833 135.841 127.801 136.061C127.779 136.213 127.758 136.354 127.74 136.472C127.718 136.623 127.699 136.741 127.685 136.818C127.683 136.83 127.681 136.841 127.679 136.85C127.588 137.074 127.671 137.337 127.885 137.466C128.005 137.538 128.152 137.558 128.29 137.515C128.406 137.48 128.478 137.412 128.51 137.379C128.57 137.315 128.598 137.25 128.605 137.234L128.606 137.233C128.625 137.189 128.636 137.148 128.64 137.132C128.651 137.091 128.661 137.042 128.669 136.997C128.686 136.903 128.707 136.771 128.729 136.621C128.749 136.491 128.77 136.348 128.792 136.196C128.821 135.996 128.853 135.78 128.886 135.556C128.955 135.803 129.047 136.065 129.188 136.313C129.331 136.563 129.542 136.804 129.856 136.876C130.185 136.951 130.453 136.802 130.616 136.666C130.752 136.552 130.87 136.402 130.968 136.248ZM129.958 135.911C129.958 135.911 129.958 135.911 129.959 135.911L129.958 135.911ZM130.895 133.555C130.895 133.555 130.895 133.556 130.895 133.559L130.895 133.555Z" fill="white"/>
<path fill-rule="evenodd" clip-rule="evenodd" d="M116.302 146.538C116.317 146.66 116.331 146.781 116.346 146.9C116.368 147.08 116.389 147.257 116.409 147.43C116.439 147.705 116.686 147.902 116.961 147.872C117.235 147.841 117.433 147.594 117.403 147.32C117.381 147.123 117.357 146.93 117.334 146.741C117.266 146.185 117.202 145.656 117.19 145.115C117.19 145.116 117.19 145.114 117.19 145.109L117.19 145.092C117.191 145.077 117.191 145.058 117.192 145.035C117.193 144.989 117.194 144.93 117.196 144.862C117.2 144.741 117.206 144.595 117.211 144.452L117.212 144.403C117.218 144.245 117.223 144.093 117.226 143.986C117.228 143.934 117.229 143.888 117.229 143.857C117.229 143.857 117.229 143.856 117.229 143.856C117.229 143.849 117.23 143.812 117.226 143.776C117.225 143.768 117.223 143.754 117.22 143.736L117.22 143.736C117.217 143.725 117.209 143.68 117.186 143.627C117.175 143.603 117.145 143.539 117.083 143.477C117.014 143.407 116.869 143.308 116.667 143.332C116.491 143.354 116.387 143.459 116.351 143.5C116.31 143.548 116.287 143.592 116.277 143.612C116.257 143.654 116.248 143.689 116.245 143.699C116.241 143.714 116.238 143.727 116.237 143.734C116.234 143.749 116.232 143.76 116.231 143.766C116.148 144.367 115.908 145.006 115.651 145.626C115.606 145.733 115.548 145.855 115.482 145.964C115.448 146.019 115.416 146.065 115.388 146.102C115.285 145.921 115.214 145.706 115.15 145.449C115.128 145.364 115.105 145.262 115.08 145.153C115.04 144.975 114.995 144.78 114.949 144.618C114.95 144.619 114.892 144.358 114.826 144.185C114.79 144.089 114.732 143.957 114.637 143.843C114.54 143.726 114.347 143.563 114.061 143.585C113.887 143.599 113.775 143.693 113.727 143.741C113.675 143.794 113.642 143.847 113.624 143.88C113.587 143.947 113.561 144.019 113.542 144.074C113.504 144.192 113.469 144.342 113.436 144.501C113.369 144.822 113.301 145.241 113.239 145.648C113.203 145.886 113.167 146.131 113.135 146.351C113.113 146.503 113.092 146.643 113.074 146.762C113.052 146.912 113.033 147.03 113.019 147.108C113.017 147.12 113.015 147.13 113.013 147.139C112.922 147.363 113.005 147.627 113.219 147.755C113.339 147.827 113.486 147.847 113.624 147.805C113.74 147.769 113.812 147.702 113.844 147.668C113.904 147.604 113.932 147.539 113.939 147.524L113.94 147.523C113.959 147.478 113.97 147.437 113.974 147.422C113.985 147.381 113.995 147.332 114.003 147.287C114.02 147.193 114.041 147.061 114.063 146.91C114.083 146.781 114.104 146.638 114.126 146.485C114.155 146.285 114.187 146.069 114.22 145.846C114.289 146.092 114.381 146.354 114.522 146.603C114.665 146.852 114.876 147.094 115.19 147.165C115.519 147.24 115.787 147.091 115.95 146.955C116.086 146.841 116.204 146.691 116.302 146.538ZM115.292 146.201C115.292 146.201 115.292 146.201 115.293 146.2L115.292 146.201ZM116.229 143.844C116.229 143.844 116.229 143.846 116.229 143.849L116.229 143.844Z" fill="white"/>
<path fill-rule="evenodd" clip-rule="evenodd" d="M88.3798 132.775C88.655 132.798 88.8595 133.039 88.8366 133.314C88.8307 133.386 88.8238 133.468 88.8163 133.559C88.7855 133.93 88.7434 134.438 88.7056 134.873C88.9509 134.85 89.2451 134.797 89.5432 134.709C89.8013 134.633 90.0386 134.537 90.227 134.431C90.2596 134.412 90.2897 134.394 90.3174 134.376C90.3928 133.997 90.4918 133.603 90.6337 133.237C90.647 133.203 90.6745 133.141 90.7286 133.078C90.7863 133.012 90.8926 132.925 91.0508 132.905C91.2064 132.885 91.3277 132.94 91.3954 132.984C91.4605 133.027 91.5021 133.075 91.5233 133.102C91.5913 133.188 91.6263 133.288 91.6371 133.319C91.6374 133.32 91.6377 133.321 91.638 133.322C91.6556 133.372 91.67 133.423 91.6801 133.464C91.6863 133.488 91.7024 133.553 91.707 133.61C91.7409 134.035 91.5968 134.389 91.4188 134.677L91.2927 134.599L91.4188 134.677C91.3664 134.762 91.3043 134.84 91.2356 134.912C91.224 134.98 91.2127 135.049 91.2018 135.117C91.1902 135.19 91.1786 135.262 91.167 135.334C91.0632 135.978 90.963 136.601 90.9267 137.22C90.9105 137.495 90.6739 137.706 90.3983 137.69C90.1226 137.674 89.9122 137.437 89.9284 137.161C89.9598 136.626 90.0349 136.091 90.1161 135.573C90.02 135.608 89.9229 135.639 89.826 135.668C89.4174 135.788 88.9698 135.868 88.5811 135.884C88.5593 136.015 88.5345 136.164 88.509 136.315C88.4721 136.534 88.4339 136.758 88.4026 136.936C88.3742 137.098 88.3453 137.258 88.3288 137.32C88.3259 137.33 88.3172 137.357 88.3111 137.374C88.299 137.402 88.2505 137.484 88.2089 137.534C88.081 137.632 87.7141 137.673 87.5238 137.573C87.4529 137.5 87.3807 137.374 87.3666 137.333C87.351 137.281 87.3478 137.236 87.3475 137.232C87.3474 137.232 87.3474 137.232 87.3474 137.232C87.3463 137.219 87.346 137.208 87.3459 137.203C87.3455 137.188 87.3459 137.174 87.346 137.172L87.346 137.171C87.3463 137.162 87.3467 137.153 87.3471 137.146C87.348 137.13 87.3493 137.109 87.351 137.083C87.3545 137.031 87.3599 136.957 87.3671 136.869C87.3814 136.692 87.4032 136.455 87.4315 136.216C87.4594 135.98 87.4954 135.728 87.5404 135.531C87.5618 135.437 87.5914 135.326 87.635 135.23C87.6446 135.209 87.6583 135.181 87.6773 135.149C87.7206 134.671 87.7795 133.961 87.8196 133.478C87.8271 133.387 87.834 133.304 87.8401 133.231C87.863 132.956 88.1046 132.752 88.3798 132.775ZM90.689 133.639C90.689 133.639 90.6903 133.641 90.6926 133.648C90.6901 133.642 90.6889 133.639 90.689 133.639Z" fill="white"/>
<path fill-rule="evenodd" clip-rule="evenodd" d="M95.7123 133.026C95.9692 133.127 96.0952 133.417 95.9938 133.674C95.9347 133.824 95.8694 134.015 95.7911 134.245C95.7591 134.339 95.7249 134.439 95.6881 134.545C95.5655 134.899 95.42 135.301 95.2491 135.685C95.0798 136.065 94.8755 136.451 94.6274 136.761C94.3836 137.066 94.0513 137.356 93.6143 137.434C93.3556 137.479 93.0957 137.447 92.8685 137.306C92.65 137.169 92.5166 136.966 92.4346 136.771C92.2774 136.397 92.2533 135.919 92.2681 135.497C92.2949 134.73 92.4644 133.891 92.5351 133.541C92.5444 133.495 92.5519 133.457 92.5573 133.43C92.6092 133.158 92.8712 132.981 93.1424 133.033C93.4136 133.085 93.5914 133.347 93.5394 133.618C93.5327 133.653 93.524 133.696 93.5137 133.747C93.4407 134.112 93.291 134.858 93.2675 135.531C93.2537 135.926 93.2878 136.22 93.3565 136.383C93.3735 136.424 93.3877 136.444 93.3952 136.453C93.4035 136.453 93.4177 136.453 93.4399 136.449C93.5323 136.433 93.6706 136.356 93.8462 136.137C94.0174 135.923 94.181 135.625 94.3356 135.278C94.4886 134.935 94.6228 134.565 94.7432 134.218C94.7746 134.127 94.8056 134.036 94.8359 133.947C94.918 133.707 94.9953 133.48 95.0637 133.307C95.1651 133.05 95.4555 132.924 95.7123 133.026ZM93.3857 136.452C93.3857 136.452 93.3869 136.452 93.389 136.453C93.3866 136.452 93.3856 136.452 93.3857 136.452Z" fill="white"/>
<path fill-rule="evenodd" clip-rule="evenodd" d="M126.04 133.026C126.297 133.127 126.423 133.417 126.322 133.674C126.263 133.824 126.197 134.015 126.119 134.245C126.087 134.339 126.053 134.439 126.016 134.545C125.894 134.899 125.748 135.301 125.577 135.685C125.408 136.065 125.204 136.451 124.955 136.761C124.712 137.066 124.379 137.356 123.942 137.434C123.684 137.479 123.424 137.447 123.197 137.306C122.978 137.169 122.845 136.966 122.763 136.771C122.605 136.397 122.581 135.919 122.596 135.497C122.623 134.73 122.793 133.891 122.863 133.541C122.872 133.495 122.88 133.457 122.885 133.43C122.937 133.158 123.199 132.981 123.471 133.033C123.742 133.085 123.919 133.347 123.868 133.618C123.861 133.653 123.852 133.696 123.842 133.747C123.769 134.112 123.619 134.858 123.596 135.531C123.582 135.926 123.616 136.22 123.685 136.383C123.702 136.424 123.716 136.444 123.723 136.453C123.732 136.453 123.746 136.453 123.768 136.449C123.86 136.433 123.999 136.356 124.174 136.137C124.346 135.923 124.509 135.625 124.664 135.278C124.817 134.935 124.951 134.565 125.071 134.218C125.103 134.127 125.134 134.036 125.164 133.947C125.246 133.707 125.323 133.48 125.392 133.307C125.493 133.05 125.784 132.924 126.04 133.026ZM123.714 136.452C123.714 136.452 123.715 136.452 123.717 136.453C123.715 136.452 123.714 136.452 123.714 136.452Z" fill="white"/>
<path fill-rule="evenodd" clip-rule="evenodd" d="M111.372 143.315C111.629 143.417 111.755 143.707 111.654 143.964C111.595 144.113 111.53 144.305 111.451 144.535C111.419 144.628 111.385 144.728 111.348 144.835C111.226 145.189 111.08 145.591 110.909 145.975C110.74 146.355 110.536 146.74 110.288 147.051C110.044 147.356 109.711 147.646 109.274 147.723C109.016 147.769 108.756 147.737 108.529 147.595C108.31 147.459 108.177 147.255 108.095 147.06C107.938 146.686 107.913 146.209 107.928 145.786C107.955 145.02 108.125 144.18 108.195 143.83C108.205 143.784 108.212 143.747 108.217 143.719C108.269 143.448 108.531 143.27 108.803 143.322C109.074 143.374 109.252 143.636 109.2 143.907C109.193 143.942 109.184 143.986 109.174 144.037C109.101 144.401 108.951 145.147 108.928 145.821C108.914 146.216 108.948 146.509 109.017 146.673C109.034 146.713 109.048 146.734 109.055 146.743C109.064 146.743 109.078 146.742 109.1 146.738C109.192 146.722 109.331 146.646 109.506 146.426C109.678 146.212 109.841 145.915 109.996 145.568C110.149 145.224 110.283 144.855 110.403 144.507C110.435 144.417 110.466 144.326 110.496 144.237C110.578 143.996 110.655 143.77 110.724 143.597C110.825 143.34 111.116 143.214 111.372 143.315ZM109.046 146.741C109.046 146.741 109.047 146.741 109.049 146.742C109.047 146.742 109.046 146.742 109.046 146.741Z" fill="white"/>
<path fill-rule="evenodd" clip-rule="evenodd" d="M95.6927 133.019C95.9532 133.111 96.0899 133.396 95.9982 133.657C95.759 134.336 95.6785 135.035 95.7587 135.619C95.8395 136.208 96.0721 136.622 96.4004 136.84C96.6307 136.992 96.6939 137.302 96.5415 137.533C96.3891 137.763 96.0789 137.826 95.8486 137.674C95.2002 137.245 94.8726 136.517 94.768 135.755C94.6628 134.989 94.7717 134.128 95.055 133.324C95.1467 133.064 95.4323 132.927 95.6927 133.019Z" fill="white"/>
<path fill-rule="evenodd" clip-rule="evenodd" d="M126.021 133.019C126.281 133.111 126.418 133.396 126.326 133.657C126.087 134.336 126.007 135.035 126.087 135.619C126.168 136.208 126.4 136.622 126.729 136.84C126.959 136.992 127.022 137.302 126.87 137.533C126.717 137.763 126.407 137.826 126.177 137.674C125.528 137.245 125.201 136.517 125.096 135.755C124.991 134.989 125.1 134.128 125.383 133.324C125.475 133.064 125.76 132.927 126.021 133.019Z" fill="white"/>
<path fill-rule="evenodd" clip-rule="evenodd" d="M111.355 143.308C111.615 143.4 111.752 143.686 111.66 143.946C111.421 144.625 111.341 145.324 111.421 145.909C111.502 146.498 111.734 146.912 112.062 147.129C112.293 147.282 112.356 147.592 112.204 147.822C112.051 148.052 111.741 148.116 111.511 147.963C110.862 147.534 110.535 146.807 110.43 146.045C110.325 145.279 110.434 144.418 110.717 143.614C110.809 143.353 111.094 143.217 111.355 143.308Z" fill="white"/>
<path fill-rule="evenodd" clip-rule="evenodd" d="M103.524 136.69C103.8 136.69 104.024 136.914 104.024 137.19H103.524C104.024 137.19 104.024 137.19 104.024 137.19L104.024 137.191L104.024 137.193L104.024 137.197L104.024 137.21C104.023 137.221 104.023 137.235 104.022 137.253C104.021 137.289 104.019 137.339 104.014 137.4C104.005 137.521 103.986 137.689 103.949 137.877C103.877 138.234 103.722 138.747 103.354 139.115C103.158 139.31 102.842 139.31 102.646 139.115C102.451 138.92 102.451 138.603 102.646 138.408C102.802 138.252 102.908 137.979 102.968 137.681C102.996 137.542 103.01 137.415 103.017 137.323C103.021 137.278 103.022 137.242 103.023 137.219L103.024 137.194L103.024 137.189C103.024 136.913 103.248 136.69 103.524 136.69Z" fill="white"/>
<path fill-rule="evenodd" clip-rule="evenodd" d="M110.544 132.546C110.794 132.662 110.903 132.959 110.787 133.21C110.666 133.472 110.505 133.744 110.336 134.019C110.287 134.099 110.238 134.179 110.187 134.26C110.059 134.468 109.925 134.684 109.786 134.922C109.405 135.572 109.01 136.348 108.718 137.332C108.639 137.597 108.361 137.748 108.096 137.669C107.831 137.591 107.68 137.313 107.759 137.048C108.082 135.961 108.517 135.11 108.923 134.417C109.068 134.168 109.213 133.934 109.344 133.723C109.393 133.644 109.439 133.569 109.484 133.496C109.652 133.222 109.785 132.995 109.88 132.79C109.996 132.539 110.293 132.43 110.544 132.546Z" fill="white"/>
<path fill-rule="evenodd" clip-rule="evenodd" d="M110.243 132.508C110.515 132.458 110.776 132.637 110.826 132.909C110.93 133.476 111.106 134.042 111.291 134.642C111.322 134.741 111.353 134.842 111.384 134.943C111.598 135.641 111.811 136.385 111.88 137.145C111.905 137.42 111.702 137.663 111.427 137.688C111.152 137.713 110.909 137.51 110.884 137.235C110.825 136.588 110.642 135.933 110.428 135.236C110.399 135.14 110.369 135.044 110.339 134.946C110.154 134.349 109.959 133.72 109.842 133.09C109.792 132.819 109.972 132.558 110.243 132.508Z" fill="white"/>
<path fill-rule="evenodd" clip-rule="evenodd" d="M117.187 133.456C117.539 133.9 117.643 134.533 117.643 135.095C117.643 135.756 117.326 136.523 116.868 137.057C116.417 137.583 115.657 138.054 114.824 137.638C114.401 137.426 114.178 137.051 114.069 136.683C113.963 136.323 113.952 135.931 113.973 135.594C113.974 135.586 113.974 135.578 113.975 135.569C113.922 135.573 113.87 135.576 113.824 135.579L113.813 135.58C113.774 135.582 113.738 135.584 113.705 135.587C113.7 135.593 113.694 135.601 113.687 135.611C113.677 135.704 113.667 135.795 113.657 135.884C113.612 136.292 113.566 136.668 113.528 136.93C113.509 137.057 113.49 137.173 113.471 137.254C113.466 137.275 113.46 137.301 113.451 137.327L113.451 137.327C113.446 137.344 113.429 137.399 113.394 137.456C113.38 137.48 113.332 137.557 113.24 137.618C113.117 137.701 112.915 137.749 112.719 137.642C112.578 137.565 112.52 137.447 112.505 137.416C112.483 137.37 112.472 137.33 112.467 137.31C112.42 137.118 112.413 136.872 112.425 136.64C112.438 136.398 112.474 136.126 112.534 135.866C112.576 135.685 112.634 135.495 112.713 135.319C112.785 134.63 112.85 133.92 112.877 133.528C112.895 133.252 113.134 133.044 113.409 133.062C113.685 133.081 113.893 133.319 113.874 133.595C113.858 133.837 113.828 134.188 113.791 134.579C113.839 134.576 113.882 134.574 113.924 134.57C114.032 134.561 114.1 134.549 114.145 134.534C114.155 134.494 114.165 134.458 114.173 134.428C114.177 134.413 114.181 134.4 114.184 134.388C114.176 134.313 114.185 134.235 114.213 134.16C114.314 133.885 114.465 133.651 114.679 133.46C114.889 133.272 115.138 133.144 115.409 133.051C115.763 132.929 116.105 132.892 116.422 132.965C116.746 133.04 117.001 133.22 117.187 133.456ZM115.18 134.436C115.226 134.335 115.282 134.262 115.346 134.204C115.429 134.13 115.548 134.06 115.734 133.996C115.964 133.917 116.11 133.92 116.197 133.94C116.277 133.958 116.342 133.999 116.403 134.076C116.545 134.255 116.643 134.609 116.643 135.095C116.643 135.482 116.436 136.024 116.109 136.407C115.774 136.798 115.487 136.851 115.272 136.743C115.171 136.693 115.086 136.595 115.028 136.399C114.968 136.198 114.953 135.938 114.971 135.658C114.988 135.397 115.031 135.146 115.073 134.953C115.138 134.815 115.171 134.662 115.181 134.503C115.181 134.491 115.181 134.46 115.18 134.442C115.18 134.44 115.18 134.438 115.18 134.436ZM113.724 135.565C113.724 135.565 113.723 135.566 113.72 135.568C113.723 135.566 113.724 135.565 113.724 135.565Z" fill="white"/>
<path fill-rule="evenodd" clip-rule="evenodd" d="M122.852 131.942C122.857 132.218 122.638 132.447 122.362 132.452C121.465 132.47 120.658 132.555 119.809 132.777C119.751 132.792 119.666 132.808 119.595 132.822C119.571 132.827 119.548 132.831 119.529 132.835C119.44 132.852 119.358 132.871 119.285 132.894C119.311 132.927 119.344 132.964 119.383 133.005C119.485 133.11 119.587 133.195 119.692 133.283C119.745 133.327 119.798 133.371 119.853 133.419C119.937 133.493 120.027 133.57 120.12 133.649C120.544 134.009 121.037 134.427 121.386 134.964C121.548 135.214 121.709 135.549 121.755 135.91C121.803 136.288 121.723 136.719 121.367 137.058C120.809 137.591 119.941 137.746 119.242 137.503C118.783 137.343 118.528 136.999 118.437 136.615C118.353 136.261 118.408 135.891 118.497 135.595C118.625 135.171 118.852 134.868 119.182 134.671C119.306 134.596 119.439 134.541 119.574 134.499C119.555 134.483 119.536 134.467 119.517 134.451C119.413 134.361 119.304 134.269 119.192 134.17C119.17 134.15 119.138 134.123 119.099 134.091C118.982 133.993 118.806 133.846 118.665 133.701C118.49 133.52 118.22 133.2 118.215 132.795C118.211 132.509 118.36 132.303 118.514 132.177C118.656 132.061 118.823 131.993 118.952 131.95C119.088 131.906 119.226 131.876 119.333 131.854C119.381 131.845 119.419 131.837 119.45 131.831C119.5 131.822 119.531 131.816 119.556 131.809C120.501 131.562 121.39 131.471 122.342 131.452C122.618 131.447 122.846 131.666 122.852 131.942ZM120.418 135.327C120.38 135.344 120.34 135.356 120.297 135.362C119.989 135.411 119.813 135.458 119.695 135.529C119.606 135.582 119.52 135.665 119.455 135.883C119.393 136.088 119.382 136.266 119.41 136.384C119.423 136.437 119.441 136.469 119.459 136.49C119.476 136.509 119.506 136.536 119.571 136.558C119.939 136.686 120.407 136.592 120.677 136.335C120.75 136.265 120.781 136.179 120.763 136.035C120.743 135.876 120.662 135.685 120.547 135.508C120.506 135.446 120.463 135.386 120.418 135.327Z" fill="white"/>
<path fill-rule="evenodd" clip-rule="evenodd" d="M133.712 136.782C133.937 136.942 133.99 137.254 133.83 137.48C133.468 137.989 133.105 138.498 132.74 139.005C132.579 139.229 132.267 139.281 132.042 139.12C131.818 138.959 131.767 138.646 131.928 138.422C132.291 137.915 132.654 137.408 133.015 136.9C133.174 136.675 133.487 136.622 133.712 136.782Z" fill="white"/>
<path fill-rule="evenodd" clip-rule="evenodd" d="M87.9186 143.79C88.3503 143.746 88.7881 143.867 89.1692 144.191C89.3796 144.37 89.4052 144.686 89.2263 144.896C89.0475 145.106 88.7319 145.132 88.5215 144.953C88.3499 144.807 88.1828 144.768 88.0186 144.785C87.8401 144.803 87.6347 144.891 87.4297 145.053C87.0008 145.394 86.7311 145.926 86.7384 146.299C86.7502 146.897 87.0929 147.354 87.6297 147.475C87.7512 147.502 87.9346 147.483 88.1617 147.397C88.3818 147.313 88.5937 147.183 88.7464 147.058C88.9601 146.883 89.2751 146.915 89.45 147.128C89.6248 147.342 89.5933 147.657 89.3796 147.832C89.1507 148.019 88.8466 148.206 88.5184 148.331C88.1971 148.454 87.7999 148.538 87.4107 148.45C86.3583 148.214 85.7581 147.306 85.7386 146.318C85.7236 145.554 86.2046 144.749 86.8084 144.27C87.1198 144.023 87.5012 143.832 87.9186 143.79Z" fill="white"/>
<path fill-rule="evenodd" clip-rule="evenodd" d="M91.5739 143.509C91.8447 143.563 92.0203 143.827 91.9661 144.098C91.7848 145.004 91.8148 146.012 91.896 146.801C91.9363 147.193 91.9883 147.522 92.0297 147.748C92.0505 147.861 92.0683 147.946 92.0802 147.999L92.0857 148.022C92.1044 148.075 92.1146 148.131 92.1146 148.19C92.1146 148.19 92.1146 148.191 92.1146 148.191C92.1146 148.201 92.1149 148.257 92.0966 148.324L92.0966 148.324C92.0896 148.349 92.0594 148.459 91.9573 148.555C91.9047 148.598 91.774 148.665 91.6971 148.685C91.6204 148.691 91.4821 148.674 91.4227 148.653C91.3055 148.605 91.2412 148.525 91.2254 148.506C91.2006 148.475 91.1849 148.448 91.1774 148.435C91.162 148.408 91.1526 148.384 91.1492 148.376C91.1369 148.346 91.1291 148.317 91.127 148.31L91.1268 148.309C91.12 148.284 91.1125 148.253 91.105 148.22C91.0895 148.152 91.0689 148.053 91.0462 147.929C91.0005 147.68 90.9446 147.324 90.9013 146.904C90.8155 146.07 90.7761 144.949 90.9856 143.902C91.0397 143.631 91.3031 143.455 91.5739 143.509ZM91.1155 148.16C91.1145 148.175 91.1145 148.186 91.1146 148.189C91.1146 148.19 91.1146 148.19 91.1146 148.19C91.1146 148.18 91.1149 148.17 91.1155 148.16Z" fill="white"/>
<path fill-rule="evenodd" clip-rule="evenodd" d="M94.2042 144.098C94.3936 144.299 94.3844 144.616 94.1835 144.805C94.0635 144.918 93.8697 145.096 93.6549 145.292C93.4639 145.467 93.2563 145.657 93.0692 145.831C92.9549 145.937 92.8473 146.038 92.7528 146.128C92.9391 146.308 93.0972 146.506 93.2297 146.671C93.2504 146.697 93.2704 146.722 93.2898 146.746C93.5822 147.108 93.7678 147.3 93.955 147.362C94.217 147.45 94.3586 147.733 94.2712 147.995C94.1839 148.257 93.9008 148.398 93.6388 148.311C93.1308 148.142 92.7715 147.696 92.5196 147.384L92.5056 147.367C92.2096 147 92.0113 146.754 91.7833 146.637C91.6639 146.575 91.5744 146.469 91.5338 146.342C91.4987 146.232 91.5098 146.139 91.5189 146.091C91.5363 146 91.5748 145.935 91.5856 145.917C91.6154 145.867 91.6509 145.824 91.6712 145.8C91.7185 145.744 91.7828 145.678 91.8508 145.61C91.9903 145.471 92.1841 145.288 92.389 145.098C92.5904 144.911 92.8006 144.718 92.9901 144.545C93.1965 144.356 93.3783 144.19 93.4974 144.078C93.6982 143.888 94.0147 143.897 94.2042 144.098Z" fill="white"/>
<path fill-rule="evenodd" clip-rule="evenodd" d="M99.7757 143.593C100.052 143.599 100.271 143.827 100.266 144.103C100.252 144.872 100.258 145.632 100.29 146.399C100.312 146.926 100.288 147.462 100.161 148.008C99.9837 148.771 99.6668 149.485 99.3731 150.147C99.3371 150.229 99.3014 150.309 99.2664 150.389C99.1552 150.641 98.8601 150.756 98.6074 150.645C98.3546 150.534 98.2398 150.239 98.3511 149.986C98.3869 149.904 98.4225 149.824 98.4579 149.744C98.7561 149.071 99.0327 148.446 99.1875 147.781C99.2877 147.351 99.3107 146.911 99.2909 146.441C99.2579 145.652 99.2516 144.872 99.2664 144.084C99.2716 143.808 99.4996 143.588 99.7757 143.593Z" fill="white"/>
<path fill-rule="evenodd" clip-rule="evenodd" d="M101.262 144.849C100.819 144.802 100.447 144.986 100.305 145.271C100.181 145.518 99.8809 145.618 99.6339 145.494C99.3869 145.371 99.2868 145.071 99.4103 144.824C99.7934 144.057 100.645 143.778 101.368 143.854C102.105 143.933 102.881 144.398 103.089 145.307C103.347 146.433 102.741 147.303 102.009 147.785C101.643 148.026 101.226 148.186 100.823 148.252C100.427 148.316 99.9961 148.295 99.6339 148.113C99.3869 147.99 99.2868 147.69 99.4103 147.443C99.5338 147.196 99.8341 147.096 100.081 147.219C100.195 147.276 100.394 147.308 100.663 147.265C100.925 147.222 101.209 147.114 101.459 146.95C101.96 146.62 102.251 146.128 102.114 145.53C102.025 145.14 101.691 144.894 101.262 144.849Z" fill="white"/>
<path fill-rule="evenodd" clip-rule="evenodd" d="M107.806 142.403C107.82 142.679 107.607 142.914 107.331 142.928C106.566 142.966 105.771 143.064 105.091 143.296C104.954 143.342 104.768 143.41 104.629 143.497C104.611 143.508 104.596 143.519 104.583 143.528C104.586 143.532 104.589 143.535 104.593 143.539C104.639 143.592 104.712 143.652 104.813 143.718C104.96 143.814 105.104 143.886 105.247 143.957C105.316 143.991 105.384 144.025 105.453 144.062C105.545 144.111 105.649 144.16 105.771 144.218C105.813 144.238 105.857 144.259 105.904 144.281C106.078 144.364 106.274 144.461 106.462 144.576C106.824 144.797 107.253 145.14 107.388 145.689C107.6 146.55 107.014 147.313 106.404 147.68C105.783 148.054 104.816 148.198 104.196 147.415C103.799 146.913 103.672 146.225 103.739 145.655C103.797 145.153 104.117 144.836 104.385 144.629C104.344 144.605 104.303 144.58 104.265 144.554C104.015 144.391 103.634 144.094 103.558 143.631C103.471 143.099 103.895 142.777 104.099 142.649C104.347 142.494 104.633 142.395 104.768 142.349C105.577 142.073 106.479 141.969 107.281 141.929C107.557 141.915 107.792 142.127 107.806 142.403ZM105.78 145.338C105.766 145.346 105.753 145.353 105.738 145.36C105.551 145.45 105.337 145.413 105.19 145.284C105.173 145.294 105.154 145.306 105.137 145.318C104.835 145.53 104.747 145.64 104.732 145.77C104.689 146.141 104.783 146.546 104.98 146.795C105.153 147.012 105.481 147.069 105.888 146.823C106.306 146.572 106.481 146.187 106.417 145.928C106.379 145.775 106.242 145.613 105.942 145.43C105.89 145.398 105.836 145.368 105.78 145.338Z" fill="white"/>
<path fill-rule="evenodd" clip-rule="evenodd" d="M79.9527 106.31C80.2288 106.31 80.4527 106.533 80.4527 106.81V114.143H79.4527V108.956C78.9709 109.286 78.3927 109.405 77.8574 109.405V108.405C78.3069 108.405 78.7029 108.291 78.9778 108.062C79.2367 107.847 79.4527 107.475 79.4527 106.81C79.4527 106.533 79.6765 106.31 79.9527 106.31Z" fill="white"/>
<path fill-rule="evenodd" clip-rule="evenodd" d="M97.0578 107.192C97.4923 107.73 97.7414 108.507 97.7414 109.503C97.7414 111.573 97.1952 112.793 96.2925 113.458C95.4234 114.098 94.3449 114.119 93.5721 114.119V113.119C94.3707 113.119 95.1268 113.075 95.6996 112.653C95.976 112.449 96.2428 112.13 96.4372 111.609C96.1049 111.756 95.7403 111.819 95.3797 111.8C94.7969 111.768 94.2119 111.517 93.7747 111.031C93.3353 110.542 93.074 109.848 93.0747 108.979C93.076 107.416 94.1946 106.384 95.4089 106.384C96.0173 106.384 96.6187 106.648 97.0578 107.192ZM96.7414 109.503C96.7414 109.974 96.5677 110.296 96.3369 110.5C96.0986 110.711 95.7716 110.82 95.4344 110.801C95.1003 110.783 94.7684 110.64 94.5184 110.362C94.2705 110.086 94.0741 109.645 94.0747 108.98C94.0756 107.924 94.7903 107.384 95.4089 107.384C95.7169 107.384 96.0316 107.513 96.2797 107.82C96.5324 108.133 96.7414 108.666 96.7414 109.503Z" fill="white"/>
<path fill-rule="evenodd" clip-rule="evenodd" d="M86.0578 107.192C86.4923 107.73 86.7414 108.507 86.7414 109.503C86.7414 111.573 86.1952 112.793 85.2925 113.458C84.4234 114.098 83.3449 114.119 82.5721 114.119V113.119C83.3707 113.119 84.1268 113.075 84.6996 112.653C84.976 112.449 85.2428 112.13 85.4372 111.609C85.1049 111.756 84.7403 111.819 84.3797 111.8C83.7969 111.768 83.2119 111.517 82.7747 111.031C82.3353 110.542 82.074 109.848 82.0747 108.979C82.076 107.416 83.1946 106.384 84.4089 106.384C85.0173 106.384 85.6187 106.648 86.0578 107.192ZM85.7414 109.503C85.7414 109.974 85.5677 110.296 85.3369 110.5C85.0986 110.711 84.7716 110.82 84.4344 110.801C84.1003 110.783 83.7684 110.64 83.5184 110.362C83.2705 110.086 83.0741 109.645 83.0747 108.98C83.0756 107.924 83.7903 107.384 84.4089 107.384C84.7169 107.384 85.0316 107.513 85.2797 107.82C85.5324 108.133 85.7414 108.666 85.7414 109.503Z" fill="white"/>
<path fill-rule="evenodd" clip-rule="evenodd" d="M91.0145 106.313C91.2651 106.344 91.4534 106.557 91.4534 106.81V111.548H92.001V112.548H91.4541L91.4534 114.143H90.4534V112.548H87.8105C87.5344 112.548 87.3105 112.324 87.3105 112.048C87.3105 111.805 87.4829 111.603 87.7117 111.557C87.7221 111.55 87.7366 111.539 87.7551 111.524C87.8322 111.46 87.938 111.353 88.068 111.2C88.3257 110.897 88.6388 110.46 88.958 109.949C89.6008 108.921 90.2248 107.663 90.4683 106.688C90.5296 106.443 90.7639 106.282 91.0145 106.313ZM89.0716 111.548H90.4534V109.353C90.2456 109.748 90.0247 110.129 89.806 110.479C89.5579 110.876 89.3066 111.242 89.0716 111.548Z" fill="white"/>
<path fill-rule="evenodd" clip-rule="evenodd" d="M106.668 111.5H100.906V110.5H106.668V111.5Z" fill="white"/>
<path fill-rule="evenodd" clip-rule="evenodd" d="M128.954 106.31C129.23 106.31 129.454 106.533 129.454 106.81V114.143H128.454V108.956C127.972 109.286 127.394 109.405 126.859 109.405V108.405C127.308 108.405 127.704 108.291 127.979 108.062C128.238 107.847 128.454 107.475 128.454 106.81C128.454 106.533 128.678 106.31 128.954 106.31Z" fill="white"/>
<path fill-rule="evenodd" clip-rule="evenodd" d="M116.076 108.057C115.815 108.591 115.691 109.378 115.691 110.319C115.691 111.261 115.815 112.047 116.076 112.581C116.203 112.841 116.355 113.024 116.526 113.142C116.692 113.257 116.902 113.329 117.182 113.329C117.462 113.329 117.672 113.257 117.838 113.142C118.008 113.024 118.16 112.841 118.288 112.581C118.549 112.047 118.672 111.261 118.672 110.319C118.672 109.378 118.549 108.591 118.288 108.057C118.16 107.797 118.008 107.614 117.838 107.496C117.672 107.382 117.462 107.31 117.182 107.31C116.902 107.31 116.692 107.382 116.526 107.496C116.355 107.614 116.203 107.797 116.076 108.057ZM115.957 106.674C116.304 106.434 116.716 106.31 117.182 106.31C117.648 106.31 118.06 106.434 118.407 106.674C118.75 106.912 119.003 107.243 119.186 107.618C119.547 108.354 119.672 109.322 119.672 110.319C119.672 111.316 119.547 112.284 119.186 113.021C119.003 113.395 118.75 113.727 118.407 113.964C118.06 114.204 117.648 114.329 117.182 114.329C116.716 114.329 116.304 114.204 115.957 113.964C115.614 113.727 115.361 113.395 115.178 113.021C114.817 112.284 114.691 111.316 114.691 110.319C114.691 109.322 114.817 108.354 115.178 107.618C115.361 107.243 115.614 106.912 115.957 106.674Z" fill="white"/>
<path fill-rule="evenodd" clip-rule="evenodd" d="M122.229 107.821C121.771 108.178 121.455 108.807 121.455 109.429H120.455C120.455 108.5 120.912 107.58 121.614 107.033C122.344 106.464 123.353 106.297 124.326 106.947C124.838 107.289 125.151 107.827 125.31 108.385C125.469 108.945 125.485 109.563 125.371 110.126C125.259 110.684 125.007 111.235 124.584 111.613C124.141 112.009 123.545 112.18 122.862 112.009C122.412 111.896 122.146 111.941 121.99 112.013C121.837 112.082 121.723 112.208 121.637 112.393C121.532 112.617 121.488 112.88 121.469 113.119L125.079 113.119L125.079 114.119L120.955 114.119C120.823 114.119 120.695 114.066 120.602 113.973C120.508 113.879 120.455 113.752 120.455 113.619C120.455 113.604 120.455 113.588 120.455 113.569C120.453 113.291 120.449 112.573 120.731 111.97C120.889 111.63 121.151 111.296 121.575 111.103C121.996 110.911 122.507 110.889 123.105 111.039C123.47 111.13 123.724 111.04 123.918 110.867C124.133 110.675 124.307 110.347 124.391 109.928C124.475 109.514 124.461 109.058 124.348 108.659C124.234 108.258 124.032 107.953 123.77 107.778C123.197 107.395 122.659 107.486 122.229 107.821Z" fill="white"/>
<path fill-rule="evenodd" clip-rule="evenodd" d="M110.561 107.821C110.103 108.178 109.787 108.807 109.787 109.429H108.787C108.787 108.5 109.244 107.58 109.946 107.033C110.676 106.464 111.685 106.297 112.658 106.947C113.17 107.289 113.483 107.827 113.642 108.385C113.801 108.945 113.817 109.563 113.704 110.126C113.591 110.684 113.34 111.235 112.916 111.613C112.473 112.009 111.877 112.18 111.194 112.009C110.744 111.896 110.478 111.941 110.322 112.013C110.169 112.082 110.055 112.208 109.969 112.393C109.864 112.617 109.82 112.88 109.801 113.119L113.411 113.119L113.411 114.119L109.287 114.119C109.155 114.119 109.027 114.066 108.934 113.973C108.84 113.879 108.787 113.752 108.787 113.619C108.787 113.604 108.787 113.588 108.787 113.569C108.785 113.291 108.781 112.573 109.063 111.97C109.221 111.63 109.483 111.296 109.907 111.103C110.328 110.911 110.839 110.889 111.437 111.039C111.802 111.13 112.056 111.04 112.25 110.867C112.465 110.675 112.639 110.347 112.723 109.928C112.807 109.514 112.793 109.058 112.68 108.659C112.566 108.258 112.364 107.953 112.102 107.778C111.529 107.395 110.991 107.486 110.561 107.821Z" fill="white"/>
</svg>
