<svg width="68" height="132" viewBox="0 0 68 132" fill="none" xmlns="http://www.w3.org/2000/svg">
<path fill-rule="evenodd" clip-rule="evenodd" d="M2.18408 114.788C2.18408 114.511 2.40794 114.288 2.68408 114.288H63.1298C63.4059 114.288 63.6298 114.511 63.6298 114.788V131C63.6298 131.276 63.4059 131.5 63.1298 131.5H2.68408C2.40794 131.5 2.18408 131.276 2.18408 131V114.788ZM3.18408 115.288V130.5H62.6298V115.288H3.18408Z" fill="#140E41"/>
<path fill-rule="evenodd" clip-rule="evenodd" d="M47.5204 1C47.5204 0.723858 47.7443 0.5 48.0204 0.5H56.4269C56.703 0.5 56.9269 0.723858 56.9269 1V11.3083H65.734C66.0102 11.3083 66.234 11.5322 66.234 11.8083V19.9145C66.234 20.1907 66.0102 20.4145 65.734 20.4145H56.9269V39.8302H61.2306C61.5067 39.8302 61.7306 40.0541 61.7306 40.3302V44.9341H66.9349C67.0751 44.9341 67.2088 44.993 67.3035 45.0963C67.3982 45.1997 67.4452 45.338 67.433 45.4777C66.5317 55.7924 65.1046 69.194 63.2264 81.994C61.3496 94.7842 59.0177 107.008 56.2995 114.949C56.2302 115.152 56.0401 115.287 55.8264 115.287H10.7289C10.5114 115.287 10.3189 115.147 10.2526 114.94C5.42906 99.8661 -2.86236 58.6058 2.1886 7.85579C2.19837 7.75758 2.23699 7.66446 2.29959 7.58817C2.94321 6.80367 4.02488 6.09994 5.35895 5.50518C6.70373 4.90564 8.34955 4.39724 10.1688 4.02703C13.8054 3.28701 18.1813 3.0899 22.3062 3.85379C28.7842 5.05341 35.3631 8.8529 38.2961 11.3083H47.5204V1ZM48.5204 1.5V11.8083C48.5204 12.0844 48.2966 12.3083 48.0204 12.3083H38.1128C37.9934 12.3083 37.878 12.2656 37.7874 12.1879C35.0411 9.83399 28.5093 6.0195 22.1242 4.83707C18.1429 4.0998 13.8978 4.28871 10.3683 5.00695C8.60447 5.36586 7.0309 5.85466 5.76614 6.41852C4.56793 6.95271 3.68519 7.53742 3.16812 8.11155C-1.79772 58.2606 6.30046 99.0719 11.0947 114.287H55.468C58.1053 106.433 60.3876 94.4523 62.237 81.8489C64.0788 69.2966 65.4867 56.1598 66.389 45.9341H61.2306C60.9544 45.9341 60.7306 45.7103 60.7306 45.4341V40.8302H56.4269C56.1507 40.8302 55.9269 40.6064 55.9269 40.3302V19.9145C55.9269 19.6384 56.1507 19.4145 56.4269 19.4145H65.234V12.3083H56.4269C56.1507 12.3083 55.9269 12.0844 55.9269 11.8083V1.5H48.5204Z" fill="#140E41"/>
</svg>
