<svg width="206" height="100" viewBox="0 0 206 100" fill="none" xmlns="http://www.w3.org/2000/svg">
<path fill-rule="evenodd" clip-rule="evenodd" d="M0.945312 23.752C0.945312 23.4758 1.16917 23.252 1.44531 23.252H34.6363C34.9124 23.252 35.1363 23.4758 35.1363 23.752V99.4274C35.1363 99.7035 34.9124 99.9274 34.6363 99.9274H1.44531C1.16917 99.9274 0.945312 99.7035 0.945312 99.4274V23.752ZM1.94531 24.252V98.9274H34.1363V24.252H1.94531Z" fill="#140E41"/>
<path fill-rule="evenodd" clip-rule="evenodd" d="M180.176 23.752C180.176 23.4758 180.4 23.252 180.676 23.252H213.867C214.143 23.252 214.367 23.4758 214.367 23.752V99.4274C214.367 99.7035 214.143 99.9274 213.867 99.9274H180.676C180.4 99.9274 180.176 99.7035 180.176 99.4274V23.752ZM181.176 24.252V98.9274H213.367V24.252H181.176Z" fill="#140E41"/>
<path fill-rule="evenodd" clip-rule="evenodd" d="M35.1348 43.6405V98.9272H180.175V59.9043C179.156 60.3861 178.184 60.8522 177.247 61.302C172.574 63.5437 168.748 65.3794 164.07 66.7158C158.225 68.3857 151.062 69.2758 139.22 69.2758C124.908 69.2758 115.503 66.1408 106.343 61.8963C103.754 60.6962 101.192 59.4121 98.5483 58.0871C91.838 54.7237 84.6031 51.0974 75.0627 47.9173C61.5655 43.4183 48.0583 43.535 38.232 43.6199C37.1536 43.6292 36.1196 43.6381 35.1348 43.6405ZM38.2157 42.6196C48.0332 42.5333 61.712 42.413 75.3789 46.9686C84.9917 50.1728 92.3246 53.8481 99.0543 57.2211C101.683 58.5385 104.219 59.8098 106.764 60.9889C115.826 65.1887 125.087 68.2758 139.22 68.2758C151.017 68.2758 158.076 67.3882 163.796 65.7543C168.385 64.4432 172.12 62.6516 176.781 60.4157C177.942 59.859 179.16 59.2748 180.463 58.6635C180.618 58.5909 180.799 58.6024 180.943 58.6942C181.088 58.7859 181.175 58.9451 181.175 59.1162V99.4272C181.175 99.7033 180.951 99.9272 180.675 99.9272H34.6348C34.3586 99.9272 34.1348 99.7033 34.1348 99.4272V43.1412C34.1348 42.865 34.3586 42.6412 34.6348 42.6412C35.7593 42.6412 36.9557 42.6307 38.2157 42.6196Z" fill="#140E41"/>
<path fill-rule="evenodd" clip-rule="evenodd" d="M18.3327 22.888C24.1622 22.888 28.888 18.1622 28.888 12.3327C28.888 6.50313 24.1622 1.77734 18.3327 1.77734C12.5031 1.77734 7.77734 6.50313 7.77734 12.3327C7.77734 18.1622 12.5031 22.888 18.3327 22.888ZM18.3327 23.888C24.7145 23.888 29.888 18.7145 29.888 12.3327C29.888 5.95084 24.7145 0.777344 18.3327 0.777344C11.9508 0.777344 6.77734 5.95084 6.77734 12.3327C6.77734 18.7145 11.9508 23.888 18.3327 23.888Z" fill="#140E41"/>
<path fill-rule="evenodd" clip-rule="evenodd" d="M197.885 22.888C203.715 22.888 208.441 18.1622 208.441 12.3327C208.441 6.50313 203.715 1.77734 197.885 1.77734C192.056 1.77734 187.33 6.50313 187.33 12.3327C187.33 18.1622 192.056 22.888 197.885 22.888ZM197.885 23.888C204.267 23.888 209.441 18.7145 209.441 12.3327C209.441 5.95084 204.267 0.777344 197.885 0.777344C191.504 0.777344 186.33 5.95084 186.33 12.3327C186.33 18.7145 191.504 23.888 197.885 23.888Z" fill="#140E41"/>
</svg>
