<svg width="144" height="118" viewBox="0 0 144 118" fill="none" xmlns="http://www.w3.org/2000/svg">
<mask id="mask0_1_126" style="mask-type:alpha" maskUnits="userSpaceOnUse" x="0" y="0" width="144" height="118">
<path d="M0 0H144V118H0V0Z" fill="#F4F4F4"/>
</mask>
<g mask="url(#mask0_1_126)">
<path fill-rule="evenodd" clip-rule="evenodd" d="M6.58789 14.8125C6.58789 14.5364 6.81175 14.3125 7.08789 14.3125H12.8002C13.0763 14.3125 13.3002 14.5364 13.3002 14.8125V114.778C13.3002 115.054 13.0763 115.278 12.8002 115.278H7.08789C6.81175 115.278 6.58789 115.054 6.58789 114.778V14.8125ZM7.58789 15.3125V114.278H12.3002V15.3125H7.58789Z" fill="#140E41"/>
<path fill-rule="evenodd" clip-rule="evenodd" d="M279.375 74.7798H12.7441V73.7798H279.375V74.7798Z" fill="#140E41"/>
<path fill-rule="evenodd" clip-rule="evenodd" d="M279.375 15.3125H12.7441V14.3125H279.375V15.3125Z" fill="#140E41"/>
<path fill-rule="evenodd" clip-rule="evenodd" d="M10 14C13.3137 14 16 11.3137 16 8C16 4.68629 13.3137 2 10 2C6.68629 2 4 4.68629 4 8C4 11.3137 6.68629 14 10 14ZM10 15C13.866 15 17 11.866 17 8C17 4.13401 13.866 1 10 1C6.13401 1 3 4.13401 3 8C3 11.866 6.13401 15 10 15Z" fill="#140E41"/>
<path fill-rule="evenodd" clip-rule="evenodd" d="M100.84 73.8395V14.8125H101.84V73.8395H100.84Z" fill="#140E41"/>
<path fill-rule="evenodd" clip-rule="evenodd" d="M12.5 44.2549L57.6182 74.4999L102.353 44.3379L57.4365 14.9999L12.5 44.2549ZM14.3141 44.2671L57.6166 73.2949L100.544 44.3511L57.4356 16.1937L14.3141 44.2671Z" fill="#140E41"/>
<path fill-rule="evenodd" clip-rule="evenodd" d="M101 44.2549L146.126 74.4941L190.861 44.3379L146.043 14.0986L101 44.2549ZM102.797 44.2553L146.124 73.2892L189.072 44.3375L146.041 15.3035L102.797 44.2553Z" fill="#140E41"/>
</g>
</svg>
