<svg width="206" height="126" viewBox="0 0 206 126" fill="none" xmlns="http://www.w3.org/2000/svg">
<path fill-rule="evenodd" clip-rule="evenodd" d="M25.0137 106.452L25.0137 13.2947L26.0137 13.2947L26.0137 106.452L25.0137 106.452Z" fill="#140E41"/>
<path fill-rule="evenodd" clip-rule="evenodd" d="M158.621 106.452L158.621 13.2947L159.621 13.2947L159.621 106.452L158.621 106.452Z" fill="#140E41"/>
<path d="M9.16992 10.8469H175.055V21.4701H9.16992V10.8469Z" fill="#F4F4F4"/>
<path fill-rule="evenodd" clip-rule="evenodd" d="M8.66992 10.8469C8.66992 10.5708 8.89378 10.3469 9.16992 10.3469H175.055C175.332 10.3469 175.555 10.5708 175.555 10.8469V21.4701C175.555 21.7463 175.332 21.9701 175.055 21.9701H9.16992C8.89378 21.9701 8.66992 21.7463 8.66992 21.4701V10.8469ZM9.66992 11.3469V20.9701H174.555V11.3469H9.66992Z" fill="#140E41"/>
<path d="M9.16992 21.4702H175.055V32.0934H9.16992V21.4702Z" fill="#F4F4F4"/>
<path fill-rule="evenodd" clip-rule="evenodd" d="M8.66992 21.4702C8.66992 21.1941 8.89378 20.9702 9.16992 20.9702H175.055C175.332 20.9702 175.555 21.1941 175.555 21.4702V32.0934C175.555 32.3696 175.332 32.5934 175.055 32.5934H9.16992C8.89378 32.5934 8.66992 32.3696 8.66992 32.0934V21.4702ZM9.66992 21.9702V31.5934H174.555V21.9702H9.66992Z" fill="#140E41"/>
<path fill-rule="evenodd" clip-rule="evenodd" d="M89.5693 2.60982C88.4359 2.04483 86.8315 1.76377 84.6569 2.06032C82.2858 2.38366 77.4982 3.15769 71.4851 4.12984C64.7754 5.21461 56.5399 6.54607 48.4336 7.77329C40.7576 8.93535 33.2047 10.0027 27.1992 10.6737C24.1971 11.0092 21.5749 11.2464 19.5143 11.3464C18.4842 11.3964 17.588 11.4124 16.8515 11.3885C16.1243 11.3648 15.5189 11.3015 15.0883 11.178C14.1403 10.9062 13.4795 10.3866 13.1077 9.7295C12.7391 9.07787 12.6806 8.33638 12.8513 7.66407C13.1903 6.32912 14.4699 5.17373 16.1981 5.44898C17.7149 5.69057 18.4187 6.85317 18.1917 7.88802C18.0807 8.39388 17.7411 8.84674 17.2004 9.05348C16.6637 9.25871 16.0123 9.1913 15.3152 8.84277L15.7625 7.94834C16.2912 8.21269 16.6435 8.19582 16.8433 8.11943C17.0391 8.04455 17.1689 7.88363 17.2149 7.67377C17.3019 7.27716 17.0702 6.60048 16.0408 6.43653C14.9025 6.25524 14.053 6.99484 13.8206 7.91017C13.7056 8.363 13.7509 8.83547 13.9781 9.2371C14.2022 9.63328 14.6294 10.0062 15.3639 10.2167C15.6713 10.3048 16.1751 10.3659 16.884 10.389C17.5836 10.4118 18.4504 10.3969 19.4658 10.3476C21.496 10.249 24.0946 10.0144 27.0882 9.67991C33.0738 9.01109 40.6113 7.94611 48.2839 6.78455C56.3584 5.56215 64.5906 4.23139 71.3069 3.14568C77.3386 2.17064 82.1477 1.39324 84.5218 1.06949C86.8416 0.753139 88.6591 1.03877 90.0154 1.71484C91.3763 2.39317 92.2422 3.45027 92.6685 4.61032C93.5016 6.87711 92.6505 9.6268 90.4962 10.4937C89.0914 11.059 87.878 11.147 86.8976 10.8799C85.9125 10.6114 85.1991 9.99266 84.8038 9.22317C84.0175 7.69273 84.519 5.62442 86.4086 4.67962L86.8559 5.57405C85.4768 6.26359 85.1548 7.71807 85.6932 8.7662C85.9603 9.28599 86.4463 9.72045 87.1605 9.91508C87.8796 10.111 88.8654 10.072 90.1228 9.56602C91.6458 8.95318 92.429 6.85748 91.7299 4.95528C91.3901 4.03083 90.6983 3.17253 89.5693 2.60982Z" fill="#140E41"/>
<path fill-rule="evenodd" clip-rule="evenodd" d="M95.6729 2.60982C96.8063 2.04483 98.4107 1.76377 100.585 2.06032C102.956 2.38366 107.744 3.15769 113.757 4.12984C120.467 5.21461 128.702 6.54607 136.809 7.77329C144.485 8.93535 152.037 10.0027 158.043 10.6737C161.045 11.0092 163.667 11.2464 165.728 11.3464C166.758 11.3964 167.654 11.4124 168.391 11.3885C169.118 11.3648 169.723 11.3015 170.154 11.178C171.102 10.9062 171.763 10.3866 172.134 9.7295C172.503 9.07787 172.562 8.33638 172.391 7.66407C172.052 6.32912 170.772 5.17373 169.044 5.44898C167.527 5.69057 166.824 6.85317 167.05 7.88802C167.161 8.39388 167.501 8.84674 168.042 9.05348C168.579 9.25871 169.23 9.1913 169.927 8.84277L169.48 7.94834C168.951 8.21269 168.599 8.19582 168.399 8.11943C168.203 8.04455 168.073 7.88363 168.027 7.67377C167.94 7.27716 168.172 6.60048 169.201 6.43653C170.34 6.25524 171.189 6.99484 171.422 7.91017C171.537 8.363 171.491 8.83547 171.264 9.2371C171.04 9.63328 170.613 10.0062 169.878 10.2167C169.571 10.3048 169.067 10.3659 168.358 10.389C167.659 10.4118 166.792 10.3969 165.776 10.3476C163.746 10.249 161.148 10.0144 158.154 9.67991C152.168 9.01109 144.631 7.94611 136.958 6.78455C128.884 5.56215 120.652 4.23139 113.935 3.14568C107.904 2.17064 103.094 1.39324 100.72 1.06949C98.4006 0.753139 96.5831 1.03877 95.2267 1.71484C93.8659 2.39317 93 3.45027 92.5737 4.61032C91.7406 6.87711 92.5917 9.6268 94.746 10.4937C96.1507 11.059 97.3642 11.147 98.3446 10.8799C99.3297 10.6114 100.043 9.99266 100.438 9.22317C101.225 7.69273 100.723 5.62442 98.8336 4.67962L98.3863 5.57405C99.7654 6.26359 100.087 7.71807 99.549 8.7662C99.2819 9.28599 98.7959 9.72045 98.0816 9.91508C97.3626 10.111 96.3768 10.072 95.1193 9.56602C93.5964 8.95318 92.8132 6.85748 93.5123 4.95528C93.852 4.03083 94.5439 3.17253 95.6729 2.60982Z" fill="#140E41"/>
<path d="M9.1717 46.8025H175.12L183.292 55.9799H1L9.1717 46.8025Z" fill="#F4F4F4"/>
<path fill-rule="evenodd" clip-rule="evenodd" d="M8.79828 46.47C8.89316 46.3634 9.02903 46.3025 9.17171 46.3025H175.12C175.263 46.3025 175.399 46.3634 175.493 46.47L183.665 55.6474C183.796 55.7945 183.829 56.0049 183.748 56.1846C183.667 56.3643 183.489 56.4799 183.292 56.4799H1.00001C0.803036 56.4799 0.624417 56.3643 0.543802 56.1846C0.463187 56.0049 0.4956 55.7945 0.626586 55.6474L8.79828 46.47ZM9.39598 47.3025L2.1147 55.4799H182.177L174.896 47.3025H9.39598Z" fill="#140E41"/>
<path d="M151.361 67.2317H204.666V75.2777H151.361V67.2317Z" fill="#F4F4F4"/>
<path fill-rule="evenodd" clip-rule="evenodd" d="M150.861 67.2317C150.861 66.9555 151.085 66.7317 151.361 66.7317H204.666C204.942 66.7317 205.166 66.9555 205.166 67.2317V75.2777C205.166 75.5538 204.942 75.7777 204.666 75.7777H151.361C151.085 75.7777 150.861 75.5538 150.861 75.2777V67.2317ZM151.861 67.7317V74.7777H204.166V67.7317H151.861Z" fill="#140E41"/>
<path fill-rule="evenodd" clip-rule="evenodd" d="M175.502 125.059C175.226 125.059 175.002 124.835 175.002 124.559V75.2775C175.002 75.0013 175.226 74.7775 175.502 74.7775H180.531C180.807 74.7775 181.031 75.0013 181.031 75.2775V124.559C181.031 124.835 180.807 125.059 180.531 125.059H175.502ZM176.002 124.059H180.031V75.7775H176.002V124.059Z" fill="#140E41"/>
<path fill-rule="evenodd" clip-rule="evenodd" d="M169.679 76.3789C168.767 76.1344 168.053 76.2342 167.619 76.596C167.096 77.0318 166.924 77.4679 166.911 77.8138C166.898 78.1697 167.049 78.491 167.28 78.7045C167.513 78.9192 167.796 79.0008 168.048 78.9424C168.291 78.886 168.619 78.6717 168.882 78.0579L169.801 78.4517C169.452 79.2678 168.912 79.7685 168.274 79.9165C167.645 80.0624 167.034 79.8375 166.602 79.4393C166.17 79.04 165.887 78.442 165.912 77.7764C165.937 77.1009 166.276 76.4134 166.979 75.8277C167.771 75.168 168.878 75.1288 169.938 75.413C171.012 75.7011 172.14 76.3435 173.1 77.2127C175.008 78.9402 176.391 81.7164 175.109 84.5952C174.65 85.6264 173.935 86.2474 173.129 86.4987C172.335 86.7464 171.506 86.6182 170.838 86.2533C170.172 85.8894 169.632 85.2697 169.454 84.4953C169.273 83.7042 169.489 82.8309 170.188 82.0151L170.947 82.6659C170.421 83.2802 170.33 83.837 170.429 84.2719C170.533 84.7235 170.86 85.1258 171.318 85.3758C171.774 85.6249 172.324 85.7025 172.832 85.544C173.328 85.3891 173.838 84.9917 174.196 84.1885C175.232 81.8608 174.164 79.5256 172.429 77.9539C171.567 77.1736 170.576 76.6195 169.679 76.3789Z" fill="#140E41"/>
<path fill-rule="evenodd" clip-rule="evenodd" d="M186.206 76.3789C187.117 76.1344 187.832 76.2342 188.266 76.596C188.789 77.0318 188.961 77.4679 188.974 77.8138C188.987 78.1697 188.836 78.491 188.604 78.7045C188.372 78.9192 188.089 79.0008 187.837 78.9424C187.594 78.886 187.266 78.6717 187.003 78.0579L186.084 78.4517C186.433 79.2678 186.973 79.7685 187.611 79.9165C188.24 80.0624 188.851 79.8375 189.283 79.4393C189.715 79.04 189.998 78.442 189.973 77.7764C189.948 77.1009 189.609 76.4134 188.906 75.8277C188.114 75.168 187.007 75.1288 185.947 75.413C184.873 75.7011 183.745 76.3435 182.785 77.2127C180.877 78.9402 179.494 81.7164 180.775 84.5952C181.234 85.6264 181.95 86.2474 182.755 86.4987C183.549 86.7464 184.379 86.6182 185.046 86.2533C185.712 85.8894 186.253 85.2697 186.43 84.4953C186.612 83.7042 186.396 82.8309 185.697 82.0151L184.938 82.6659C185.464 83.2802 185.555 83.837 185.456 84.2719C185.352 84.7235 185.024 85.1258 184.567 85.3758C184.111 85.6249 183.561 85.7025 183.053 85.544C182.556 85.3891 182.047 84.9917 181.689 84.1885C180.653 81.8608 181.72 79.5256 183.456 77.9539C184.318 77.1736 185.309 76.6195 186.206 76.3789Z" fill="#140E41"/>
</svg>
