<svg width="53" height="131" viewBox="0 0 53 131" fill="none" xmlns="http://www.w3.org/2000/svg">
<path fill-rule="evenodd" clip-rule="evenodd" d="M10.967 0.92285C18.9898 0.395451 32.0083 0.395867 40.7122 0.734157C45.1041 0.904855 47.9559 1.80835 49.7164 3.20602C51.5041 4.62519 52.0986 6.49775 52.0986 8.41401H51.0986C51.0986 6.72234 50.5867 5.17371 49.0947 3.98922C47.5756 2.78322 44.9744 1.90057 40.6734 1.7334C31.9912 1.39596 19.0097 1.3963 11.0326 1.9207C7.08292 2.18033 4.7716 3.09422 3.45016 4.26226C2.14887 5.41249 1.73828 6.87209 1.73828 8.41401H0.738281C0.738281 6.68268 1.20843 4.90911 2.78788 3.51301C4.34718 2.13471 6.91659 1.18911 10.967 0.92285Z" fill="#140E41"/>
<path fill-rule="evenodd" clip-rule="evenodd" d="M1 8.91382V7.91382H51.5V8.91382H1Z" fill="#140E41"/>
<path fill-rule="evenodd" clip-rule="evenodd" d="M2 32.1938V31.1938H51V32.1938H2Z" fill="#140E41"/>
<path fill-rule="evenodd" clip-rule="evenodd" d="M20.8524 86.4697C14.1883 86.43 8.48164 86.396 7 86.396V85.396C8.48494 85.396 14.1961 85.43 20.8597 85.4698C22.1982 85.4777 23.5752 85.4859 24.964 85.4941C33.2696 85.5432 42.0021 85.5923 45.5002 85.5923V86.5923C41.9984 86.5923 33.262 86.5432 24.9581 86.4941C23.5686 86.4859 22.1912 86.4777 20.8524 86.4697Z" fill="#140E41"/>
<path fill-rule="evenodd" clip-rule="evenodd" d="M26.0242 100.747C19.106 100.676 12.3451 100.607 9 100.607V99.6074C12.3504 99.6074 19.1144 99.6763 26.0273 99.7467L26.5116 99.7517C33.5942 99.8238 40.7532 99.8959 44.5 99.8959V100.896C40.7468 100.896 33.5811 100.824 26.5014 100.752L26.0242 100.747Z" fill="#140E41"/>
<path fill-rule="evenodd" clip-rule="evenodd" d="M5 121.896V120.896H48V121.896H5Z" fill="#140E41"/>
<path fill-rule="evenodd" clip-rule="evenodd" d="M3 130.896V129.896H50V130.896H3Z" fill="#140E41"/>
<path fill-rule="evenodd" clip-rule="evenodd" d="M44.82 15.82C45.6595 10.3635 49.7311 8.26655 51.7248 7.90405L51.9037 8.88792C50.2307 9.1921 46.5689 11.0285 45.8084 15.972C45.3147 19.1809 45.3229 22.2205 46.1657 24.8694C47.0036 27.5029 48.6745 29.7773 51.5661 31.4641C51.6946 31.539 51.783 31.6672 51.8074 31.8138C53.0704 39.3915 52.436 49.0786 51.1222 58.8377C50.0398 66.8787 48.4904 75.0058 47.1406 82.0858C46.8509 83.6052 46.5704 85.0764 46.3057 86.4881C46.2803 86.6234 46.2004 86.7422 46.0846 86.8166C45.0138 87.505 43.6207 89.0053 43.0222 91.238C42.4282 93.4539 42.6035 96.443 44.747 100.145C44.8605 100.342 44.828 100.589 44.6678 100.75C43.2667 102.151 41.5623 105.523 41.5017 109.341C41.4418 113.113 42.9857 117.319 48.0774 120.471C48.1102 120.491 48.1405 120.515 48.1678 120.542C48.6703 121.045 49.3016 122.138 49.7593 123.828C50.2212 125.533 50.5163 127.881 50.3131 130.929L49.3153 130.863C49.5121 127.911 49.2239 125.676 48.7941 124.089C48.3759 122.546 47.8328 121.647 47.4978 121.288C42.1316 117.943 40.4369 113.415 40.5018 109.326C40.5627 105.49 42.171 102.038 43.6975 100.322C41.6123 96.5677 41.4025 93.4181 42.0563 90.979C42.6926 88.6054 44.1351 86.9507 45.3616 86.0974C45.6158 84.7435 45.8839 83.3377 46.16 81.8894C47.5096 74.8097 49.0528 66.7154 50.1312 58.7043C51.429 49.0631 52.0454 39.5964 50.8584 32.2069C47.8736 30.4052 46.1047 27.9758 45.2127 25.1726C44.3056 22.3215 44.3137 19.1111 44.82 15.82Z" fill="#140E41"/>
<path fill-rule="evenodd" clip-rule="evenodd" d="M8.17216 15.82C7.33271 10.3635 3.26114 8.26655 1.26742 7.90405L1.08853 8.88792C2.76148 9.1921 6.42324 11.0285 7.18379 15.972C7.67746 19.1809 7.66933 22.2205 6.82651 24.8694C5.98856 27.5029 4.31766 29.7773 1.42604 31.4641C1.29764 31.539 1.20922 31.6672 1.18478 31.8138C-0.0781631 39.3915 0.556225 49.0786 1.86994 58.8377C2.95238 66.8787 4.50182 75.0058 5.85162 82.0858C6.1413 83.6052 6.42178 85.0764 6.68648 86.4881C6.71184 86.6234 6.7918 86.7422 6.90754 86.8166C7.97843 87.505 9.37145 89.0053 9.96997 91.238C10.564 93.4539 10.3887 96.443 8.24521 100.145C8.13171 100.342 8.16419 100.589 8.32437 100.75C9.72553 102.151 11.4299 105.523 11.4905 109.341C11.5504 113.113 10.0065 117.319 4.9148 120.471C4.88201 120.491 4.85168 120.515 4.82442 120.542C4.3219 121.045 3.69055 122.138 3.23287 123.828C2.77097 125.533 2.47584 127.881 2.67909 130.929L3.67687 130.863C3.48012 127.911 3.76833 125.676 4.19808 124.089C4.61624 122.546 5.15942 121.647 5.4944 121.288C10.8606 117.943 12.5553 113.415 12.4904 109.326C12.4295 105.49 10.8212 102.038 9.29467 100.322C11.3799 96.5677 11.5897 93.4181 10.9359 90.979C10.2996 88.6054 8.85709 86.9507 7.63062 86.0974C7.37634 84.7435 7.10833 83.3377 6.83223 81.8894C5.48255 74.8097 3.93941 66.7154 2.861 58.7043C1.56317 49.0631 0.946805 39.5964 2.13375 32.2069C5.11854 30.4052 6.88751 27.9758 7.77944 25.1726C8.68662 22.3215 8.67849 19.1111 8.17216 15.82Z" fill="#140E41"/>
</svg>
