<svg width="107" height="144" viewBox="0 0 107 144" fill="none" xmlns="http://www.w3.org/2000/svg">
<path d="M23.5095 18.097C26.9177 23.0415 28.0088 28.2022 25.9463 29.6239C23.8839 31.0455 19.4491 28.1896 16.0409 23.2451C12.6326 18.3006 10.3886 10.0504 11.789 9.08512C13.1894 8.11984 20.1013 13.1525 23.5095 18.097Z" fill="#F4F4F4"/>
<path fill-rule="evenodd" clip-rule="evenodd" d="M25.801 25.3883C25.3935 23.4605 24.334 21.0552 22.6862 18.6645C21.0573 16.3015 18.5605 13.8816 16.2944 12.1735C15.1613 11.3194 14.123 10.6715 13.3138 10.2991C12.9163 10.1162 12.614 10.0185 12.407 9.98164C12.3677 10.1883 12.3515 10.5055 12.381 10.9421C12.4411 11.8308 12.6771 13.0317 13.0722 14.3945C13.8622 17.1202 15.2354 20.3146 16.8642 22.6776C18.5121 25.0682 20.383 26.9142 22.0397 27.981C22.87 28.5157 23.6034 28.8268 24.1956 28.94C24.7828 29.0523 25.1497 28.9584 25.3788 28.8005C25.6079 28.6426 25.8262 28.3331 25.9302 27.7443C26.0351 27.1507 26.0053 26.3546 25.801 25.3883ZM12.4557 9.8103C12.4557 9.81036 12.4552 9.81153 12.4539 9.81367C12.455 9.81132 12.4557 9.81025 12.4557 9.8103ZM12.2333 9.9657C12.2309 9.96613 12.2296 9.96625 12.2295 9.96621C12.2295 9.96616 12.2307 9.96594 12.2333 9.9657ZM25.9463 29.6239C28.0088 28.2022 26.9177 23.0415 23.5095 18.097C20.1013 13.1525 13.1894 8.11984 11.789 9.08512C10.3886 10.0504 12.6326 18.3006 16.0409 23.2451C19.4491 28.1896 23.8839 31.0455 25.9463 29.6239Z" fill="#140E41"/>
<path d="M23.5095 129.949C26.9177 125.005 28.0088 119.844 25.9463 118.422C23.8839 117.001 19.4491 119.857 16.0409 124.801C12.6326 129.745 10.3886 137.996 11.789 138.961C13.1894 139.926 20.1013 134.894 23.5095 129.949Z" fill="#F4F4F4"/>
<path fill-rule="evenodd" clip-rule="evenodd" d="M25.801 122.658C25.3935 124.586 24.334 126.991 22.6862 129.382C21.0573 131.745 18.5605 134.165 16.2944 135.873C15.1613 136.727 14.123 137.375 13.3138 137.747C12.9163 137.93 12.614 138.028 12.407 138.065C12.3677 137.858 12.3515 137.541 12.381 137.104C12.4411 136.215 12.6771 135.014 13.0722 133.652C13.8622 130.926 15.2354 127.732 16.8642 125.369C18.5121 122.978 20.383 121.132 22.0397 120.065C22.87 119.53 23.6034 119.219 24.1956 119.106C24.7828 118.994 25.1497 119.088 25.3788 119.246C25.6079 119.404 25.8262 119.713 25.9302 120.302C26.0351 120.895 26.0053 121.692 25.801 122.658ZM12.4557 138.236C12.4557 138.236 12.4552 138.235 12.4539 138.232C12.455 138.235 12.4557 138.236 12.4557 138.236ZM12.2333 138.08C12.2309 138.08 12.2296 138.08 12.2295 138.08C12.2295 138.08 12.2307 138.08 12.2333 138.08ZM25.9463 118.422C28.0088 119.844 26.9177 125.005 23.5095 129.949C20.1013 134.894 13.1894 139.926 11.789 138.961C10.3886 137.996 12.6326 129.745 16.0409 124.801C19.4491 119.857 23.8839 117.001 25.9463 118.422Z" fill="#140E41"/>
<path d="M82.4978 18.097C79.0896 23.0415 77.9986 28.2022 80.061 29.6239C82.1234 31.0455 86.5582 28.1896 89.9664 23.2451C93.3747 18.3006 95.6187 10.0504 94.2183 9.08512C92.818 8.11984 85.906 13.1525 82.4978 18.097Z" fill="#F4F4F4"/>
<path fill-rule="evenodd" clip-rule="evenodd" d="M80.2063 25.3883C80.6138 23.4605 81.6733 21.0552 83.3212 18.6645C84.95 16.3015 87.4468 13.8816 89.7129 12.1735C90.846 11.3194 91.8843 10.6715 92.6935 10.2991C93.091 10.1162 93.3933 10.0185 93.6003 9.98164C93.6396 10.1883 93.6558 10.5055 93.6263 10.9421C93.5662 11.8308 93.3302 13.0317 92.9351 14.3945C92.1451 17.1202 90.7719 20.3146 89.1431 22.6776C87.4952 25.0682 85.6243 26.9142 83.9676 27.981C83.1373 28.5157 82.4039 28.8268 81.8118 28.94C81.2245 29.0523 80.8576 28.9584 80.6285 28.8005C80.3994 28.6426 80.1812 28.3331 80.0771 27.7443C79.9722 27.1507 80.002 26.3546 80.2063 25.3883ZM93.5516 9.8103C93.5516 9.81036 93.5522 9.81153 93.5535 9.81367C93.5523 9.81132 93.5517 9.81025 93.5516 9.8103ZM93.774 9.9657C93.7765 9.96613 93.7778 9.96625 93.7778 9.96621C93.7778 9.96616 93.7766 9.96594 93.774 9.9657ZM80.061 29.6239C77.9986 28.2022 79.0896 23.0415 82.4978 18.097C85.906 13.1525 92.818 8.11984 94.2183 9.08512C95.6187 10.0504 93.3747 18.3006 89.9664 23.2451C86.5582 28.1896 82.1234 31.0455 80.061 29.6239Z" fill="#140E41"/>
<path d="M82.4978 129.949C79.0896 125.005 77.9986 119.844 80.061 118.422C82.1234 117.001 86.5582 119.857 89.9664 124.801C93.3747 129.745 95.6187 137.996 94.2183 138.961C92.818 139.926 85.906 134.894 82.4978 129.949Z" fill="#F4F4F4"/>
<path fill-rule="evenodd" clip-rule="evenodd" d="M80.2063 122.658C80.6138 124.586 81.6733 126.991 83.3212 129.382C84.95 131.745 87.4468 134.165 89.7129 135.873C90.846 136.727 91.8843 137.375 92.6935 137.747C93.091 137.93 93.3933 138.028 93.6003 138.065C93.6396 137.858 93.6558 137.541 93.6263 137.104C93.5662 136.215 93.3302 135.014 92.9351 133.652C92.1451 130.926 90.7719 127.732 89.1431 125.369C87.4952 122.978 85.6243 121.132 83.9676 120.065C83.1373 119.53 82.4039 119.219 81.8118 119.106C81.2245 118.994 80.8576 119.088 80.6285 119.246C80.3994 119.404 80.1812 119.713 80.0771 120.302C79.9722 120.895 80.002 121.692 80.2063 122.658ZM93.5516 138.236C93.5516 138.236 93.5522 138.235 93.5535 138.232C93.5523 138.235 93.5517 138.236 93.5516 138.236ZM93.774 138.08C93.7765 138.08 93.7778 138.08 93.7778 138.08C93.7778 138.08 93.7766 138.08 93.774 138.08ZM80.061 118.422C77.9986 119.844 79.0896 125.005 82.4978 129.949C85.906 134.894 92.818 139.926 94.2183 138.961C95.6187 137.996 93.3747 129.745 89.9664 124.801C86.5582 119.857 82.1234 117.001 80.061 118.422Z" fill="#140E41"/>
<path d="M16.3316 22.6959C21.9714 24.759 25.8458 28.3385 24.9852 30.6909C24.1247 33.0434 18.8551 33.278 13.2153 31.2149C7.57545 29.1518 0.973841 23.7184 1.55815 22.1211C2.14245 20.5238 10.6917 20.6328 16.3316 22.6959Z" fill="#F4F4F4"/>
<path fill-rule="evenodd" clip-rule="evenodd" d="M22.4174 27.3194C20.9701 25.9823 18.7148 24.6325 15.988 23.6351C13.2927 22.6491 9.85634 22.1186 7.01973 22.0355C5.60141 21.9939 4.37969 22.0657 3.50414 22.2299C3.07412 22.3105 2.77099 22.4055 2.58075 22.4952C2.66822 22.6865 2.83844 22.9547 3.11495 23.2938C3.67792 23.9841 4.5649 24.8274 5.67527 25.7108C7.89598 27.4776 10.8635 29.2897 13.5588 30.2757C16.2856 31.2732 18.8795 31.6973 20.848 31.6097C21.8346 31.5658 22.6129 31.3955 23.1614 31.1455C23.7054 30.8974 23.9505 30.6087 24.0461 30.3474C24.1417 30.0861 24.1408 29.7074 23.8852 29.1669C23.6275 28.6218 23.1428 27.9896 22.4174 27.3194ZM2.52141 22.3273C2.52147 22.3273 2.52168 22.3286 2.52188 22.3311C2.52146 22.3285 2.52136 22.3272 2.52141 22.3273ZM2.42985 22.5826C2.42809 22.5844 2.4271 22.5853 2.42704 22.5852C2.42698 22.5852 2.42786 22.5843 2.42985 22.5826ZM24.9852 30.6909C25.8458 28.3385 21.9714 24.759 16.3316 22.6959C10.6917 20.6328 2.14245 20.5238 1.55815 22.1211C0.973841 23.7184 7.57545 29.1518 13.2153 31.2149C18.8551 33.278 24.1247 33.0434 24.9852 30.6909Z" fill="#140E41"/>
<path d="M16.3316 125.35C21.9714 123.287 25.8458 119.708 24.9852 117.355C24.1247 115.003 18.8551 114.768 13.2153 116.831C7.57545 118.894 0.973841 124.328 1.55815 125.925C2.14245 127.522 10.6917 127.413 16.3316 125.35Z" fill="#F4F4F4"/>
<path fill-rule="evenodd" clip-rule="evenodd" d="M22.4174 120.727C20.9701 122.064 18.7148 123.414 15.988 124.411C13.2927 125.397 9.85634 125.928 7.01973 126.011C5.60141 126.052 4.37969 125.98 3.50414 125.816C3.07412 125.736 2.77099 125.641 2.58075 125.551C2.66822 125.36 2.83844 125.091 3.11495 124.752C3.67792 124.062 4.5649 123.219 5.67527 122.335C7.89598 120.569 10.8635 118.756 13.5588 117.77C16.2856 116.773 18.8795 116.349 20.848 116.436C21.8346 116.48 22.6129 116.651 23.1614 116.901C23.7054 117.149 23.9505 117.437 24.0461 117.699C24.1417 117.96 24.1408 118.339 23.8852 118.879C23.6275 119.424 23.1428 120.057 22.4174 120.727ZM2.52141 125.719C2.52147 125.719 2.52168 125.718 2.52188 125.715C2.52146 125.718 2.52136 125.719 2.52141 125.719ZM2.42985 125.464C2.42809 125.462 2.4271 125.461 2.42704 125.461C2.42698 125.461 2.42786 125.462 2.42985 125.464ZM24.9852 117.355C25.8458 119.708 21.9714 123.287 16.3316 125.35C10.6917 127.413 2.14245 127.522 1.55815 125.925C0.973841 124.328 7.57545 118.894 13.2153 116.831C18.8551 114.768 24.1247 115.003 24.9852 117.355Z" fill="#140E41"/>
<path d="M89.6772 22.6959C84.0374 24.759 80.163 28.3385 81.0236 30.6909C81.8841 33.0434 87.1537 33.278 92.7935 31.2149C98.4333 29.1518 105.035 23.7184 104.451 22.1211C103.866 20.5238 95.317 20.6328 89.6772 22.6959Z" fill="#F4F4F4"/>
<path fill-rule="evenodd" clip-rule="evenodd" d="M83.5914 27.3194C85.0387 25.9823 87.294 24.6325 90.0208 23.6351C92.7161 22.6491 96.1524 22.1186 98.9891 22.0355C100.407 21.9939 101.629 22.0657 102.505 22.2299C102.935 22.3105 103.238 22.4055 103.428 22.4952C103.341 22.6865 103.17 22.9547 102.894 23.2938C102.331 23.9841 101.444 24.8274 100.334 25.7108C98.1128 27.4776 95.1453 29.2897 92.45 30.2757C89.7232 31.2732 87.1293 31.6973 85.1608 31.6097C84.1742 31.5658 83.3959 31.3955 82.8474 31.1455C82.3034 30.8974 82.0583 30.6087 81.9627 30.3474C81.8671 30.0861 81.868 29.7074 82.1236 29.1669C82.3813 28.6218 82.866 27.9896 83.5914 27.3194ZM103.487 22.3273C103.487 22.3273 103.487 22.3286 103.487 22.3311C103.487 22.3285 103.487 22.3272 103.487 22.3273ZM103.579 22.5826C103.581 22.5844 103.582 22.5853 103.582 22.5852C103.582 22.5852 103.581 22.5843 103.579 22.5826ZM81.0236 30.6909C80.163 28.3385 84.0374 24.759 89.6772 22.6959C95.317 20.6328 103.866 20.5238 104.451 22.1211C105.035 23.7184 98.4333 29.1518 92.7935 31.2149C87.1537 33.278 81.8841 33.0434 81.0236 30.6909Z" fill="#140E41"/>
<path d="M89.6772 125.35C84.0374 123.287 80.163 119.708 81.0236 117.355C81.8841 115.003 87.1537 114.768 92.7935 116.831C98.4333 118.894 105.035 124.328 104.451 125.925C103.866 127.522 95.317 127.413 89.6772 125.35Z" fill="#F4F4F4"/>
<path fill-rule="evenodd" clip-rule="evenodd" d="M83.5914 120.727C85.0387 122.064 87.294 123.414 90.0208 124.411C92.7161 125.397 96.1524 125.928 98.9891 126.011C100.407 126.052 101.629 125.98 102.505 125.816C102.935 125.736 103.238 125.641 103.428 125.551C103.341 125.36 103.17 125.091 102.894 124.752C102.331 124.062 101.444 123.219 100.334 122.335C98.1128 120.569 95.1453 118.756 92.45 117.77C89.7232 116.773 87.1293 116.349 85.1608 116.436C84.1742 116.48 83.3959 116.651 82.8474 116.901C82.3034 117.149 82.0583 117.437 81.9627 117.699C81.8671 117.96 81.868 118.339 82.1236 118.879C82.3813 119.424 82.866 120.057 83.5914 120.727ZM103.487 125.719C103.487 125.719 103.487 125.718 103.487 125.715C103.487 125.718 103.487 125.719 103.487 125.719ZM103.579 125.464C103.581 125.462 103.582 125.461 103.582 125.461C103.582 125.461 103.581 125.462 103.579 125.464ZM81.0236 117.355C80.163 119.708 84.0374 123.287 89.6772 125.35C95.317 127.413 103.866 127.522 104.451 125.925C105.035 124.328 98.4333 118.894 92.7935 116.831C87.1537 114.768 81.8841 115.003 81.0236 117.355Z" fill="#140E41"/>
<path d="M95.3588 71.8766C95.3588 109.348 75.9321 139.724 51.968 139.724C28.0039 139.724 8.57715 109.348 8.57715 71.8766C8.57715 34.4054 28.0039 4.02905 51.968 4.02905C75.9321 4.02905 95.3588 34.4054 95.3588 71.8766Z" fill="#F4F4F4"/>
<path fill-rule="evenodd" clip-rule="evenodd" d="M21.7073 24.1705C13.9138 36.3566 9.07715 53.2219 9.07715 71.8766C9.07715 90.5313 13.9138 107.397 21.7073 119.583C29.5043 131.774 40.215 139.224 51.968 139.224C63.721 139.224 74.4317 131.774 82.2287 119.583C90.0222 107.397 94.8588 90.5313 94.8588 71.8766C94.8588 53.2219 90.0222 36.3566 82.2287 24.1705C74.4317 11.9788 63.721 4.52905 51.968 4.52905C40.215 4.52905 29.5043 11.9788 21.7073 24.1705ZM20.8648 23.6317C28.7722 11.2675 39.7569 3.52905 51.968 3.52905C64.1791 3.52905 75.1638 11.2675 83.0712 23.6317C90.9822 36.0016 95.8588 53.0601 95.8588 71.8766C95.8588 90.693 90.9822 107.752 83.0712 120.121C75.1638 132.486 64.1791 140.224 51.968 140.224C39.7569 140.224 28.7722 132.486 20.8648 120.121C12.9538 107.752 8.07715 90.693 8.07715 71.8766C8.07715 53.0601 12.9538 36.0016 20.8648 23.6317Z" fill="#140E41"/>
<path d="M79.3971 72.6657C79.3971 99.244 67.0346 120.79 51.7847 120.79C36.5348 120.79 24.1724 99.244 24.1724 72.6657C24.1724 46.0873 36.5348 24.5413 51.7847 24.5413C67.0346 24.5413 79.3971 46.0873 79.3971 72.6657Z" fill="#F4F4F4"/>
<path fill-rule="evenodd" clip-rule="evenodd" d="M32.6935 38.8854C27.7475 47.5057 24.6724 59.4477 24.6724 72.6657C24.6724 85.8836 27.7475 97.8257 32.6935 106.446C37.6475 115.08 44.4156 120.29 51.7847 120.29C59.1538 120.29 65.922 115.08 70.8759 106.446C75.822 97.8257 78.8971 85.8836 78.8971 72.6657C78.8971 59.4477 75.822 47.5057 70.8759 38.8854C65.922 30.2514 59.1538 25.0413 51.7847 25.0413C44.4156 25.0413 37.6475 30.2514 32.6935 38.8854ZM31.8262 38.3877C36.8659 29.6041 43.904 24.0413 51.7847 24.0413C59.6655 24.0413 66.7035 29.6041 71.7433 38.3877C76.791 47.1851 79.8971 59.3052 79.8971 72.6657C79.8971 86.0261 76.791 98.1462 71.7433 106.944C66.7035 115.727 59.6655 121.29 51.7847 121.29C43.904 121.29 36.8659 115.727 31.8262 106.944C26.7785 98.1462 23.6724 86.0261 23.6724 72.6657C23.6724 59.3052 26.7785 47.1851 31.8262 38.3877Z" fill="#140E41"/>
<path fill-rule="evenodd" clip-rule="evenodd" d="M46.4643 0.846191C48.5206 0.846191 50.4026 1.59269 51.854 2.82946C53.3054 1.59269 55.1873 0.846191 57.2437 0.846191C61.8355 0.846191 65.558 4.56866 65.558 9.16056C65.558 11.2176 64.811 13.1002 63.5734 14.5518C64.811 16.0034 65.558 17.886 65.558 19.943C65.558 24.5349 61.8355 28.2574 57.2437 28.2574C55.1873 28.2574 53.3054 27.5109 51.854 26.2741C50.4026 27.5109 48.5206 28.2574 46.4643 28.2574C41.8724 28.2574 38.1499 24.5349 38.1499 19.943C38.1499 17.8859 38.8969 16.0034 40.1345 14.5518C38.897 13.1002 38.1499 11.2176 38.1499 9.16056C38.1499 4.56866 41.8724 0.846191 46.4643 0.846191Z" fill="#F4F4F4"/>
<path fill-rule="evenodd" clip-rule="evenodd" d="M37.6499 9.16056C37.6499 4.29252 41.5963 0.346191 46.4643 0.346191C48.4938 0.346191 50.364 1.03263 51.854 2.1855C53.3439 1.03263 55.2142 0.346191 57.2437 0.346191C62.1117 0.346191 66.058 4.29252 66.058 9.16056C66.058 11.1907 65.3711 13.0616 64.2175 14.5518C65.3711 16.042 66.058 17.9128 66.058 19.943C66.058 24.811 62.1117 28.7574 57.2437 28.7574C55.2142 28.7574 53.3439 28.0709 51.854 26.918C50.364 28.0709 48.4937 28.7574 46.4643 28.7574C41.5962 28.7574 37.6499 24.811 37.6499 19.943C37.6499 17.9128 38.3368 16.042 39.4904 14.5517C38.3368 13.0615 37.6499 11.1907 37.6499 9.16056ZM46.4643 1.34619C42.1486 1.34619 38.6499 4.8448 38.6499 9.16056C38.6499 11.0943 39.3517 12.8628 40.515 14.2274C40.6743 14.4143 40.6743 14.6892 40.515 14.8761C39.3517 16.2407 38.6499 18.0092 38.6499 19.943C38.6499 24.2587 42.1485 27.7574 46.4643 27.7574C48.3973 27.7574 50.1653 27.0561 51.5297 25.8935C51.7165 25.7343 51.9914 25.7343 52.1783 25.8935C53.5426 27.0561 55.3106 27.7574 57.2437 27.7574C61.5594 27.7574 65.058 24.2587 65.058 19.943C65.058 18.0093 64.3563 16.2407 63.1929 14.8762C63.0336 14.6893 63.0336 14.4143 63.1929 14.2274C64.3563 12.8628 65.058 11.0943 65.058 9.16056C65.058 4.8448 61.5594 1.34619 57.2437 1.34619C55.3106 1.34619 53.5426 2.04744 52.1783 3.21003C51.9914 3.36927 51.7166 3.36927 51.5297 3.21003C50.1653 2.04744 48.3974 1.34619 46.4643 1.34619Z" fill="#140E41"/>
<path d="M58.0213 14.7716C58.0213 18.0897 55.3314 20.7796 52.0133 20.7796C48.6952 20.7796 46.0054 18.0897 46.0054 14.7716C46.0054 11.4535 48.6952 8.76367 52.0133 8.76367C55.3314 8.76367 58.0213 11.4535 58.0213 14.7716Z" fill="#F4F4F4"/>
<path fill-rule="evenodd" clip-rule="evenodd" d="M52.0133 9.26367C48.9714 9.26367 46.5054 11.7297 46.5054 14.7716C46.5054 17.8136 48.9714 20.2796 52.0133 20.2796C55.0553 20.2796 57.5213 17.8136 57.5213 14.7716C57.5213 11.7297 55.0553 9.26367 52.0133 9.26367ZM45.5054 14.7716C45.5054 11.1774 48.4191 8.26367 52.0133 8.26367C55.6076 8.26367 58.5213 11.1774 58.5213 14.7716C58.5213 18.3659 55.6076 21.2796 52.0133 21.2796C48.4191 21.2796 45.5054 18.3659 45.5054 14.7716Z" fill="#140E41"/>
<path fill-rule="evenodd" clip-rule="evenodd" d="M63.5734 72.3728C64.811 70.9212 65.558 69.0386 65.558 66.9816C65.558 62.3897 61.8355 58.6672 57.2437 58.6672C55.1873 58.6672 53.3054 59.4137 51.854 60.6505C50.4026 59.4137 48.5206 58.6672 46.4643 58.6672C41.8724 58.6672 38.1499 62.3897 38.1499 66.9816C38.1499 69.0386 38.897 70.9212 40.1345 72.3728C38.8969 73.8244 38.1499 75.707 38.1499 77.764C38.1499 82.3559 41.8724 86.0784 46.4643 86.0784C48.5206 86.0784 50.4026 85.3319 51.854 84.0951C53.3054 85.3319 55.1873 86.0784 57.2437 86.0784C61.8355 86.0784 65.558 82.3559 65.558 77.764C65.558 75.707 64.811 73.8244 63.5734 72.3728Z" fill="#F4F4F4"/>
<path fill-rule="evenodd" clip-rule="evenodd" d="M51.854 60.0065C53.3439 58.8537 55.2142 58.1672 57.2437 58.1672C62.1117 58.1672 66.058 62.1136 66.058 66.9816C66.058 69.0118 65.3711 70.8826 64.2175 72.3728C65.3711 73.863 66.058 75.7339 66.058 77.764C66.058 82.6321 62.1117 86.5784 57.2437 86.5784C55.2142 86.5784 53.3439 85.892 51.854 84.7391C50.364 85.892 48.4937 86.5784 46.4643 86.5784C41.5962 86.5784 37.6499 82.6321 37.6499 77.764C37.6499 75.7339 38.3368 73.863 39.4904 72.3728C38.3368 70.8826 37.6499 69.0118 37.6499 66.9816C37.6499 62.1136 41.5963 58.1672 46.4643 58.1672C48.4938 58.1672 50.364 58.8537 51.854 60.0065ZM57.2437 59.1672C55.3106 59.1672 53.5426 59.8685 52.1783 61.0311C51.9914 61.1903 51.7166 61.1903 51.5297 61.0311C50.1653 59.8685 48.3974 59.1672 46.4643 59.1672C42.1486 59.1672 38.6499 62.6659 38.6499 66.9816C38.6499 68.9153 39.3517 70.6839 40.515 72.0484C40.6743 72.2353 40.6743 72.5103 40.515 72.6972C39.3517 74.0617 38.6499 75.8303 38.6499 77.764C38.6499 82.0798 42.1485 85.5784 46.4643 85.5784C48.3973 85.5784 50.1653 84.8771 51.5297 83.7145C51.7165 83.5553 51.9914 83.5553 52.1783 83.7145C53.5426 84.8771 55.3106 85.5784 57.2437 85.5784C61.5594 85.5784 65.058 82.0798 65.058 77.764C65.058 75.8303 64.3563 74.0617 63.1929 72.6972C63.0336 72.5103 63.0336 72.2353 63.1929 72.0484C64.3563 70.6839 65.058 68.9153 65.058 66.9816C65.058 62.6658 61.5594 59.1672 57.2437 59.1672Z" fill="#140E41"/>
<path d="M58.0213 72.5927C58.0213 75.9108 55.3314 78.6006 52.0133 78.6006C48.6952 78.6006 46.0054 75.9108 46.0054 72.5927C46.0054 69.2746 48.6952 66.5847 52.0133 66.5847C55.3314 66.5847 58.0213 69.2746 58.0213 72.5927Z" fill="#F4F4F4"/>
<path fill-rule="evenodd" clip-rule="evenodd" d="M52.0133 67.0847C48.9714 67.0847 46.5054 69.5507 46.5054 72.5927C46.5054 75.6346 48.9714 78.1006 52.0133 78.1006C55.0553 78.1006 57.5213 75.6346 57.5213 72.5927C57.5213 69.5507 55.0553 67.0847 52.0133 67.0847ZM45.5054 72.5927C45.5054 68.9984 48.4191 66.0847 52.0133 66.0847C55.6076 66.0847 58.5213 68.9984 58.5213 72.5927C58.5213 76.1869 55.6076 79.1006 52.0133 79.1006C48.4191 79.1006 45.5054 76.1869 45.5054 72.5927Z" fill="#140E41"/>
<path fill-rule="evenodd" clip-rule="evenodd" d="M63.5734 129.294C64.811 127.843 65.558 125.96 65.558 123.903C65.558 119.311 61.8355 115.589 57.2437 115.589C55.1873 115.589 53.3054 116.335 51.854 117.572C50.4026 116.335 48.5206 115.589 46.4643 115.589C41.8724 115.589 38.1499 119.311 38.1499 123.903C38.1499 125.96 38.8969 127.843 40.1345 129.294C38.8969 130.746 38.1499 132.629 38.1499 134.686C38.1499 139.278 41.8724 143 46.4643 143C48.5206 143 50.4026 142.254 51.854 141.017C53.3054 142.254 55.1873 143 57.2437 143C61.8355 143 65.558 139.278 65.558 134.686C65.558 132.629 64.811 130.746 63.5734 129.294Z" fill="#F4F4F4"/>
<path fill-rule="evenodd" clip-rule="evenodd" d="M51.854 116.928C53.3439 115.775 55.2142 115.089 57.2437 115.089C62.1117 115.089 66.058 119.035 66.058 123.903C66.058 125.933 65.3711 127.804 64.2175 129.294C65.3711 130.785 66.058 132.655 66.058 134.686C66.058 139.554 62.1117 143.5 57.2437 143.5C55.2142 143.5 53.3439 142.814 51.854 141.661C50.364 142.814 48.4937 143.5 46.4643 143.5C41.5962 143.5 37.6499 139.554 37.6499 134.686C37.6499 132.655 38.3368 130.785 39.4904 129.294C38.3368 127.804 37.6499 125.933 37.6499 123.903C37.6499 119.035 41.5963 115.089 46.4643 115.089C48.4938 115.089 50.364 115.775 51.854 116.928ZM57.2437 116.089C55.3106 116.089 53.5426 116.79 52.1783 117.953C51.9914 118.112 51.7165 118.112 51.5297 117.953C50.1653 116.79 48.3973 116.089 46.4643 116.089C42.1486 116.089 38.6499 119.588 38.6499 123.903C38.6499 125.837 39.3517 127.606 40.515 128.97C40.6743 129.157 40.6743 129.432 40.515 129.619C39.3516 130.983 38.6499 132.752 38.6499 134.686C38.6499 139.001 42.1485 142.5 46.4643 142.5C48.3973 142.5 50.1653 141.799 51.5297 140.636C51.7165 140.477 51.9914 140.477 52.1783 140.636C53.5426 141.799 55.3106 142.5 57.2437 142.5C61.5594 142.5 65.058 139.001 65.058 134.686C65.058 132.752 64.3563 130.983 63.1929 129.619C63.0336 129.432 63.0336 129.157 63.1929 128.97C64.3563 127.606 65.058 125.837 65.058 123.903C65.058 119.587 61.5594 116.089 57.2437 116.089Z" fill="#140E41"/>
<path d="M58.0213 129.394C58.0213 132.712 55.3314 135.402 52.0133 135.402C48.6952 135.402 46.0054 132.712 46.0054 129.394C46.0054 126.076 48.6952 123.386 52.0133 123.386C55.3314 123.386 58.0213 126.076 58.0213 129.394Z" fill="#F4F4F4"/>
<path fill-rule="evenodd" clip-rule="evenodd" d="M52.0133 123.886C48.9714 123.886 46.5054 126.352 46.5054 129.394C46.5054 132.436 48.9714 134.902 52.0133 134.902C55.0553 134.902 57.5213 132.436 57.5213 129.394C57.5213 126.352 55.0553 123.886 52.0133 123.886ZM45.5054 129.394C45.5054 125.8 48.4191 122.886 52.0133 122.886C55.6076 122.886 58.5213 125.8 58.5213 129.394C58.5213 132.988 55.6076 135.902 52.0133 135.902C48.4191 135.902 45.5054 132.988 45.5054 129.394Z" fill="#140E41"/>
<path fill-rule="evenodd" clip-rule="evenodd" d="M27.7629 72.3728C29.0004 70.9212 29.7475 69.0386 29.7475 66.9816C29.7475 62.3897 26.025 58.6672 21.4331 58.6672C19.3768 58.6672 17.4948 59.4137 16.0434 60.6505C14.592 59.4138 12.71 58.6672 10.6537 58.6672C6.06182 58.6672 2.33936 62.3897 2.33936 66.9816C2.33936 69.0387 3.08638 70.9212 4.32395 72.3729C3.08641 73.8245 2.3394 75.707 2.3394 77.764C2.3394 82.3559 6.06187 86.0784 10.6538 86.0784C12.7101 86.0784 14.592 85.3319 16.0434 84.0951C17.4948 85.3319 19.3768 86.0784 21.4331 86.0784C26.025 86.0784 29.7475 82.3559 29.7475 77.764C29.7475 75.707 29.0004 73.8244 27.7629 72.3728Z" fill="#F4F4F4"/>
<path fill-rule="evenodd" clip-rule="evenodd" d="M16.0434 60.0066C17.5334 58.8537 19.4037 58.1672 21.4332 58.1672C26.3012 58.1672 30.2475 62.1136 30.2475 66.9816C30.2475 69.0118 29.5606 70.8826 28.407 72.3728C29.5606 73.863 30.2475 75.7339 30.2475 77.764C30.2475 82.6321 26.3012 86.5784 21.4332 86.5784C19.4037 86.5784 17.5334 85.892 16.0435 84.7391C14.5535 85.892 12.6832 86.5784 10.6538 86.5784C5.78573 86.5784 1.8394 82.6321 1.8394 77.764C1.8394 75.7339 2.52631 73.8631 3.67988 72.3729C2.52628 70.8826 1.83936 69.0118 1.83936 66.9816C1.83936 62.1136 5.78568 58.1672 10.6537 58.1672C12.6832 58.1672 14.5535 58.8537 16.0434 60.0066ZM21.4332 59.1672C19.5001 59.1672 17.7321 59.8685 16.3677 61.0311C16.1809 61.1904 15.906 61.1904 15.7191 61.0311C14.3548 59.8685 12.5868 59.1672 10.6537 59.1672C6.33797 59.1672 2.83936 62.6659 2.83936 66.9816C2.83936 68.9154 3.54111 70.6839 4.70445 72.0485C4.86379 72.2354 4.8638 72.5103 4.70445 72.6972C3.54114 74.0618 2.8394 75.8303 2.8394 77.764C2.8394 82.0798 6.33802 85.5784 10.6538 85.5784C12.5868 85.5784 14.3548 84.8771 15.7192 83.7145C15.906 83.5553 16.1809 83.5553 16.3678 83.7145C17.7321 84.8771 19.5001 85.5784 21.4332 85.5784C25.7489 85.5784 29.2475 82.0798 29.2475 77.764C29.2475 75.8303 28.5458 74.0617 27.3824 72.6972C27.2231 72.5103 27.2231 72.2353 27.3824 72.0484C28.5458 70.6839 29.2475 68.9153 29.2475 66.9816C29.2475 62.6658 25.7489 59.1672 21.4332 59.1672Z" fill="#140E41"/>
<path d="M22.1526 72.4725C22.1526 75.7906 19.4628 78.4805 16.1447 78.4805C12.8266 78.4805 10.1367 75.7906 10.1367 72.4725C10.1367 69.1544 12.8266 66.4646 16.1447 66.4646C19.4628 66.4646 22.1526 69.1544 22.1526 72.4725Z" fill="#F4F4F4"/>
<path fill-rule="evenodd" clip-rule="evenodd" d="M16.1447 66.9646C13.1027 66.9646 10.6367 69.4306 10.6367 72.4725C10.6367 75.5145 13.1027 77.9805 16.1447 77.9805C19.1866 77.9805 21.6526 75.5145 21.6526 72.4725C21.6526 69.4306 19.1866 66.9646 16.1447 66.9646ZM9.63672 72.4725C9.63672 68.8783 12.5504 65.9646 16.1447 65.9646C19.7389 65.9646 22.6526 68.8783 22.6526 72.4725C22.6526 76.0668 19.7389 78.9805 16.1447 78.9805C12.5504 78.9805 9.63672 76.0668 9.63672 72.4725Z" fill="#140E41"/>
<path fill-rule="evenodd" clip-rule="evenodd" d="M99.4992 72.3728C100.737 70.9212 101.484 69.0386 101.484 66.9816C101.484 62.3897 97.7613 58.6672 93.1694 58.6672C91.1131 58.6672 89.2311 59.4137 87.7797 60.6505C86.3283 59.4137 84.4464 58.6672 82.39 58.6672C77.7982 58.6672 74.0757 62.3897 74.0757 66.9816C74.0757 69.0387 74.8227 70.9212 76.0603 72.3728C74.8227 73.8244 74.0757 75.707 74.0757 77.764C74.0757 82.3559 77.7982 86.0784 82.3901 86.0784C84.4464 86.0784 86.3284 85.3319 87.7797 84.0951C89.2311 85.3319 91.1131 86.0784 93.1694 86.0784C97.7613 86.0784 101.484 82.3559 101.484 77.764C101.484 75.707 100.737 73.8244 99.4992 72.3728Z" fill="#F4F4F4"/>
<path fill-rule="evenodd" clip-rule="evenodd" d="M87.7797 60.0066C89.2697 58.8537 91.14 58.1672 93.1694 58.1672C98.0375 58.1672 101.984 62.1136 101.984 66.9816C101.984 69.0118 101.297 70.8826 100.143 72.3728C101.297 73.863 101.984 75.7339 101.984 77.764C101.984 82.6321 98.0375 86.5784 93.1694 86.5784C91.14 86.5784 89.2697 85.892 87.7798 84.7391C86.2898 85.892 84.4195 86.5784 82.3901 86.5784C77.522 86.5784 73.5757 82.6321 73.5757 77.764C73.5757 75.7339 74.2626 73.863 75.4162 72.3728C74.2626 70.8826 73.5757 69.0118 73.5757 66.9816C73.5757 62.1136 77.522 58.1672 82.39 58.1672C84.4195 58.1672 86.2898 58.8537 87.7797 60.0066ZM93.1694 59.1672C91.2364 59.1672 89.4684 59.8685 88.104 61.0311C87.9172 61.1903 87.6423 61.1903 87.4554 61.0311C86.0911 59.8685 84.3231 59.1672 82.39 59.1672C78.0743 59.1672 74.5757 62.6659 74.5757 66.9816C74.5757 68.9153 75.2774 70.6839 76.4408 72.0484C76.6001 72.2353 76.6001 72.5103 76.4408 72.6972C75.2774 74.0618 74.5757 75.8303 74.5757 77.764C74.5757 82.0798 78.0743 85.5784 82.3901 85.5784C84.3231 85.5784 86.0911 84.8771 87.4555 83.7145C87.6423 83.5553 87.9172 83.5553 88.1041 83.7145C89.4684 84.8771 91.2364 85.5784 93.1694 85.5784C97.4852 85.5784 100.984 82.0798 100.984 77.764C100.984 75.8303 100.282 74.0617 99.1187 72.6972C98.9594 72.5103 98.9594 72.2353 99.1187 72.0484C100.282 70.6839 100.984 68.9153 100.984 66.9816C100.984 62.6658 97.4852 59.1672 93.1694 59.1672Z" fill="#140E41"/>
<path d="M93.8889 72.4725C93.8889 75.7906 91.1991 78.4805 87.881 78.4805C84.5629 78.4805 81.873 75.7906 81.873 72.4725C81.873 69.1544 84.5629 66.4646 87.881 66.4646C91.1991 66.4646 93.8889 69.1544 93.8889 72.4725Z" fill="#F4F4F4"/>
<path fill-rule="evenodd" clip-rule="evenodd" d="M87.881 66.9646C84.839 66.9646 82.373 69.4306 82.373 72.4725C82.373 75.5145 84.839 77.9805 87.881 77.9805C90.9229 77.9805 93.3889 75.5145 93.3889 72.4725C93.3889 69.4306 90.9229 66.9646 87.881 66.9646ZM81.373 72.4725C81.373 68.8783 84.2868 65.9646 87.881 65.9646C91.4752 65.9646 94.3889 68.8783 94.3889 72.4725C94.3889 76.0668 91.4752 78.9805 87.881 78.9805C84.2868 78.9805 81.373 76.0668 81.373 72.4725Z" fill="#140E41"/>
</svg>
