<svg width="150" height="189" viewBox="0 0 150 189" fill="none" xmlns="http://www.w3.org/2000/svg">
<path fill-rule="evenodd" clip-rule="evenodd" d="M48.3255 1.5C22.9138 1.5001 8.84033 21.7718 8.84033 35.2839V147.039L89.8106 147.04V35.2839C89.8106 20.8132 73.78 1.4999 48.3255 1.5ZM90.3106 147.54C90.8106 147.54 90.8106 147.54 90.8106 147.539V35.2839C90.8106 20.1868 74.2552 0.499899 48.3255 0.5C22.3528 0.500101 7.84033 21.2282 7.84033 35.2839V147.539C7.84033 147.54 7.84033 147.54 8.34033 147.54H7.84033C7.84033 147.816 8.06419 148.04 8.34033 148.04H90.3106C90.5867 148.04 90.8106 147.816 90.8106 147.54H90.3106Z" fill="#140E41"/>
<path fill-rule="evenodd" clip-rule="evenodd" d="M28.4668 23.5038C24.1958 28.1598 22.3853 33.7927 22.3853 37.4493V146.747H76.0847V37.4493C76.0847 29.2664 68.8318 15.931 49.217 15.4405C39.4177 15.1955 32.72 18.8673 28.4668 23.5038ZM76.5847 147.247C77.0847 147.247 77.0847 147.247 77.0847 147.246V37.4493C77.0847 28.7335 69.4087 14.9451 49.242 14.4409C39.1506 14.1885 32.1762 17.9808 27.7299 22.8278C23.3015 27.6554 21.3853 33.5254 21.3853 37.4493V147.246C21.3853 147.247 21.3853 147.247 21.8853 147.247H21.3853C21.3853 147.523 21.6091 147.747 21.8853 147.747H76.5847C76.8609 147.747 77.0847 147.523 77.0847 147.247H76.5847Z" fill="#140E41"/>
<path d="M1 132.803H97.4699V155.678H1V132.803Z" fill="#F4F4F4"/>
<path fill-rule="evenodd" clip-rule="evenodd" d="M0.5 132.803C0.5 132.527 0.723858 132.303 1 132.303H97.4699C97.7461 132.303 97.9699 132.527 97.9699 132.803V155.678C97.9699 155.954 97.7461 156.178 97.4699 156.178H1C0.723858 156.178 0.5 155.954 0.5 155.678V132.803ZM1.5 133.303V155.178H96.9699V133.303H1.5Z" fill="#F4F4F4"/>
<path fill-rule="evenodd" clip-rule="evenodd" d="M0.5 132.803C0.5 132.527 0.723858 132.303 1 132.303H97.4699C97.7461 132.303 97.9699 132.527 97.9699 132.803V155.678C97.9699 155.954 97.7461 156.178 97.4699 156.178H1C0.723858 156.178 0.5 155.954 0.5 155.678V132.803ZM1.5 133.303V155.178H96.9699V133.303H1.5Z" fill="#140E41"/>
<path d="M4.97803 116.891H24.8687V132.803H4.97803V116.891Z" fill="#F4F4F4"/>
<path fill-rule="evenodd" clip-rule="evenodd" d="M4.47803 116.891C4.47803 116.614 4.70188 116.391 4.97803 116.391H24.8687C25.1449 116.391 25.3687 116.614 25.3687 116.891V132.803C25.3687 133.079 25.1449 133.303 24.8687 133.303H4.97803C4.70188 133.303 4.47803 133.079 4.47803 132.803V116.891ZM5.47803 117.391V132.303H24.3687V117.391H5.47803Z" fill="#F4F4F4"/>
<path d="M5.97266 34.8416H23.8743V43.7924H5.97266V34.8416Z" fill="#F4F4F4"/>
<path fill-rule="evenodd" clip-rule="evenodd" d="M5.47266 34.8416C5.47266 34.5654 5.69651 34.3416 5.97266 34.3416H23.8743C24.1504 34.3416 24.3743 34.5654 24.3743 34.8416V43.7924C24.3743 44.0685 24.1504 44.2924 23.8743 44.2924H5.97266C5.69651 44.2924 5.47266 44.0685 5.47266 43.7924V34.8416ZM6.47266 35.3416V43.2924H23.3743V35.3416H6.47266Z" fill="#F4F4F4"/>
<rect x="74.5957" y="116.891" width="17.9016" height="15.9126" fill="#F4F4F4" stroke="#140E41" stroke-linejoin="round"/>
<path d="M74.5957 35.8362H92.4973V44.787H74.5957V35.8362Z" fill="#F4F4F4"/>
<path fill-rule="evenodd" clip-rule="evenodd" d="M74.0957 35.8362C74.0957 35.56 74.3196 35.3362 74.5957 35.3362H92.4973C92.7735 35.3362 92.9973 35.56 92.9973 35.8362V44.787C92.9973 45.0631 92.7735 45.287 92.4973 45.287H74.5957C74.3196 45.287 74.0957 45.0631 74.0957 44.787V35.8362ZM75.0957 36.3362V44.287H91.9973V36.3362H75.0957Z" fill="#F4F4F4"/>
<path d="M129.388 108.437L77.5796 180.044H92.4051L144.213 108.437H129.388Z" fill="#F4F4F4"/>
<path fill-rule="evenodd" clip-rule="evenodd" d="M128.983 108.144C129.077 108.014 129.228 107.937 129.388 107.937H144.213C144.401 107.937 144.573 108.042 144.659 108.21C144.744 108.377 144.729 108.578 144.619 108.73L92.8102 180.337C92.7162 180.467 92.5655 180.544 92.4051 180.544H77.5796C77.3918 180.544 77.2198 180.438 77.1343 180.271C77.0489 180.104 77.0644 179.903 77.1745 179.75L128.983 108.144ZM129.643 108.937L78.5585 179.544H92.1497L143.235 108.937H129.643Z" fill="#F4F4F4"/>
<path d="M107.415 123.355C107.415 133.242 98.9553 141.257 88.5192 141.257C78.0832 141.257 69.623 133.242 69.623 123.355C69.623 113.468 78.0832 105.454 88.5192 105.454C98.9553 105.454 107.415 113.468 107.415 123.355Z" fill="#F4F4F4"/>
<path fill-rule="evenodd" clip-rule="evenodd" d="M88.5192 105.954C78.3335 105.954 70.123 113.77 70.123 123.355C70.123 132.941 78.3335 140.757 88.5192 140.757C98.705 140.757 106.915 132.941 106.915 123.355C106.915 113.77 98.705 105.954 88.5192 105.954ZM69.123 123.355C69.123 113.167 77.8328 104.954 88.5192 104.954C99.2056 104.954 107.915 113.167 107.915 123.355C107.915 133.543 99.2056 141.757 88.5192 141.757C77.8328 141.757 69.123 133.543 69.123 123.355Z" fill="#F4F4F4"/>
<path fill-rule="evenodd" clip-rule="evenodd" d="M130.29 152.697C120.104 152.697 111.894 160.513 111.894 170.098C111.894 179.684 120.104 187.5 130.29 187.5C140.475 187.5 148.686 179.684 148.686 170.098C148.686 160.513 140.475 152.697 130.29 152.697ZM110.894 170.098C110.894 159.91 119.603 151.697 130.29 151.697C140.976 151.697 149.686 159.91 149.686 170.098C149.686 180.286 140.976 188.5 130.29 188.5C119.603 188.5 110.894 180.286 110.894 170.098Z" fill="#140E41"/>
<path d="M98.4644 123.355C98.4644 128.299 94.0118 132.306 88.5191 132.306C83.0264 132.306 78.5737 128.299 78.5737 123.355C78.5737 118.412 83.0264 114.404 88.5191 114.404C94.0118 114.404 98.4644 118.412 98.4644 123.355Z" fill="#F4F4F4"/>
<path fill-rule="evenodd" clip-rule="evenodd" d="M88.5191 114.904C83.2517 114.904 79.0737 118.736 79.0737 123.355C79.0737 127.974 83.2517 131.806 88.5191 131.806C93.7865 131.806 97.9644 127.974 97.9644 123.355C97.9644 118.736 93.7865 114.904 88.5191 114.904ZM78.0737 123.355C78.0737 118.087 82.8011 113.904 88.5191 113.904C94.237 113.904 98.9644 118.087 98.9644 123.355C98.9644 128.623 94.237 132.806 88.5191 132.806C82.8011 132.806 78.0737 128.623 78.0737 123.355Z" fill="#F4F4F4"/>
<path fill-rule="evenodd" clip-rule="evenodd" d="M130.29 161.648C125.022 161.648 120.844 165.479 120.844 170.098C120.844 174.717 125.022 178.549 130.29 178.549C135.557 178.549 139.735 174.717 139.735 170.098C139.735 165.479 135.557 161.648 130.29 161.648ZM119.844 170.098C119.844 164.831 124.572 160.648 130.29 160.648C136.008 160.648 140.735 164.831 140.735 170.098C140.735 175.366 136.008 179.549 130.29 179.549C124.572 179.549 119.844 175.366 119.844 170.098Z" fill="#140E41"/>
<path fill-rule="evenodd" clip-rule="evenodd" d="M4.47803 116.891C4.47803 116.614 4.70188 116.391 4.97803 116.391H24.8687C25.1449 116.391 25.3687 116.614 25.3687 116.891V132.803C25.3687 133.079 25.1449 133.303 24.8687 133.303H4.97803C4.70188 133.303 4.47803 133.079 4.47803 132.803V116.891ZM5.47803 117.391V132.303H24.3687V117.391H5.47803Z" fill="#140E41"/>
<path fill-rule="evenodd" clip-rule="evenodd" d="M5.47266 34.8416C5.47266 34.5654 5.69651 34.3416 5.97266 34.3416H23.8743C24.1504 34.3416 24.3743 34.5654 24.3743 34.8416V43.7924C24.3743 44.0685 24.1504 44.2924 23.8743 44.2924H5.97266C5.69651 44.2924 5.47266 44.0685 5.47266 43.7924V34.8416ZM6.47266 35.3416V43.2924H23.3743V35.3416H6.47266Z" fill="#140E41"/>
<path fill-rule="evenodd" clip-rule="evenodd" d="M74.0957 35.8362C74.0957 35.56 74.3196 35.3362 74.5957 35.3362H92.4973C92.7735 35.3362 92.9973 35.56 92.9973 35.8362V44.787C92.9973 45.0631 92.7735 45.287 92.4973 45.287H74.5957C74.3196 45.287 74.0957 45.0631 74.0957 44.787V35.8362ZM75.0957 36.3362V44.287H91.9973V36.3362H75.0957Z" fill="#140E41"/>
<path fill-rule="evenodd" clip-rule="evenodd" d="M128.982 108.144C129.076 108.014 129.227 107.937 129.387 107.937H144.213C144.401 107.937 144.573 108.042 144.658 108.21C144.744 108.377 144.728 108.578 144.618 108.73L92.8097 180.337C92.7157 180.467 92.565 180.544 92.4046 180.544H77.5791C77.3913 180.544 77.2193 180.438 77.1338 180.271C77.0484 180.104 77.0639 179.903 77.174 179.75L128.982 108.144ZM129.643 108.937L78.558 179.544H92.1492L143.234 108.937H129.643Z" fill="black"/>
<path fill-rule="evenodd" clip-rule="evenodd" d="M88.5192 105.954C78.3335 105.954 70.123 113.77 70.123 123.355C70.123 132.941 78.3335 140.757 88.5192 140.757C98.705 140.757 106.915 132.941 106.915 123.355C106.915 113.77 98.705 105.954 88.5192 105.954ZM69.123 123.355C69.123 113.167 77.8328 104.954 88.5192 104.954C99.2056 104.954 107.915 113.167 107.915 123.355C107.915 133.543 99.2056 141.757 88.5192 141.757C77.8328 141.757 69.123 133.543 69.123 123.355Z" fill="#140E41"/>
<path fill-rule="evenodd" clip-rule="evenodd" d="M88.5191 114.905C83.2517 114.905 79.0737 118.736 79.0737 123.355C79.0737 127.974 83.2517 131.806 88.5191 131.806C93.7865 131.806 97.9644 127.974 97.9644 123.355C97.9644 118.736 93.7865 114.905 88.5191 114.905ZM78.0737 123.355C78.0737 118.088 82.8011 113.905 88.5191 113.905C94.237 113.905 98.9644 118.088 98.9644 123.355C98.9644 128.623 94.237 132.806 88.5191 132.806C82.8011 132.806 78.0737 128.623 78.0737 123.355Z" fill="#140E41"/>
</svg>
