<svg width="109" height="111" viewBox="0 0 109 111" fill="none" xmlns="http://www.w3.org/2000/svg">
<path fill-rule="evenodd" clip-rule="evenodd" d="M57.9712 58.3969C61.352 58.3969 64.0927 55.6562 64.0927 52.2754C64.0927 48.8945 61.352 46.1538 57.9712 46.1538C54.5903 46.1538 51.8496 48.8945 51.8496 52.2754C51.8496 55.6562 54.5903 58.3969 57.9712 58.3969ZM57.9712 59.3969C61.9043 59.3969 65.0927 56.2085 65.0927 52.2754C65.0927 48.3422 61.9043 45.1538 57.9712 45.1538C54.038 45.1538 50.8496 48.3422 50.8496 52.2754C50.8496 56.2085 54.038 59.3969 57.9712 59.3969Z" fill="#140E41"/>
<path fill-rule="evenodd" clip-rule="evenodd" d="M57.9712 54.124C58.9922 54.124 59.8198 53.2964 59.8198 52.2754C59.8198 51.2544 58.9922 50.4268 57.9712 50.4268C56.9502 50.4268 56.1226 51.2544 56.1226 52.2754C56.1226 53.2964 56.9502 54.124 57.9712 54.124ZM57.9712 55.124C59.5444 55.124 60.8198 53.8486 60.8198 52.2754C60.8198 50.7021 59.5444 49.4268 57.9712 49.4268C56.3979 49.4268 55.1226 50.7021 55.1226 52.2754C55.1226 53.8486 56.3979 55.124 57.9712 55.124Z" fill="#140E41"/>
<path fill-rule="evenodd" clip-rule="evenodd" d="M1.49028 56.902L1.49122 56.9067L1.49432 56.922L1.50694 56.9834C1.51818 57.0377 1.53501 57.118 1.55719 57.2212C1.60155 57.4276 1.6673 57.7254 1.75246 58.0893C1.92291 58.8176 2.17056 59.808 2.47968 60.859C2.78927 61.9116 3.15789 63.0159 3.56894 63.975C3.98604 64.9482 4.42442 65.7174 4.85355 66.1465C4.9881 66.2811 5.29943 66.4263 5.86324 66.5208C6.40545 66.6117 7.09835 66.643 7.90071 66.6243C9.50304 66.587 11.4702 66.3526 13.3925 66.0531C15.3113 65.754 17.1699 65.3925 18.5499 65.1055C19.2395 64.9621 19.8089 64.8374 20.2055 64.7486C20.4038 64.7042 20.5589 64.6688 20.6642 64.6446L20.784 64.6169L20.8144 64.6098L20.8237 64.6076L20.939 65.0941C21.0538 65.5807 21.0536 65.5808 21.0536 65.5808L21.0509 65.5814L21.0111 65.5907L20.8886 65.6191C20.7814 65.6438 20.6243 65.6796 20.4239 65.7245C20.0231 65.8142 19.4488 65.9399 18.7535 66.0846C17.3637 66.3736 15.4875 66.7387 13.5465 67.0411C11.609 67.3431 9.59147 67.5852 7.92398 67.624C7.09142 67.6434 6.32816 67.6127 5.69791 67.507C5.08928 67.405 4.51189 67.2191 4.14644 66.8537C3.57556 66.2828 3.07645 65.3645 2.6498 64.3689C2.2171 63.3593 1.83572 62.2136 1.52031 61.1412C1.20442 60.0672 0.952077 59.0576 0.778774 58.3172C0.692062 57.9467 0.624994 57.6429 0.579518 57.4313C0.556777 57.3255 0.539427 57.2428 0.527711 57.1862L0.514392 57.1213L0.510957 57.1044L0.509811 57.0987C0.509811 57.0987 0.509702 57.0982 0.999993 57.0001L0.509811 57.0987C0.455655 56.8279 0.631155 56.564 0.901935 56.5098C1.17271 56.4557 1.43612 56.6313 1.49028 56.902ZM20.939 65.0941L21.0536 65.5808C20.8886 65.0742 20.8666 64.7885 20.8237 64.6076L20.939 65.0941Z" fill="#140E41"/>
<path fill-rule="evenodd" clip-rule="evenodd" d="M107.387 44.0131C107.656 43.9505 107.924 44.1178 107.987 44.3868C108.215 45.3668 108.485 46.812 108.501 48.145C108.509 48.8107 108.454 49.4749 108.284 50.0491C108.114 50.6217 107.814 51.157 107.292 51.4796C107.033 51.64 106.679 51.7582 106.298 51.852C105.908 51.9484 105.447 52.0288 104.947 52.0966C103.946 52.2323 102.756 52.3218 101.592 52.3812C99.2628 52.5001 97.0028 52.5001 96.5005 52.5001H96.5C96.2239 52.5001 96 52.2763 96 52.0001C96 51.724 96.2239 51.5001 96.5 51.5001C96.9989 51.5001 99.2381 51.5001 101.541 51.3825C102.693 51.3237 103.852 51.2359 104.812 51.1057C105.293 51.0405 105.715 50.9658 106.059 50.8811C106.412 50.7939 106.643 50.7053 106.766 50.6292C107.001 50.4836 107.194 50.2071 107.325 49.7651C107.456 49.3246 107.508 48.7712 107.501 48.1569C107.486 46.9302 107.235 45.5664 107.013 44.6134C106.95 44.3445 107.118 44.0757 107.387 44.0131Z" fill="#140E41"/>
<path fill-rule="evenodd" clip-rule="evenodd" d="M74.5837 61.0066C74.8561 61.052 75.0401 61.3096 74.9947 61.582C73.937 67.928 68.1152 70.518 62.8953 69.8631C62.6213 69.8287 62.4271 69.5788 62.4615 69.3048C62.4958 69.0308 62.7458 68.8365 63.0198 68.8709C67.8878 69.4816 73.066 67.0716 74.0083 61.4176C74.0537 61.1452 74.3113 60.9612 74.5837 61.0066Z" fill="#C83936"/>
<path fill-rule="evenodd" clip-rule="evenodd" d="M59.8908 74.2699C59.9362 74.5423 59.7522 74.7999 59.4798 74.8453C52.8999 75.942 46.5155 73.5646 42.0534 69.3754C37.5916 65.1867 35.0146 59.1488 36.1178 52.9003C36.1659 52.6284 36.4252 52.4469 36.6972 52.4949C36.9691 52.5429 37.1506 52.8023 37.1026 53.0742C36.0683 58.9324 38.476 64.6452 42.7378 68.6464C46.9993 72.6471 53.0774 74.8986 59.3154 73.8589C59.5878 73.8135 59.8454 73.9975 59.8908 74.2699Z" fill="#C83936"/>
<path fill-rule="evenodd" clip-rule="evenodd" d="M56.9968 70.4293C57.0359 70.7027 56.8459 70.9559 56.5726 70.995C54.7103 71.261 52.4896 70.8614 50.5567 69.9945C48.6297 69.1301 46.9022 67.7611 46.1215 66.0099C46.0091 65.7577 46.1224 65.4621 46.3746 65.3496C46.6268 65.2372 46.9224 65.3505 47.0349 65.6027C47.6779 67.0452 49.1622 68.273 50.966 69.0821C52.7641 69.8886 54.7933 70.239 56.4311 70.005C56.7045 69.966 56.9578 70.1559 56.9968 70.4293Z" fill="#C83936"/>
<path fill-rule="evenodd" clip-rule="evenodd" d="M54.6584 39.7764C54.3699 39.9966 54.2223 40.1946 54.1678 40.342C54.0719 40.601 53.7843 40.7332 53.5253 40.6373C53.2663 40.5415 53.1341 40.2538 53.23 39.9948C53.3761 39.6001 53.6853 39.2612 54.0517 38.9815C54.4244 38.6971 54.8937 38.4451 55.4208 38.236C56.4749 37.8176 57.811 37.5501 59.1925 37.5591C61.9525 37.5769 65.0257 38.7139 66.2752 42.1333C66.3699 42.3926 66.2365 42.6797 65.9771 42.7745C65.7178 42.8693 65.4307 42.7359 65.3359 42.4765C64.2815 39.5908 61.7026 38.5753 59.186 38.559C57.9292 38.5509 56.7208 38.7959 55.7896 39.1655C55.324 39.3502 54.9406 39.5611 54.6584 39.7764Z" fill="#C83936"/>
<path fill-rule="evenodd" clip-rule="evenodd" d="M95.9538 45.4615C96.2291 45.4403 96.5 45.4999 96.5002 45.4615L97.0002 51.9615C97.0115 52.109 96.9569 52.254 96.8511 52.3574C96.7453 52.4608 96.5991 52.512 96.4519 52.4973L91.4519 51.9974C91.3011 51.9823 91.1652 51.8996 91.0826 51.7726C90.5328 50.9278 89.721 50.6498 89.0874 50.7444C88.4659 50.8371 88.0016 51.2758 88.0016 51.9998C88.0016 52.3871 88.119 52.6382 88.2769 52.8109C88.4426 52.9921 88.6885 53.1249 88.9979 53.2023C89.636 53.3618 90.3883 53.2475 90.778 53.0526C90.8475 53.0179 90.924 52.9998 91.0017 52.9999C92.0498 52.9999 92.8387 53.1322 93.6752 53.3253C93.9611 53.3913 94.2457 53.4625 94.5453 53.5374C95.1311 53.684 95.7745 53.845 96.5981 54.0097C96.8504 54.0601 97.0232 54.2938 96.9976 54.5497C96.4894 59.6311 94.4645 64.6901 93.3955 67.0059C93.2866 67.242 93.0149 67.3551 92.7706 67.2662C92.2881 67.0907 91.8193 66.9333 91.3437 66.7737C90.0195 66.3292 88.6438 65.8674 86.7805 64.9483C86.6097 64.8641 86.5016 64.6902 86.5016 64.4999C86.5016 64.2995 86.4014 64.0789 86.1815 63.8709C85.9618 63.6631 85.6529 63.4998 85.3267 63.4245C84.9989 63.3489 84.6964 63.3712 84.4709 63.4764C84.2633 63.5733 84.0772 63.7592 83.9867 64.1211C83.829 64.7521 84.0931 65.2398 84.5305 65.5145C84.9845 65.7996 85.6124 65.8426 86.137 65.5253C86.2923 65.4314 86.4863 65.429 86.6439 65.5191L92.0513 68.6109C92.2825 68.7431 92.3695 69.0332 92.2493 69.2708C90.0284 73.6575 87.0847 77.2184 83.6165 80.6437C83.4205 80.8373 83.1049 80.8359 82.9107 80.6406L78.1472 75.8525C78.0321 75.7369 77.9807 75.5724 78.0094 75.4119C78.1688 74.5206 77.8813 74.081 77.6312 73.9387C77.3901 73.8016 76.9164 73.7922 76.3552 74.3534C75.876 74.8326 75.8812 75.4523 76.1352 75.877C76.2622 76.0895 76.4411 76.2346 76.6329 76.2961C76.8155 76.3548 77.0501 76.3513 77.3318 76.1961C77.5665 76.0668 77.8613 76.1454 78.0004 76.3744L81.4156 81.9959C81.5306 82.185 81.5074 82.4272 81.3588 82.5912C80.0567 84.0284 78.0503 85.37 75.7645 86.5363C73.4713 87.7065 70.8626 88.7174 68.3252 89.4801C68.0853 89.5522 67.8291 89.4357 67.7258 89.2075C67.4282 88.5501 66.9819 87.3448 66.5365 86.1419C66.4592 85.9331 66.3819 85.7244 66.3054 85.5187C66.0442 84.8158 65.7907 84.1423 65.5719 83.5992C65.3447 83.0352 65.1765 82.6681 65.0866 82.5343C64.965 82.3534 64.9747 82.1145 65.1105 81.944C65.4925 81.4643 65.4503 81.0129 65.2729 80.7464C65.0988 80.4847 64.7194 80.2876 64.1598 80.4742C63.79 80.5974 63.5163 81.007 63.5081 81.4506C63.5042 81.6603 63.5624 81.8485 63.675 81.9931C63.784 82.1332 63.9705 82.2665 64.289 82.3262C64.5033 82.3664 64.6669 82.5409 64.6932 82.7573L65.547 89.7842C65.5786 90.0441 65.4044 90.2843 65.1475 90.335C60.2305 91.3063 55.6622 91.3105 50.7237 90.335C50.4809 90.2871 50.3098 90.0687 50.3211 89.8215L50.6057 83.6379C50.6173 83.3872 50.8129 83.1839 51.0629 83.1627C51.6786 83.1104 52.0275 82.6116 52.0275 81.9935C52.0275 81.3745 51.675 80.8547 51.0497 80.7849C50.3857 80.7107 49.8501 81.1454 49.6422 81.743C49.4374 82.3318 49.5961 82.9267 50.1842 83.2106C50.357 83.294 50.4668 83.469 50.4668 83.6609C50.4668 83.9627 50.3659 84.414 50.2351 84.888C50.0988 85.3821 49.9116 85.9634 49.7054 86.5552C49.2939 87.736 48.7961 88.9889 48.4537 89.7135C48.36 89.9117 48.1482 90.0258 47.9311 89.9949C46.1318 89.7385 43.3833 88.9755 40.7567 87.9672C38.1448 86.9644 35.5645 85.6859 34.1591 84.3641C34.0586 84.2696 34.0016 84.1378 34.0016 83.9999C34.0016 83.8962 34.0339 83.8125 34.0423 83.7907L34.043 83.7889C34.057 83.7525 34.0734 83.718 34.0878 83.6896C34.117 83.6316 34.1555 83.5643 34.198 83.4934C34.2841 83.3498 34.405 83.1612 34.5491 82.9426C34.8381 82.5042 35.2339 81.9244 35.6625 81.3001C35.7893 81.1154 35.9189 80.9269 36.0496 80.7368C36.807 79.6352 37.5999 78.4819 38.0804 77.7305C38.2038 77.5375 38.4425 77.4531 38.6598 77.5255C39.132 77.6829 39.6419 77.4286 39.8641 76.9696C39.9697 76.7513 39.9995 76.5009 39.922 76.2478C39.8447 75.9952 39.6471 75.6978 39.2243 75.4159C38.6677 75.0448 38.0377 75.1444 37.658 75.4676C37.4708 75.627 37.352 75.834 37.3218 76.0623C37.2921 76.2869 37.3424 76.5769 37.5727 76.9142C37.6755 77.0648 37.6882 77.2593 37.6058 77.422C37.5429 77.5464 37.4161 77.6956 37.3051 77.8207C37.1771 77.965 37.0097 78.1422 36.8159 78.341C36.4275 78.7394 35.9189 79.2389 35.376 79.7625C34.2895 80.8104 33.0541 81.9654 32.3405 82.6231C32.1688 82.7814 31.9103 82.7998 31.718 82.6672C27.6032 79.8325 24.5564 74.613 22.7652 70.9511C22.6485 70.7125 22.7386 70.4244 22.9705 70.2949L28.7579 67.0633C28.9217 66.9718 29.1229 66.9798 29.279 67.0838C29.8314 67.4521 30.4567 67.3569 30.857 67.0011C31.2388 66.6618 31.4605 66.0356 31.0544 65.2235C30.8508 64.8162 30.5905 64.5965 30.3398 64.4916C30.086 64.3853 29.804 64.3807 29.5314 64.4695C28.9794 64.6492 28.5016 65.2012 28.5016 65.9532C28.5016 66.0868 28.4481 66.215 28.353 66.3089C28.2816 66.3794 28.1895 66.4323 28.1393 66.4605C28.073 66.4978 27.9926 66.5385 27.9038 66.581C27.7253 66.6664 27.4917 66.7689 27.223 66.8805C26.6846 67.104 25.9882 67.3709 25.2746 67.6198C24.5625 67.8682 23.8235 68.102 23.2026 68.2566C22.893 68.3336 22.6021 68.3936 22.3533 68.4246C22.1282 68.4525 21.8569 68.4687 21.6349 68.3956C21.4474 68.3338 21.3225 68.1934 21.2576 68.1126C21.1788 68.0145 21.1048 67.8956 21.0359 67.7699C20.8969 67.5165 20.7476 67.1788 20.5937 66.7864C20.2845 65.998 19.9365 64.9365 19.5968 63.7653C18.9182 61.4255 18.2585 58.5985 18.0039 56.562C17.9697 56.288 18.164 56.0381 18.438 56.0038C18.712 55.9696 18.9619 56.1639 18.9962 56.438C19.2416 58.4014 19.886 61.1724 20.5572 63.4867C20.8925 64.6426 21.2309 65.6722 21.5247 66.4213C21.6723 66.7976 21.8036 67.0902 21.9127 67.289C21.9514 67.3597 21.9836 67.4116 22.0089 67.448C22.0537 67.4481 22.1252 67.4452 22.23 67.4322C22.423 67.4082 22.6707 67.3584 22.9611 67.2862C23.5402 67.142 24.2471 66.9191 24.9453 66.6756C25.6419 66.4326 26.3202 66.1725 26.8395 65.9569C27.0997 65.8489 27.3157 65.7538 27.4724 65.6789C27.4883 65.6713 27.5033 65.664 27.5176 65.657C27.6324 64.6011 28.3533 63.8013 29.2219 63.5186C29.6993 63.3632 30.2298 63.3614 30.726 63.5692C31.2253 63.7782 31.6525 64.1835 31.9489 64.7762C32.5428 65.9641 32.2645 67.088 31.5213 67.7486C30.8653 68.3317 29.8815 68.5139 28.998 68.0746L23.8733 70.9361C25.6217 74.4326 28.3818 78.9942 31.9602 81.6128C32.6854 80.9405 33.7406 79.9505 34.6819 79.0427C35.2221 78.5216 35.7221 78.0304 36.0998 77.6429C36.2891 77.4488 36.4441 77.2844 36.5571 77.1571C36.351 76.7468 36.2778 76.3292 36.3305 75.9312C36.3964 75.4324 36.6543 75.0088 37.0098 74.7062C37.7156 74.1053 38.8356 73.9549 39.779 74.5838C40.3561 74.9686 40.7211 75.442 40.8782 75.9551C41.0351 76.4676 40.9711 76.9776 40.7642 77.4051C40.4127 78.1316 39.6141 78.665 38.7335 78.5617C38.2401 79.3158 37.5369 80.3387 36.8715 81.3065C36.7412 81.4959 36.6124 81.6833 36.487 81.8661C36.0578 82.4911 35.6671 83.0635 35.384 83.493C35.2828 83.6465 35.1971 83.7791 35.1292 83.8879C36.4424 84.9867 38.7016 86.107 41.1151 87.0336C43.5195 87.9567 46.0005 88.6589 47.7038 88.9472C48.0143 88.2431 48.4165 87.2149 48.7611 86.2261C48.9632 85.6463 49.1427 85.0875 49.2711 84.6221C49.3506 84.334 49.4046 84.1015 49.4355 83.9291C48.5531 83.3196 48.4028 82.2622 48.6977 81.4145C49.0215 80.4835 49.9283 79.6534 51.1607 79.7911C52.4318 79.9331 53.0275 81.0193 53.0275 81.9935C53.0275 82.8495 52.5657 83.7876 51.5866 84.0776L51.34 89.4352C55.8361 90.2746 60.0217 90.2733 64.498 89.4414L63.741 83.2115C63.3834 83.0837 63.0952 82.8763 62.8859 82.6074C62.6132 82.257 62.5008 81.8366 62.5083 81.4322C62.5227 80.6474 62.9989 79.807 63.8435 79.5255C64.7838 79.2121 65.6545 79.515 66.1054 80.1922C66.4996 80.7845 66.5138 81.5739 66.0893 82.2839C66.2144 82.5353 66.3549 82.8666 66.4995 83.2256C66.7238 83.7826 66.9816 84.4675 67.2428 85.1703C67.3209 85.3805 67.3992 85.592 67.477 85.802C67.8409 86.7844 68.1934 87.7362 68.4638 88.3921C70.8166 87.6609 73.2054 86.7195 75.31 85.6456C77.3952 84.5816 79.1721 83.4022 80.3632 82.1895L77.3673 77.2582C77.0097 77.3607 76.655 77.3535 76.3272 77.2483C75.8721 77.1021 75.5103 76.7806 75.2769 76.3903C74.81 75.6095 74.8151 74.4793 75.6481 73.6463C76.399 72.8954 77.3549 72.6311 78.1257 73.0695C78.8268 73.4683 79.1422 74.3189 79.032 75.324L83.2671 79.581C86.4209 76.4237 89.0862 73.1629 91.1396 69.2415L86.3849 66.5229C85.5777 66.8879 84.6743 66.7856 83.9987 66.3614C83.2301 65.8787 82.7442 64.9682 83.0166 63.8786C83.1761 63.2405 83.5525 62.8014 84.048 62.5702C84.5257 62.3473 85.0669 62.3383 85.5516 62.4502C86.0379 62.5624 86.5102 62.8053 86.8687 63.1444C87.1531 63.4135 87.385 63.7634 87.4684 64.1713C89.1403 64.9785 90.3721 65.392 91.6193 65.8107C91.9672 65.9274 92.3162 66.0446 92.6764 66.1708C93.7245 63.823 95.4251 59.3848 95.9538 54.8974C95.3082 54.759 94.7572 54.6214 94.2675 54.499C93.9757 54.4261 93.7056 54.3586 93.4503 54.2996C92.6926 54.1247 92.0069 54.0091 91.1107 54.0004C90.4951 54.2673 89.5653 54.3749 88.7554 54.1724C88.3147 54.0622 87.8732 53.8513 87.5389 53.4856C87.1968 53.1114 87.0016 52.6125 87.0016 51.9998C87.0016 50.7238 87.8866 49.9125 88.9398 49.7553C89.9179 49.6093 91.0259 50.0172 91.7798 51.0252L95.9573 51.4429L95.5031 45.5382C95.5 45.4999 95.6785 45.4827 95.9538 45.4615Z" fill="#C83936"/>
<path fill-rule="evenodd" clip-rule="evenodd" d="M90.2139 11.4489C100.257 19.4488 106.138 31.0675 108.316 43.91C108.384 44.3113 108.114 44.5829 107.928 44.7181C107.725 44.8655 107.451 44.9838 107.155 45.0839C106.551 45.2875 105.698 45.4651 104.698 45.6191C102.69 45.9283 99.9956 46.1557 97.2957 46.281C94.595 46.4063 91.8715 46.4302 89.8039 46.3287C88.7733 46.2781 87.888 46.1956 87.2452 46.0743C86.9274 46.0143 86.6414 45.9399 86.4203 45.8423C86.31 45.7936 86.192 45.7289 86.0915 45.6391C85.99 45.5486 85.8766 45.4045 85.8488 45.2023C84.4682 35.1814 74.8803 27.8775 63.7169 26.1287C52.5868 24.385 40.0587 28.2034 32.9322 40.2544C31.1923 43.1965 30.6995 46.3147 30.4348 48.9589C30.3923 49.3836 30.3553 49.801 30.3196 50.2048C30.2457 51.0391 30.1769 51.8156 30.075 52.4795C29.9264 53.4475 29.689 54.3433 29.1325 54.8974C28.9462 55.0828 28.6669 55.2181 28.3841 55.3255C28.085 55.4391 27.7146 55.5458 27.2907 55.6467C26.4418 55.849 25.3352 56.0386 24.0648 56.2143C21.5213 56.5661 18.2793 56.8675 15.0369 57.0993C11.7932 57.3312 8.54118 57.4939 5.97526 57.5674C4.69274 57.6041 3.57797 57.6186 2.71972 57.6081C2.29091 57.6028 1.92192 57.5912 1.62598 57.5725C1.34116 57.5546 1.09059 57.5283 0.918242 57.4843C0.722638 57.4344 0.576249 57.2718 0.547132 57.072C-0.488042 49.9699 0.66703 36.8215 7.34354 24.9791C14.0374 13.106 26.277 2.55836 47.3518 0.72682C66.006 -0.894355 80.1666 3.44564 90.2139 11.4489ZM89.5909 12.231C79.7812 4.41714 65.8892 0.11957 47.4384 1.72307C26.7153 3.52403 14.758 13.864 8.21463 25.4702C1.76896 36.9031 0.572354 49.5771 1.48575 56.5593C1.5454 56.5646 1.61298 56.5697 1.68892 56.5745C1.96153 56.5917 2.31206 56.603 2.73203 56.6081C3.57133 56.6185 4.67115 56.6043 5.94664 56.5678C8.49677 56.4948 11.7345 56.3328 14.9656 56.1019C18.1979 55.8708 21.4155 55.5712 23.9278 55.2237C25.1852 55.0498 26.2556 54.8654 27.059 54.674C27.4613 54.5781 27.7859 54.483 28.029 54.3907C28.2883 54.2922 28.3984 54.2172 28.4269 54.1888C28.7295 53.8875 28.9377 53.2975 29.0866 52.3278C29.1836 51.6953 29.2475 50.9729 29.3194 50.1605C29.3557 49.7497 29.3941 49.316 29.4398 48.8593C29.7081 46.179 30.2171 42.881 32.0714 39.7454C39.4444 27.2776 52.4161 23.3461 63.8716 25.1407C75.2433 26.9222 85.2882 34.3864 86.8195 44.9254C86.8211 44.9261 86.8226 44.9268 86.8242 44.9275C86.9414 44.9792 87.1396 45.0367 87.4307 45.0916C88.0056 45.2002 88.837 45.2801 89.853 45.3299C91.8786 45.4294 94.5683 45.4065 97.2493 45.2821C99.9311 45.1576 102.587 44.9324 104.546 44.6307C105.53 44.4792 106.315 44.3118 106.835 44.1364C107.066 44.0583 107.218 43.9876 107.306 43.9321C105.141 31.3392 99.3671 20.0183 89.5909 12.231Z" fill="#140E41"/>
<path d="M90.5 110H16V93C17.5 89.5 19.7 92.15 23 90.5C26 89 26.5 87.3333 27 86H102V102.5C102 106 100 107 97 107C93.5 107 92 109 90.5 110Z" fill="white"/>
<path fill-rule="evenodd" clip-rule="evenodd" d="M26.0318 86.3244C26.105 86.1293 26.2916 86 26.5 86H101.5C101.776 86 102 86.2239 102 86.5V103C102 104.846 101.468 106.143 100.434 106.956C99.4258 107.748 98.0368 108 96.5 108C93.9514 108 92.6033 109.089 91.3677 110.088C91.0037 110.382 90.6496 110.668 90.2774 110.916C90.1952 110.971 90.0987 111 90 111H15.5C15.2239 111 15 110.776 15 110.5V93.5C15 93.4323 15.0138 93.3653 15.0404 93.303C15.4407 92.369 15.9185 91.7734 16.5133 91.4314C17.1024 91.0926 17.7338 91.0465 18.3332 91.0563C18.5476 91.0598 18.7616 91.0698 18.9768 91.0799C19.9902 91.1272 21.0303 91.1758 22.2764 90.5528C23.7169 89.8325 24.5254 89.0892 25.0336 88.3928C25.5017 87.7513 25.7322 87.1307 25.9631 86.5088C25.9859 86.4474 26.0088 86.3859 26.0318 86.3244ZM26.8477 87C26.6287 87.5882 26.3543 88.2793 25.8414 88.9822C25.2246 89.8275 24.2831 90.6675 22.7236 91.4472C21.224 92.197 19.8982 92.1301 18.875 92.0784C18.6774 92.0684 18.491 92.059 18.3168 92.0562C17.7662 92.0472 17.3601 92.098 17.0117 92.2983C16.6822 92.4878 16.337 92.8516 16 93.6046V110H89.8447C90.0885 109.827 90.3446 109.619 90.6219 109.393C91.8745 108.373 93.5597 107 96.5 107C97.9632 107 99.0742 106.752 99.8161 106.169C100.532 105.607 101 104.654 101 103V87H26.8477Z" fill="#140E41"/>
<path fill-rule="evenodd" clip-rule="evenodd" d="M25.5582 97.6769C25.3266 97.76 25.0526 97.756 24.8007 97.6161C24.6299 97.5212 24.5404 97.384 24.5203 97.3533C24.5198 97.3524 24.5193 97.3517 24.5189 97.351C24.4844 97.2984 24.4597 97.2489 24.4442 97.2154C24.4119 97.146 24.3853 97.0729 24.365 97.0111C24.325 96.8892 24.2845 96.7352 24.2646 96.6002C24.2645 96.5994 24.2643 96.5985 24.2642 96.5977C24.2577 96.5535 24.2367 96.412 24.2647 96.2603C24.2648 96.2596 24.265 96.2587 24.2652 96.2576C24.2735 96.2115 24.331 95.8919 24.657 95.7166C24.8933 95.5895 25.1086 95.6139 25.2608 95.6665C25.2766 95.6382 25.2945 95.6087 25.3135 95.5815C25.3283 95.5604 25.3762 95.4924 25.4555 95.4262C25.4907 95.3969 25.8097 95.1309 26.2327 95.309C26.4281 95.3913 26.5374 95.5318 26.5909 95.6232C26.6433 95.7128 26.6657 95.7934 26.6758 95.8368C26.6957 95.9228 26.6964 95.9942 26.6964 96.0208C26.6964 96.2034 26.6311 96.3707 26.5227 96.5008C26.4825 96.5884 26.4233 96.7167 26.3599 96.8384C26.2799 96.992 26.1534 97.2159 25.9841 97.3919C25.8995 97.4799 25.7583 97.6052 25.5582 97.6769Z" fill="#140E41"/>
<path fill-rule="evenodd" clip-rule="evenodd" d="M32.72 102.796C32.7726 102.799 32.8295 102.801 32.8904 102.801C33.3046 102.801 33.6404 102.465 33.6404 102.051C33.6404 101.637 33.3046 101.301 32.8904 101.301C32.7878 101.301 32.7122 101.29 32.6239 101.277C32.6209 101.276 32.6176 101.276 32.6141 101.275C32.5745 101.269 32.5066 101.258 32.4406 101.253C32.3654 101.248 32.2395 101.244 32.096 101.282C31.7387 101.378 31.5605 101.643 31.4731 101.821C31.3948 101.981 31.3344 102.182 31.2782 102.382C31.1661 102.781 31.3984 103.195 31.7971 103.307C32.1933 103.418 32.6047 103.19 32.72 102.796Z" fill="#140E41"/>
<path fill-rule="evenodd" clip-rule="evenodd" d="M81.0762 97.4152C81.2615 97.7857 81.1113 98.2362 80.7408 98.4215C80.7067 98.4385 80.6666 98.4606 80.6207 98.4859C80.3979 98.6086 80.0404 98.8056 79.5937 98.8526C79.1818 98.896 78.8127 98.5972 78.7693 98.1852C78.726 97.7733 79.0247 97.4042 79.4367 97.3609C79.5134 97.3528 79.5753 97.3335 79.6591 97.2944C79.7065 97.2722 79.7572 97.2455 79.8274 97.2076C79.835 97.2035 79.8427 97.1993 79.8507 97.195C79.9127 97.1615 79.9885 97.1206 80.07 97.0798C80.4405 96.8946 80.891 97.0448 81.0762 97.4152Z" fill="#140E41"/>
<path fill-rule="evenodd" clip-rule="evenodd" d="M95.1757 92.424C95.4203 92.489 95.6351 92.5373 95.8004 92.5696C95.8835 92.5859 95.9577 92.5988 96.0192 92.6079C96.0206 92.6081 96.022 92.6083 96.0236 92.6086C96.0596 92.6139 96.1604 92.6289 96.2552 92.6245C96.2746 92.6236 96.3091 92.6213 96.3511 92.6142C96.3796 92.6093 96.4782 92.5921 96.5885 92.5314C96.6936 92.4737 96.9981 92.2592 96.9773 91.8362C96.9616 91.5171 96.7572 91.3386 96.7227 91.3085C96.7222 91.308 96.7217 91.3076 96.7213 91.3073C96.6228 91.221 96.5212 91.1805 96.5099 91.1759C96.5094 91.1758 96.5091 91.1756 96.5089 91.1756C96.4777 91.1625 96.4505 91.1534 96.4341 91.1482C96.3734 91.1287 96.2987 91.1109 96.228 91.0954C96.075 91.0618 95.835 91.016 95.4923 90.9587C95.4157 90.945 95.3394 90.9436 95.2654 90.9531C95.0428 90.9818 94.842 91.11 94.7229 91.3028C94.679 91.3737 94.6464 91.4531 94.6279 91.5388C94.6094 91.6244 94.6063 91.7101 94.6169 91.7928C94.6456 92.0154 94.7738 92.2163 94.9666 92.3354C95.0301 92.3746 95.1003 92.4049 95.1757 92.424ZM96.2613 91.1271C96.2655 91.1275 96.2679 91.1278 96.268 91.1278C96.2681 91.1279 96.266 91.1277 96.2613 91.1271Z" fill="#140E41"/>
<path fill-rule="evenodd" clip-rule="evenodd" d="M47.25 97C47.25 96.5858 47.5858 96.25 48 96.25H48.5341C48.9483 96.25 49.2841 96.5858 49.2841 97C49.2841 97.4142 48.9483 97.75 48.5341 97.75H48C47.5858 97.75 47.25 97.4142 47.25 97Z" fill="#140E41"/>
</svg>
