<svg width="128" height="101" viewBox="0 0 128 101" fill="none" xmlns="http://www.w3.org/2000/svg">
<path fill-rule="evenodd" clip-rule="evenodd" d="M98.1138 50.8748C96.5494 49.3832 94.171 47.2051 90.7869 44.2404L91.4458 43.4882C94.8369 46.459 97.2264 48.6469 98.8039 50.1511C99.5924 50.903 100.18 51.4861 100.59 51.912C100.794 52.1248 100.957 52.301 101.079 52.441C101.193 52.5723 101.293 52.6958 101.353 52.7955C101.533 53.098 101.646 53.5056 101.717 53.8479C101.772 54.1133 101.809 54.3735 101.831 54.5784C103.834 56.625 106.972 60.5556 109.68 64.6659C111.064 66.7673 112.344 68.9267 113.305 70.9159C114.26 72.8928 114.924 74.7488 115.033 76.2298C115.069 76.7155 114.931 77.254 114.706 77.7921C114.477 78.3383 114.141 78.9267 113.735 79.5269C112.923 80.7276 111.802 82.016 110.604 83.1658C109.407 84.3141 108.115 85.3431 106.954 86.0123C106.374 86.3463 105.808 86.602 105.29 86.7314C104.779 86.8588 104.249 86.8803 103.796 86.6535C100.457 84.9787 95.9488 81.7229 91.9008 78.451C87.8527 75.1791 84.2115 71.8478 82.6136 70.0004C81.2075 68.3747 80.3606 66.9838 80.0937 65.6697C79.8515 64.4771 80.0972 63.4032 80.7224 62.3493C80.4793 62.1863 80.2026 62.0117 79.9214 61.8342C79.7889 61.7506 79.6554 61.6664 79.524 61.5824C79.2478 61.4061 78.9806 61.2306 78.7708 61.0741C78.6662 60.9961 78.5662 60.9157 78.4832 60.8364C78.4125 60.7689 78.3045 60.657 78.2441 60.5125L79.167 60.1273C79.1537 60.0954 79.1407 60.0787 79.1407 60.0787C79.1407 60.0787 79.1494 60.0899 79.1737 60.1131C79.2152 60.1528 79.2793 60.2058 79.3687 60.2725C79.5468 60.4054 79.7873 60.564 80.0622 60.7397C80.179 60.8142 80.3022 60.892 80.4281 60.9714C80.8765 61.2542 81.3587 61.5583 81.7021 61.8167C81.9162 61.9778 81.9652 62.2791 81.8132 62.4998C81.1085 63.523 80.8661 64.4482 81.0737 65.4708C81.2887 66.5294 81.9988 67.7609 83.3699 69.3462C84.9073 71.1237 88.4914 74.4095 92.5294 77.6733C96.5674 80.9371 101.006 84.1356 104.245 85.7596C104.391 85.8329 104.644 85.862 105.047 85.7612C105.442 85.6626 105.919 85.4545 106.454 85.1459C107.523 84.5299 108.751 83.5581 109.911 82.4443C111.07 81.3318 112.143 80.0966 112.907 78.9665C113.29 78.4012 113.588 77.8724 113.783 77.4063C113.981 76.9322 114.055 76.5633 114.036 76.3034C113.941 75.0166 113.346 73.2998 112.404 71.3509C111.469 69.4143 110.214 67.2947 108.845 65.2161C106.103 61.0543 102.929 57.1007 100.995 55.1547C100.911 55.07 100.86 54.9581 100.851 54.839C100.838 54.6617 100.802 54.3597 100.738 54.0518C100.671 53.731 100.585 53.4602 100.494 53.3074C100.494 53.3075 100.494 53.3075 100.494 53.3074C100.493 53.3067 100.49 53.3017 100.483 53.2916C100.475 53.2805 100.464 53.2657 100.449 53.2468C100.42 53.2088 100.379 53.1595 100.325 53.0979C100.218 52.9747 100.067 52.8113 99.8689 52.6051C99.4729 52.1933 98.8963 51.6209 98.1138 50.8748Z" fill="#140E41"/>
<path fill-rule="evenodd" clip-rule="evenodd" d="M42.107 42.5287L45.4607 38.2857L46.2453 38.9058L43.2072 42.7494L60.8319 56.1729C60.8902 56.0829 60.9552 55.9786 61.0258 55.8614C61.253 55.4845 61.5274 54.9945 61.816 54.4606C62.3927 53.3938 63.0163 52.1708 63.4142 51.3703L64.3097 51.8155C63.9085 52.6225 63.2795 53.8563 62.6957 54.9361C62.4041 55.4755 62.1212 55.9812 61.8823 56.3776C61.7631 56.5754 61.6517 56.7512 61.5535 56.8924C61.4646 57.0201 61.3585 57.1615 61.2497 57.254C61.1629 57.3277 61.0493 57.3869 60.9604 57.4299C60.8586 57.479 60.7347 57.5321 60.5954 57.5875C60.316 57.6988 59.9532 57.8284 59.5375 57.967C58.7049 58.2446 57.6409 58.5645 56.5681 58.8534C55.4969 59.1419 54.4067 59.4022 53.5245 59.5579C53.0848 59.6356 52.6839 59.6895 52.3573 59.7059C52.1943 59.714 52.0376 59.7135 51.8975 59.6983C51.7688 59.6843 51.6011 59.6531 51.4539 59.5639C50.9468 59.2568 48.791 57.6851 46.6143 56.0087C45.5198 55.1656 44.4094 54.2881 43.4849 53.5184C42.5717 52.7582 41.8076 52.0769 41.4318 51.6348C41.0282 51.1601 40.8909 50.4473 40.8603 49.7335C40.8288 48.9957 40.9083 48.1433 41.0369 47.2891C41.2535 45.8504 41.6202 44.3419 41.88 43.2734C41.9286 43.0734 41.9734 42.8889 42.0129 42.7231C42.0297 42.6522 42.0619 42.5859 42.107 42.5287ZM59.9549 56.762C59.7449 56.8398 59.4977 56.9262 59.2212 57.0184C58.4095 57.289 57.3643 57.6034 56.3081 57.8878C55.2504 58.1727 54.1918 58.4247 53.3506 58.5732C52.9286 58.6477 52.5741 58.6938 52.3073 58.7071C52.1735 58.7138 52.074 58.7116 52.0054 58.7041C51.9776 58.7011 51.9603 58.6978 51.9511 58.6958C51.4609 58.3915 49.3832 56.879 47.2245 55.2164C46.1353 54.3775 45.0358 53.5084 44.1247 52.7498C43.2021 51.9818 42.5048 51.3532 42.1937 50.9871C42.018 50.7804 41.888 50.36 41.8594 49.6907C41.8318 49.0454 41.9013 48.2648 42.0258 47.4379C42.2235 46.1243 42.5504 44.7513 42.8054 43.7004L59.9549 56.762Z" fill="#140E41"/>
<path fill-rule="evenodd" clip-rule="evenodd" d="M41.1385 53.6429L41.7985 51.6898L42.7458 52.0099L42.0859 53.963L41.1385 53.6429ZM51.0819 58.9382L49.4657 60.3121L48.818 59.5502L50.4343 58.1763L51.0819 58.9382Z" fill="#140E41"/>
<path fill-rule="evenodd" clip-rule="evenodd" d="M45.7464 7.93045C45.6278 7.98861 45.5094 8.04667 45.3905 8.10327C43.5311 8.98837 41.3233 11.2376 41.0365 14.8455C40.9748 15.6216 41.3662 16.6254 42.1337 17.7751C42.8885 18.9059 43.951 20.0961 45.0945 21.2222C47.3805 23.4736 49.9312 25.4119 50.8157 26.0267C51.7894 26.7034 52.7053 27.7867 53.4646 28.8212C54.0432 29.6096 54.5539 30.4031 54.9396 31.0023C55.0618 31.1922 55.1715 31.3626 55.2668 31.5071C55.2777 31.5237 55.2876 31.5409 55.2965 31.5586C56.8334 34.629 61.7582 43.3908 64.1118 46.6848C65.2523 48.281 67.1877 49.9592 69.0705 51.3093C70.0071 51.981 70.9199 52.5637 71.6978 53.007C72.4865 53.4564 73.1055 53.7447 73.4636 53.8498C74.0949 54.0352 75.0614 53.8147 75.8902 53.1708C76.699 52.5423 77.2888 51.5744 77.246 50.392C77.2229 49.7516 77.1181 49.3388 76.9351 49.0068C76.7496 48.6704 76.4586 48.3701 75.9768 47.9951C75.6525 47.7427 75.2692 47.4763 74.8012 47.1511C74.561 46.9842 74.2985 46.8017 74.0102 46.5977C73.1718 46.0045 72.1506 45.2525 70.9185 44.227C68.4023 42.1328 66.9583 39.7455 65.8974 37.3448C65.3734 36.1592 64.941 34.9657 64.5224 33.8102L64.5114 33.78C64.0874 32.6095 63.6774 31.4803 63.193 30.4043C62.6798 29.2644 62.2963 27.8989 61.9199 26.424C61.8256 26.0546 61.7317 25.6781 61.6362 25.2952C61.347 24.1354 61.043 22.9165 60.6691 21.6574C59.6775 18.3184 58.2126 14.7676 55.3352 11.6247C52.4147 8.43472 50.3829 7.39066 48.911 7.19155C47.6117 7.01577 46.6724 7.47637 45.7464 7.93045ZM49.0451 6.20058C50.8624 6.44643 53.0944 7.69626 56.0728 10.9495C59.0944 14.2498 60.615 17.9627 61.6277 21.3727C62.0085 22.6551 62.3201 23.9046 62.6105 25.069C62.705 25.4478 62.7972 25.8177 62.8888 26.1767C63.2654 27.6521 63.6311 28.9413 64.1048 29.9938C64.6073 31.11 65.0298 32.2749 65.4516 33.4394L65.4575 33.4555C65.8794 34.6202 66.302 35.7865 66.812 36.9406C67.833 39.2507 69.1968 41.4929 71.5582 43.4584C72.765 44.4627 73.7642 45.1987 74.5878 45.7814C74.8538 45.9696 75.1053 46.1445 75.3415 46.3086C75.826 46.6455 76.2455 46.937 76.5911 47.206C77.114 47.613 77.529 48.0127 77.8109 48.5241C78.0952 49.0399 78.2189 49.6228 78.2454 50.3559C78.3019 51.9205 77.5142 53.1753 76.5037 53.9604C75.5132 54.73 74.2185 55.1138 73.1818 54.8093C72.7059 54.6696 72.0026 54.3317 71.2027 53.8758C70.3921 53.4139 69.4502 52.8121 68.4878 52.122C66.5728 50.7488 64.5333 48.9948 63.2982 47.2662C60.9074 43.92 55.977 35.146 54.4156 32.0327C54.316 31.8813 54.2058 31.7101 54.0858 31.5237C53.7016 30.9268 53.2167 30.1737 52.6584 29.4129C51.9132 28.3975 51.0771 27.4262 50.245 26.8479C49.3238 26.2076 46.7271 24.2336 44.3928 21.9347C43.2261 20.7857 42.1103 19.5413 41.302 18.3303C40.5064 17.1384 39.9501 15.8934 40.0397 14.7662C40.358 10.7607 42.8181 8.22022 44.9607 7.20034C45.0676 7.14946 45.179 7.09432 45.295 7.03687C46.214 6.58175 47.426 5.98155 49.0451 6.20058Z" fill="#140E41"/>
<path fill-rule="evenodd" clip-rule="evenodd" d="M81.9395 32.161C85.9923 35.1505 89.775 38.6866 91.5414 40.7348C92.0158 41.2848 92.0275 42.0996 91.8672 42.9128C91.7007 43.757 91.317 44.7618 90.7887 45.8512C89.7295 48.0354 88.0409 50.6561 86.1462 53.1885C84.2502 55.7227 82.1331 58.1878 80.207 60.0586C79.2445 60.9935 78.321 61.7884 77.4898 62.3702C76.6744 62.941 75.8892 63.3493 75.2131 63.4328C75.0491 63.453 74.8857 63.4226 74.7529 63.3862C74.612 63.3476 74.4612 63.2896 74.3071 63.2206C73.9987 63.0825 73.638 62.8825 73.2524 62.6462C72.479 62.1723 71.5633 61.5263 70.6898 60.862C69.8158 60.1972 68.9736 59.5061 68.3474 58.9388C68.0356 58.6563 67.7688 58.3968 67.577 58.1821C67.4821 58.0759 67.3955 57.9695 67.3299 57.8692C67.2972 57.8191 67.2629 57.7602 67.2357 57.6958C67.2112 57.6376 67.1763 57.5375 67.1803 57.4158C67.181 57.3915 67.1836 57.3673 67.1879 57.3433C67.4585 55.8415 66.7061 54.5792 65.7587 53.6234C64.8645 52.7214 63.8692 52.169 63.6457 52.045C63.6337 52.0383 63.6239 52.0328 63.6164 52.0286C60.4877 50.2651 55.9255 47.5027 51.7477 44.3963C47.5921 41.3063 43.7353 37.818 42.1093 34.5906C41.9589 34.2921 41.9802 33.9767 42.0472 33.7216C42.1147 33.4647 42.2416 33.2157 42.3775 32.9977C42.5369 32.7419 42.728 32.4986 42.9052 32.2951C42.4689 31.8112 41.9703 31.1151 41.587 30.2777C41.0934 29.1993 40.7772 27.8545 41.0689 26.4126C41.3716 24.9165 42.3415 23.977 43.4237 23.4137C44.4945 22.8564 45.7008 22.6502 46.5816 22.6063L46.6314 23.605C45.8402 23.6445 44.7879 23.831 43.8854 24.3008C42.9944 24.7646 42.2766 25.4864 42.0491 26.6108C41.8106 27.7894 42.0633 28.9157 42.4963 29.8615C42.9308 30.8108 43.5327 31.5462 43.9367 31.9202C44.0368 32.0128 44.0947 32.1423 44.097 32.2787C44.0992 32.4151 44.0457 32.5465 43.9488 32.6424C43.7476 32.8416 43.4416 33.1809 43.2261 33.5267C43.1179 33.7002 43.0465 33.8534 43.0144 33.9757C42.9819 34.0996 43.0022 34.1402 43.0024 34.1407C44.512 37.1371 48.19 40.5048 52.3444 43.5938C56.4766 46.6663 60.9997 49.4058 64.1075 51.1575C64.1148 51.1616 64.1247 51.1671 64.1372 51.174C64.3697 51.3028 65.4716 51.9134 66.4689 52.9194C67.487 53.9465 68.4735 55.4673 68.1974 57.3652C68.226 57.4034 68.267 57.4534 68.3227 57.5158C68.4805 57.6924 68.7178 57.9249 69.0188 58.1977C69.6184 58.741 70.4374 59.4136 71.2952 60.066C72.1535 60.7188 73.0402 61.3433 73.7748 61.7935C74.1433 62.0193 74.463 62.1947 74.7159 62.308C74.8425 62.3647 74.9425 62.4013 75.017 62.4217C75.0695 62.4361 75.0952 62.4384 75.1005 62.4391C75.5214 62.3839 76.1345 62.0983 76.9163 61.551C77.6883 61.0106 78.5696 60.2549 79.5103 59.3413C81.3904 57.5152 83.4732 55.0919 85.3455 52.5894C87.2192 50.0851 88.8676 47.5208 89.889 45.4148C90.401 44.3591 90.7435 43.4425 90.8861 42.7193C91.0347 41.9652 90.9383 41.5667 90.7841 41.3879C89.0763 39.4076 85.3522 35.9209 81.3459 32.9657C79.3445 31.4894 77.2864 30.1559 75.3863 29.2113C73.4708 28.2589 71.7796 27.7344 70.491 27.7987C69.1641 27.8648 64.8418 28.2151 62.8383 28.3827L62.7549 27.3862C64.7498 27.2193 69.0931 26.8671 70.4412 26.7999C71.9942 26.7225 73.8765 27.3438 75.8315 28.3158C77.802 29.2955 79.9114 30.6649 81.9395 32.161Z" fill="#140E41"/>
<path fill-rule="evenodd" clip-rule="evenodd" d="M36.9418 50.6308C37.113 50.4219 37.4191 50.3866 37.6332 50.5512L53.6892 62.8884C53.8996 63.0501 53.947 63.3482 53.7972 63.5672C52.3199 65.7264 50.0252 70.8248 52.294 76.0013L51.3781 76.4027C49.0388 71.0655 51.1578 65.8717 52.7122 63.3988L37.3973 51.631C36.4713 52.6437 34.9859 53.8502 33.1526 54.7634C31.0884 55.7915 28.5475 56.465 25.8418 56.035L25.9988 55.0474C28.4438 55.436 30.772 54.832 32.7067 53.8683C34.6452 52.9028 36.1531 51.5935 36.9418 50.6308Z" fill="#140E41"/>
<path fill-rule="evenodd" clip-rule="evenodd" d="M19.4265 49.9702C19.5275 49.9768 19.624 50.0139 19.7034 50.0766L57.8098 80.1457C57.8882 80.2075 57.9462 80.2913 57.9765 80.3864C58.0609 80.6514 58.258 81.1182 58.5194 81.7372C58.6094 81.9504 58.707 82.1816 58.8103 82.4288C59.204 83.3715 59.6619 84.5075 60.0255 85.6335C60.3863 86.7507 60.6681 87.8985 60.685 88.8552C60.7016 89.7887 60.4603 90.7513 59.5313 91.1418C58.215 91.6951 56.3751 91.5826 54.2627 91.0513C52.1273 90.5143 49.6181 89.524 46.8995 88.2065C41.4598 85.5703 35.1205 81.5939 29.1518 77.1992C23.1836 72.8049 17.5657 67.9774 13.576 63.6316C11.5825 61.46 9.98113 59.3934 8.94775 57.549C7.9264 55.726 7.40483 54.0236 7.73362 52.6252C7.96236 51.6523 8.77499 51.039 9.71865 50.6505C10.6719 50.258 11.8707 50.0455 13.0872 49.9347C15.5212 49.713 18.1718 49.8876 19.4188 49.9697L19.4265 49.9702ZM19.2059 50.9579C17.9057 50.8728 15.4348 50.725 13.1779 50.9306C11.9999 51.0379 10.9166 51.2387 10.0994 51.5752C9.27255 51.9156 8.82634 52.3468 8.70708 52.854C8.46782 53.8717 8.82775 55.2889 9.82015 57.0602C10.8005 58.81 12.3452 60.8122 14.3127 62.9553C18.245 67.2387 23.8091 72.0236 29.7447 76.3939C35.6798 80.7639 41.9661 84.7044 47.3356 87.3066C50.0216 88.6083 52.4628 89.5675 54.5066 90.0815C56.5732 90.6013 58.1411 90.6414 59.1438 90.2199C59.4781 90.0794 59.6999 89.7007 59.6852 88.8729C59.6709 88.0681 59.4272 87.0346 59.0739 85.9408C58.7236 84.8559 58.2789 83.7513 57.8875 82.8142C57.7953 82.5935 57.705 82.3796 57.6191 82.1762C57.3882 81.6296 57.1896 81.1594 57.0747 80.8394L19.2059 50.9579Z" fill="#C83936"/>
</svg>
